<svg width="1182" height="55" viewBox="0 0 1182 55" fill="none" xmlns="http://www.w3.org/2000/svg">
<path d="M0.999023 0.249512V11.8738C0.999023 18.1141 3.42567 24.0993 7.74503 28.5119C12.0644 32.9244 17.9226 35.4028 24.0311 35.4028H539.559C546.494 35.4045 553.358 36.8369 559.738 39.6146C566.117 42.3922 571.883 46.4582 576.687 51.5675L578.99 53.9204" stroke="#818181" stroke-width="0.8" stroke-miterlimit="10"/>
<path d="M1180.82 0.249512V11.8738C1180.82 18.1141 1178.39 24.0993 1174.07 28.5119C1169.75 32.9244 1163.89 35.4028 1157.79 35.4028H618.374C611.442 35.4023 604.581 36.8344 598.205 39.6123C591.828 42.3902 586.067 46.4567 581.269 51.5675L578.966 53.9204" stroke="#818181" stroke-width="0.8" stroke-miterlimit="10"/>
</svg>
