<svg width="77" height="79" viewBox="0 0 77 79" fill="none" xmlns="http://www.w3.org/2000/svg">
<path d="M38.6864 77.9399C59.5347 77.9399 76.4355 60.6733 76.4355 39.3752C76.4355 18.0772 59.5347 0.8125 38.6864 0.8125C17.838 0.8125 0.937012 18.0772 0.937012 39.3752C0.937012 60.6733 17.838 77.9399 38.6864 77.9399Z" stroke="#3D89EC" stroke-width="1.01" stroke-miterlimit="10"/>
<path d="M5.88428 20.2656L15.9708 25.9165L19.377 34.0867L30.6114 35.8364V49.5636L37.4047 58.5975V67.9786L50.5209 70.5938L53.419 74.9004" stroke="#3D89EC" stroke-width="1.01" stroke-linecap="round" stroke-linejoin="round"/>
<path d="M12.7349 51.4646L18.1733 46.6023L14.6167 41.9108L19.3777 34.0859" stroke="#3D89EC" stroke-width="1.01" stroke-linecap="round" stroke-linejoin="round"/>
<path d="M18.7007 57.9055L24.478 56.52L30.6127 49.5625" stroke="#3D89EC" stroke-width="1.01" stroke-linecap="round" stroke-linejoin="round"/>
<path d="M28.0535 60.8676L24.478 56.5215" stroke="#3D89EC" stroke-width="1.01" stroke-linecap="round" stroke-linejoin="round"/>
<path d="M37.4051 67.9805L32.9829 71.8065L37.4051 75.6326L36.3889 77.8816" stroke="#3D89EC" stroke-width="1.01" stroke-linecap="round" stroke-linejoin="round"/>
<path d="M24.647 75.1876L28.0532 70.5938L32.9835 71.8046" stroke="#3D89EC" stroke-width="1.01" stroke-linecap="round" stroke-linejoin="round"/>
<path d="M29.6528 12.5376V20.2667L38.6856 21.5733L42.167 14.614L37.4059 10.8086L29.6528 12.5376Z" stroke="#3D89EC" stroke-width="1.01" stroke-linecap="round" stroke-linejoin="round"/>
<path d="M52.5533 30.9551L44.6118 41.0477L53.4188 43.6629H60.2121L61.567 36.0108L52.5533 30.9551Z" stroke="#3D89EC" stroke-width="1.01" stroke-linecap="round" stroke-linejoin="round"/>
<path d="M44.612 47.582L43.2007 55.4632L51.8758 56.5201V49.5626L44.612 47.582Z" stroke="#3D89EC" stroke-width="1.01" stroke-linecap="round" stroke-linejoin="round"/>
<path d="M26.2642 29.741L29.6515 25.7422" stroke="#3D89EC" stroke-width="1.01" stroke-linecap="round" stroke-linejoin="round"/>
<path d="M37.4048 31.8359L42.1658 32.5287" stroke="#3D89EC" stroke-width="1.01" stroke-linecap="round" stroke-linejoin="round"/>
<path d="M47.5308 24.0159L51.8776 22.957" stroke="#3D89EC" stroke-width="1.01" stroke-linecap="round" stroke-linejoin="round"/>
</svg>
