<svg width="95" height="97" viewBox="0 0 95 97" fill="none" xmlns="http://www.w3.org/2000/svg">
<path d="M47.1347 95.999C72.8353 95.999 93.6697 74.7161 93.6697 48.4611C93.6697 22.2061 72.8353 0.920898 47.1347 0.920898C21.4341 0.920898 0.599609 22.2061 0.599609 48.4611C0.599609 74.7161 21.4341 95.999 47.1347 95.999Z" stroke="#3D89EC" stroke-width="1.01" stroke-miterlimit="10"/>
<path d="M67.5011 23.5527H35.0472C30.358 23.5527 26.5566 27.4341 26.5566 32.2244V45.5918C26.5566 50.3821 30.358 54.2657 35.0472 54.2657H67.5011C72.1902 54.2657 75.9914 50.3821 75.9914 45.5918V32.2244C75.9914 27.4341 72.1902 23.5527 67.5011 23.5527Z" stroke="#3D89EC" stroke-width="1.11" stroke-miterlimit="10"/>
<path d="M60.3334 43.8867V58.1057C60.3334 59.3628 59.8447 60.568 58.9746 61.4568C58.1045 62.3457 56.9244 62.8454 55.6939 62.8454H1.99072" stroke="#3D89EC" stroke-width="1.01" stroke-miterlimit="10"/>
<path d="M60.3354 48.0807C62.6031 48.0807 64.4415 46.2038 64.4415 43.8872C64.4415 41.5706 62.6031 39.6914 60.3354 39.6914C58.0677 39.6914 56.2295 41.5706 56.2295 43.8872C56.2295 46.2038 58.0677 48.0807 60.3354 48.0807Z" fill="#3D89EC"/>
<path d="M38.3205 35.9453C39.6401 35.9453 40.7099 34.8518 40.7099 33.5037C40.7099 32.1556 39.6401 31.0645 38.3205 31.0645C37.0008 31.0645 35.9312 32.1556 35.9312 33.5037C35.9312 34.8518 37.0008 35.9453 38.3205 35.9453Z" fill="#3D89EC"/>
<path d="M49.5252 35.9453C50.8448 35.9453 51.9145 34.8518 51.9145 33.5037C51.9145 32.1556 50.8448 31.0645 49.5252 31.0645C48.2056 31.0645 47.1357 32.1556 47.1357 33.5037C47.1357 34.8518 48.2056 35.9453 49.5252 35.9453Z" fill="#3D89EC"/>
<path d="M60.7259 35.9453C62.0455 35.9453 63.1152 34.8518 63.1152 33.5037C63.1152 32.1556 62.0455 31.0645 60.7259 31.0645C59.4063 31.0645 58.3364 32.1556 58.3364 33.5037C58.3364 34.8518 59.4063 35.9453 60.7259 35.9453Z" fill="#3D89EC"/>
</svg>
