<svg width="95" height="97" viewBox="0 0 95 97" fill="none" xmlns="http://www.w3.org/2000/svg">
<path d="M47.8716 96.3326C73.509 96.3326 94.2924 75.0997 94.2924 48.9093C94.2924 22.7188 73.509 1.48828 47.8716 1.48828C22.2342 1.48828 1.45117 22.7188 1.45117 48.9093C1.45117 75.0997 22.2342 96.3326 47.8716 96.3326Z" stroke="#3D89EC" stroke-width="1.01" stroke-miterlimit="10"/>
<path d="M34.9821 30.1413C35.1341 29.9659 35.2507 29.7602 35.3253 29.5388C35.4 29.3173 35.4314 29.0823 35.4174 28.8485C35.4035 28.6147 35.3445 28.3873 35.244 28.1767C35.1435 27.9662 35.0033 27.7779 34.8316 27.6227C34.6599 27.4674 34.4599 27.348 34.2432 27.2717C34.0264 27.1955 33.7972 27.1628 33.5683 27.1771C33.3395 27.1914 33.1156 27.2522 32.9096 27.3549C32.7035 27.4575 32.5191 27.6019 32.3672 27.7773L29.3819 31.2749C27.6901 33.2394 26.7315 35.7509 26.6746 38.3669L26.5356 44.7733C26.5356 45.2435 26.7186 45.6943 27.0441 46.0268C27.3696 46.3593 27.8109 46.5463 28.2712 46.5463C28.7315 46.5463 29.1731 46.3593 29.4986 46.0268C29.8241 45.6943 30.0068 45.2435 30.0068 44.7733L30.1458 38.3438C30.1757 36.5401 30.8317 34.8051 31.9969 33.4496L34.9821 30.1413Z" fill="#3D89EC" stroke="white" stroke-width="0.25" stroke-miterlimit="10"/>
<path fill-rule="evenodd" clip-rule="evenodd" d="M34.5397 42.6413C34.6928 40.1138 35.7834 37.739 37.5891 36.0041C39.3949 34.2692 41.7802 33.3042 44.2591 33.303H45.5548V31.53C45.5548 30.9031 45.7988 30.3019 46.2328 29.8586C46.6667 29.4153 47.2552 29.166 47.8689 29.166C48.4826 29.166 49.0713 29.4153 49.5053 29.8586C49.9393 30.3019 50.183 30.9031 50.183 31.53V33.303H51.479C53.9579 33.3042 56.3432 34.2692 58.149 36.0041C59.9547 37.739 61.045 40.1138 61.1981 42.6413L61.7074 50.9846C61.9081 54.1666 62.9562 57.2321 64.7387 59.8497C65.1127 60.3891 65.3428 61.0202 65.4062 61.6781C65.4696 62.336 65.3639 62.9975 65.1 63.6011C64.8361 64.2047 64.423 64.7293 63.9011 65.1202C63.3792 65.511 62.7666 65.7557 62.1238 65.8312L54.2326 66.8009V69.3542C54.2326 71.0783 53.5623 72.7314 52.3688 73.9506C51.1754 75.1698 49.5567 75.8552 47.8689 75.8552C46.1811 75.8552 44.5627 75.1698 43.3693 73.9506C42.1758 72.7314 41.5052 71.0783 41.5052 69.3542V66.8009L33.6143 65.8312C32.9714 65.7557 32.3588 65.511 31.8369 65.1202C31.3151 64.7293 30.9017 64.2047 30.6378 63.6011C30.3739 62.9975 30.2685 62.336 30.3319 61.6781C30.3953 61.0202 30.6254 60.3891 30.9994 59.8497C32.7819 57.2321 33.83 54.1666 34.0307 50.9846L34.5397 42.6413ZM44.2591 36.849C42.6618 36.8458 41.1234 37.4646 39.958 38.5805C38.7926 39.6963 38.0882 41.2252 37.988 42.8537L37.4787 51.197C37.251 55.032 35.9941 58.7301 33.8457 61.8835C33.8155 61.9208 33.7962 61.9649 33.7897 62.0128C33.7833 62.0607 33.79 62.1094 33.8092 62.1536C33.8285 62.1978 33.8593 62.2372 33.8985 62.2645C33.9376 62.2917 33.9834 62.3062 34.0307 62.3083L42.6854 63.3726C46.1285 63.7981 49.6093 63.7981 53.0524 63.3726L61.7074 62.3083C61.7547 62.3062 61.8004 62.2917 61.8396 62.2645C61.8787 62.2372 61.9096 62.1978 61.9289 62.1536C61.9481 62.1094 61.9548 62.0607 61.9483 62.0128C61.9419 61.9649 61.9226 61.9208 61.8924 61.8835C59.7439 58.7301 58.4868 55.032 58.2591 51.197L57.7501 42.8537C57.6499 41.2252 56.9452 39.6963 55.7798 38.5805C54.6144 37.4646 53.0763 36.8458 51.479 36.849H44.2591ZM47.8689 72.3092C47.1017 72.3092 46.3662 71.9976 45.8237 71.4435C45.2813 70.8893 44.9763 70.1379 44.9763 69.3542V67.5812H50.7615V69.3542C50.7434 70.1255 50.4309 70.8584 49.8903 71.3973C49.3498 71.9362 48.6242 72.2378 47.8689 72.2376V72.3092Z" fill="#3D89EC" stroke="white" stroke-width="0.25" stroke-miterlimit="10"/>
<path d="M60.9909 27.6278C60.6488 27.9411 60.4403 28.3785 60.4101 28.8468C60.3798 29.3151 60.5303 29.7784 60.829 30.135L63.814 33.6325C64.9792 34.988 65.6354 36.723 65.6654 38.5267L65.8041 44.9562C65.8041 45.4264 65.987 45.8773 66.3125 46.2098C66.638 46.5423 67.0793 46.7292 67.5396 46.7292C67.9999 46.7292 68.4415 46.5423 68.767 46.2098C69.0925 45.8773 69.2752 45.4264 69.2752 44.9562L69.1365 38.5498C69.0796 35.9339 68.1207 33.4224 66.4289 31.4578L63.4439 27.958C63.1601 27.5839 62.7433 27.3412 62.2841 27.2792C61.8248 27.2173 61.36 27.3418 60.9909 27.6278Z" fill="#3D89EC" stroke="white" stroke-width="0.25" stroke-miterlimit="10"/>
</svg>
