<svg width="77" height="79" viewBox="0 0 77 79" fill="none" xmlns="http://www.w3.org/2000/svg">
<path d="M38.6864 78.1C59.5347 78.1 76.4355 60.8353 76.4355 39.5373C76.4355 18.2392 59.5347 0.972656 38.6864 0.972656C17.838 0.972656 0.937012 18.2392 0.937012 39.5373C0.937012 60.8353 17.838 78.1 38.6864 78.1Z" stroke="#3D89EC" stroke-width="1.01" stroke-miterlimit="10"/>
<path fill-rule="evenodd" clip-rule="evenodd" d="M20.3551 39.7866C20.3232 42.25 20.7786 44.6938 21.6937 46.9731C22.6088 49.2524 23.9649 51.321 25.6808 53.052C27.4083 54.7757 29.4469 56.1399 31.6837 57.0695C32.0403 57.2658 32.313 57.5903 32.4491 57.9801C32.5852 58.3698 32.5751 58.7972 32.4206 59.1797C32.2662 59.5622 31.9785 59.8724 31.6129 60.0508C31.2474 60.2292 30.8302 60.2623 30.4419 60.1447C27.8289 59.0389 25.4463 57.4339 23.4225 55.4156C21.3931 53.3803 19.7883 50.9472 18.7049 48.261C17.6214 45.5748 17.0817 42.6916 17.1185 39.7866C17.1185 33.9437 19.3906 28.3399 23.4349 24.2083C27.4792 20.0767 32.9647 17.7559 38.6842 17.7559C44.4038 17.7559 49.889 20.0767 53.9333 24.2083C57.9777 28.3399 60.2498 33.9437 60.2498 39.7866C60.1844 43.5899 59.0966 47.3015 57.1052 50.5157C55.1139 53.7299 52.2957 56.322 48.9589 58.0101H54.849C55.2782 58.0101 55.6897 58.1844 55.9932 58.4945C56.2967 58.8045 56.4673 59.2256 56.4673 59.6641C56.4673 60.1025 56.2967 60.5236 55.9932 60.8336C55.6897 61.1437 55.2782 61.318 54.849 61.318H45.1199C44.9067 61.3206 44.6951 61.2781 44.4976 61.196C44.3001 61.1138 44.1207 60.9933 43.9699 60.8393C43.8192 60.6852 43.7001 60.5022 43.6196 60.3005C43.5392 60.0987 43.499 59.8819 43.5016 59.6641V49.7253C43.5016 49.2869 43.6722 48.8658 43.9757 48.5557C44.2792 48.2457 44.6907 48.0714 45.1199 48.0714C45.5491 48.0714 45.9608 48.2457 46.2643 48.5557C46.5678 48.8658 46.7382 49.2869 46.7382 49.7253V55.4926C50.276 53.5702 56.9566 48.995 56.9566 39.7866C56.9566 34.8206 55.0255 30.0571 51.5882 26.5456C48.1508 23.0341 43.4888 21.0619 38.6277 21.0619C33.7666 21.0619 29.1046 23.0341 25.6673 26.5456C22.2299 30.0571 20.2988 34.8206 20.2988 39.7866H20.3551Z" fill="#3D89EC" stroke="white" stroke-width="0.47" stroke-miterlimit="10"/>
<path d="M46.7779 32.2898C46.5334 31.6077 46.1335 30.9954 45.6112 30.5025C44.9671 29.9478 44.2173 29.5356 43.4094 29.2916C42.2777 28.9641 41.1038 28.8141 39.9281 28.8486H38.0462H36.8984H35.8258C35.7068 28.8461 35.5884 28.8699 35.4783 28.9162C35.3682 28.9625 35.2686 29.0315 35.1858 29.1189C35.1028 29.2045 35.0382 29.3068 34.9961 29.4193C34.954 29.5319 34.9352 29.6519 34.9412 29.7723V38.1152H32.8901C32.7707 38.1103 32.6518 38.1326 32.5414 38.179C32.4309 38.2255 32.3317 38.2943 32.2503 38.3837C32.1648 38.4683 32.0972 38.5716 32.0519 38.6841C32.0065 38.7965 31.9844 38.9173 31.9868 39.0389C31.9866 39.1602 32.0096 39.2797 32.0548 39.3918C32.1 39.504 32.1665 39.6063 32.2503 39.6922C32.3291 39.7848 32.428 39.8576 32.5391 39.9043C32.6502 39.9511 32.7703 39.9698 32.8901 39.9607H34.8096V42.94H32.7585C32.6405 42.9326 32.5224 42.9514 32.412 42.9945C32.3017 43.0376 32.2015 43.1038 32.1185 43.1897C32.0329 43.2743 31.9656 43.3776 31.9202 43.4901C31.8749 43.6025 31.8528 43.7233 31.8552 43.8449C31.8524 43.9694 31.8743 44.0916 31.9195 44.2072C31.9648 44.3229 32.0324 44.4288 32.1185 44.517C32.1998 44.6063 32.2993 44.677 32.4097 44.7235C32.5202 44.77 32.6391 44.7904 32.7585 44.7855H34.8096V47.4964C34.8016 47.6553 34.826 47.8149 34.881 47.9638C34.9361 48.1127 35.0207 48.248 35.1296 48.3618C35.2417 48.4721 35.3745 48.5572 35.5201 48.6134C35.6657 48.6696 35.8208 48.6955 35.9763 48.6885C36.1345 48.6948 36.2925 48.6695 36.441 48.6134C36.5895 48.5573 36.7257 48.4718 36.8419 48.3618C37.0545 48.1269 37.1694 47.8162 37.1618 47.4964V44.7855H41.0759C41.1935 44.7909 41.311 44.7726 41.4207 44.7291C41.5305 44.6857 41.6302 44.6189 41.7134 44.5339C41.7966 44.4489 41.8615 44.3475 41.9041 44.2354C41.9466 44.1233 41.9659 44.0026 41.9606 43.8825C41.9634 43.635 41.8762 43.396 41.7159 43.2104C41.6318 43.1247 41.5319 43.0557 41.4221 43.0095C41.3123 42.9633 41.1947 42.9397 41.0759 42.94H37.1618V39.9607H40.0787C41.1212 39.9792 42.1605 39.8433 43.1647 39.557C43.9626 39.331 44.706 38.939 45.3477 38.4043C45.9041 37.9332 46.3428 37.3332 46.6274 36.6546C46.924 35.9575 47.0715 35.2031 47.0602 34.4431C47.0783 33.7147 46.983 32.9877 46.7779 32.2898ZM43.4094 37.308C42.3983 37.9369 41.2223 38.2331 40.0411 38.1546H37.2184V31.1559H38.7425H40.1539C41.3535 31.0603 42.5506 31.371 43.5601 32.0401C43.9262 32.3718 44.212 32.7854 44.3948 33.2491C44.5777 33.7128 44.6525 34.2151 44.6138 34.7134C44.6416 35.2144 44.546 35.7131 44.3356 36.1665C44.1252 36.6199 43.8066 37.0128 43.4094 37.308Z" fill="#3D89EC"/>
</svg>
