<svg width="58" height="49" viewBox="0 0 58 49" fill="none" xmlns="http://www.w3.org/2000/svg">
<path d="M42.2733 22.2979C42.2733 26.405 41.0812 30.4182 38.8477 33.8331C36.6141 37.248 33.4394 39.9096 29.7251 41.4813C26.0109 43.053 21.9237 43.4644 17.9806 42.6631C14.0375 41.8619 10.4157 39.885 7.57287 36.9809C4.73007 34.0768 2.79404 30.3762 2.00972 26.3481C1.22539 22.32 1.62798 18.1459 3.16649 14.3515C4.705 10.557 7.3103 7.31354 10.6531 5.03179C13.9958 2.75004 17.9259 1.53129 21.9462 1.53129C24.617 1.52622 27.2626 2.05967 29.731 3.10145C32.1994 4.14322 34.4422 5.67255 36.3308 7.60182C38.2193 9.5311 39.7163 11.8223 40.7361 14.3439C41.7559 16.8656 42.2783 19.5695 42.2733 22.2979Z" stroke="#3D89EC" stroke-width="1.95" stroke-linecap="round" stroke-linejoin="round"/>
<path d="M55.6039 47.0001L40.0718 35.1104" stroke="#3D89EC" stroke-width="3.59" stroke-linecap="round" stroke-linejoin="round"/>
<path d="M14.2749 23.7942L20.2358 29.4614L31.1421 15.1123" stroke="#3D89EC" stroke-width="1.95" stroke-linecap="round" stroke-linejoin="round"/>
</svg>
