<svg width="34" height="51" viewBox="0 0 34 51" fill="none" xmlns="http://www.w3.org/2000/svg">
<path d="M6.26001 29.7325H28.03C28.1387 29.7008 28.2343 29.6341 28.3023 29.542C28.3704 29.4498 28.4072 29.3372 28.4072 29.2217C28.4072 29.1063 28.3704 28.9936 28.3023 28.9015C28.2343 28.8093 28.1387 28.7426 28.03 28.7109H6.26001C6.15135 28.7426 6.05579 28.8093 5.98773 28.9015C5.91968 28.9936 5.88281 29.1063 5.88281 29.2217C5.88281 29.3372 5.91968 29.4498 5.98773 29.542C6.05579 29.6341 6.15135 29.7008 6.26001 29.7325Z" fill="#3D89EC"/>
<path d="M6.26001 33.9923H28.03C28.1387 33.9606 28.2343 33.8939 28.3023 33.8017C28.3704 33.7096 28.4072 33.5969 28.4072 33.4815C28.4072 33.366 28.3704 33.2534 28.3023 33.1613C28.2343 33.0691 28.1387 33.0024 28.03 32.9707H6.26001C6.15135 33.0024 6.05579 33.0691 5.98773 33.1613C5.91968 33.2534 5.88281 33.366 5.88281 33.4815C5.88281 33.5969 5.91968 33.7096 5.98773 33.8017C6.05579 33.8939 6.15135 33.9606 6.26001 33.9923Z" fill="#3D89EC"/>
<path d="M6.26001 38.3536H18.05C18.1586 38.3219 18.2543 38.2542 18.3223 38.1621C18.3904 38.0699 18.4272 37.9583 18.4272 37.8428C18.4272 37.7274 18.3904 37.6147 18.3223 37.5226C18.2543 37.4304 18.1586 37.3637 18.05 37.332H6.26001C6.15135 37.3637 6.05579 37.4304 5.98773 37.5226C5.91968 37.6147 5.88281 37.7274 5.88281 37.8428C5.88281 37.9583 5.91968 38.0699 5.98773 38.1621C6.05579 38.2542 6.15135 38.3219 6.26001 38.3536Z" fill="#3D89EC"/>
<path d="M17.5814 21.3238C17.2569 21.3226 16.9416 21.2135 16.6835 21.0125C16.4254 20.8115 16.2386 20.5298 16.1514 20.2104L15.7014 18.4945C15.3997 18.4734 15.0992 18.4355 14.8014 18.3818L13.9314 19.9141C13.8369 20.0855 13.7093 20.2356 13.5563 20.3551C13.4033 20.4745 13.2282 20.5614 13.0415 20.6095C12.6675 20.7131 12.2685 20.6611 11.9314 20.4658L10.3515 19.536C10.0196 19.3335 9.77771 19.0074 9.67695 18.6262C9.57619 18.245 9.62442 17.8385 9.81141 17.4929L10.6814 15.9505C10.4817 15.7222 10.2979 15.4799 10.1314 15.2253L8.45143 15.6852C8.08159 15.7866 7.68759 15.7363 7.35328 15.5455C7.01898 15.3547 6.77079 15.0385 6.66145 14.6636L6.18141 12.8659C6.07943 12.488 6.1272 12.0837 6.31434 11.7415C6.50148 11.3993 6.81295 11.1466 7.18141 11.0372L8.84144 10.5873C8.86041 10.2783 8.90051 9.97171 8.96144 9.66847L7.45143 8.77958C7.12042 8.57521 6.87746 8.24972 6.77143 7.86974C6.72045 7.68015 6.70745 7.48197 6.73323 7.28713C6.759 7.09228 6.82298 6.90541 6.9214 6.73643L7.83143 5.12227C8.02601 4.77924 8.34549 4.52827 8.72017 4.42493C9.09484 4.32158 9.49429 4.37421 9.83143 4.57058L11.3414 5.45947C11.5684 5.25533 11.8089 5.06778 12.0614 4.8978L11.6114 3.18088C11.5091 2.80166 11.5566 2.39642 11.7436 2.05257C11.9306 1.70871 12.2422 1.45389 12.6114 1.34225L14.3314 0.872371C14.5227 0.831606 14.7202 0.831606 14.9114 0.872371C15.1978 0.910842 15.4666 1.03495 15.6838 1.22952C15.901 1.4241 16.0567 1.68072 16.1314 1.96577L16.5814 3.68169C16.8837 3.70244 17.1843 3.74351 17.4814 3.8044L18.3515 2.26207C18.4459 2.09068 18.5736 1.94054 18.7266 1.82112C18.8796 1.7017 19.0547 1.61482 19.2414 1.56672C19.6155 1.46419 20.014 1.51617 20.3515 1.71038L21.9314 2.64017C22.2596 2.84608 22.4978 3.17264 22.5964 3.553C22.6951 3.93336 22.6468 4.33837 22.4614 4.68331L21.5914 6.21567C21.7889 6.44947 21.9726 6.69481 22.1414 6.95092L23.8314 6.49102C24.0155 6.43978 24.2077 6.42678 24.3967 6.45311C24.5857 6.47944 24.7675 6.54495 24.9314 6.64465C25.0993 6.74243 25.2466 6.87273 25.365 7.02874C25.4834 7.18475 25.5705 7.36305 25.6214 7.55349L26.0914 9.35122C26.1885 9.73029 26.1387 10.133 25.9524 10.4755C25.7661 10.8181 25.4578 11.0737 25.0914 11.1899L23.4014 11.6498C23.4014 11.9562 23.3415 12.2631 23.2915 12.5696L24.7915 13.4475C25.1233 13.65 25.3651 13.9771 25.4659 14.3583C25.5667 14.7395 25.5184 15.145 25.3314 15.4906L24.4214 17.1048C24.2233 17.4441 23.9032 17.691 23.5294 17.7922C23.1557 17.8933 22.7579 17.841 22.4214 17.6465L20.9114 16.7576C20.6826 16.9593 20.4421 17.1468 20.1914 17.3193L20.6414 19.0362C20.6918 19.2259 20.7045 19.4241 20.6788 19.6188C20.653 19.8136 20.5893 20.0003 20.4914 20.1695C20.3957 20.341 20.2678 20.4915 20.1151 20.6125C19.9624 20.7334 19.7879 20.8229 19.6015 20.8748L17.8414 21.3547C17.7541 21.3523 17.6671 21.3418 17.5814 21.3238ZM14.5814 17.432H14.6814C15.1267 17.5447 15.5828 17.606 16.0415 17.6156C16.1358 17.6151 16.2275 17.6471 16.3019 17.7064C16.3763 17.7657 16.429 17.8492 16.4514 17.9428L16.9914 19.9859C17.0336 20.1411 17.1337 20.2728 17.2703 20.3531C17.4069 20.4334 17.569 20.4557 17.7214 20.4149L19.4814 19.9351C19.6332 19.892 19.7624 19.7893 19.841 19.6497C19.9196 19.5102 19.9413 19.3446 19.9014 19.1888L19.3714 17.1457C19.3485 17.0539 19.3545 16.9574 19.3886 16.8694C19.4227 16.7813 19.4832 16.7067 19.5614 16.6559C19.9542 16.4111 20.3197 16.1236 20.6514 15.7979C20.7203 15.7321 20.808 15.6902 20.9016 15.6792C20.9952 15.6681 21.0897 15.688 21.1714 15.736L22.9514 16.7576C23.0899 16.8363 23.2529 16.8574 23.406 16.8155C23.559 16.7735 23.6901 16.6721 23.7714 16.5332L24.6814 14.919C24.7218 14.8506 24.7472 14.7739 24.7559 14.6945C24.7645 14.6152 24.7561 14.5348 24.7314 14.4591C24.7137 14.382 24.6806 14.3099 24.6342 14.2466C24.5877 14.1833 24.5289 14.1308 24.4614 14.092L22.6814 13.0704C22.599 13.0235 22.5345 12.9488 22.4982 12.8599C22.4619 12.7709 22.456 12.6724 22.4814 12.5795C22.5841 12.1235 22.6411 11.6577 22.6514 11.1899C22.6527 11.0939 22.6846 11.0011 22.7424 10.9255C22.8002 10.8498 22.8807 10.7964 22.9714 10.7718L24.9714 10.2301C25.1233 10.1871 25.2524 10.0843 25.331 9.94481C25.4096 9.80527 25.4313 9.63965 25.3914 9.48391L24.9214 7.6762C24.8793 7.52108 24.7791 7.38936 24.6425 7.30907C24.5059 7.22879 24.3439 7.20648 24.1914 7.24722L22.1914 7.78794C22.1016 7.81302 22.0063 7.80797 21.9198 7.77297C21.8332 7.73797 21.7601 7.67547 21.7114 7.5944C21.4719 7.19314 21.1902 6.81993 20.8714 6.48104C20.8084 6.40995 20.7688 6.3199 20.7581 6.22465C20.7473 6.1294 20.7659 6.03318 20.8114 5.94931L21.8114 4.13162C21.8884 3.99015 21.9086 3.82308 21.8675 3.66673C21.8264 3.51038 21.7274 3.37671 21.5914 3.29362L20.0114 2.36383C19.8665 2.30723 19.7063 2.30723 19.5614 2.36383C19.486 2.38187 19.4151 2.41611 19.3531 2.46359C19.2911 2.51107 19.2395 2.57126 19.2014 2.64017L18.2014 4.45785C18.1545 4.54145 18.0825 4.60777 17.9961 4.6464C17.9097 4.68503 17.8134 4.69387 17.7214 4.67234C17.2762 4.55967 16.82 4.49832 16.3614 4.48878C16.2683 4.48434 16.179 4.45056 16.1055 4.39201C16.0321 4.33345 15.9782 4.25269 15.9514 4.16155L15.4214 2.11841C15.3875 2.00325 15.3227 1.90056 15.2343 1.82112C15.146 1.74167 15.0375 1.68919 14.9214 1.66948H14.6914L12.9314 2.14934C12.7791 2.19253 12.6493 2.29455 12.569 2.43366C12.4888 2.57277 12.4646 2.73857 12.5014 2.89556L13.0415 4.93871C13.0658 5.03301 13.0594 5.13273 13.0233 5.22303C12.9872 5.31333 12.9234 5.38854 12.8414 5.43852C12.4467 5.67633 12.0808 5.96102 11.7514 6.2865C11.6834 6.34998 11.5976 6.39023 11.5061 6.40123C11.4146 6.41223 11.322 6.39397 11.2414 6.34836L9.46144 5.32678C9.32295 5.2481 9.1599 5.22697 9.00685 5.26892C8.8538 5.31087 8.72276 5.41232 8.64143 5.55125L7.7314 7.16542C7.69217 7.2342 7.66668 7.30998 7.65638 7.38888C7.64608 7.46779 7.65119 7.54845 7.6714 7.62532C7.69009 7.70462 7.72466 7.77876 7.77284 7.8438C7.82102 7.90884 7.8818 7.9635 7.95143 8.00342L9.7314 9.025C9.81299 9.0701 9.87726 9.1413 9.91359 9.22851C9.94991 9.31572 9.95617 9.41351 9.93141 9.50486C9.8309 9.96155 9.77067 10.4259 9.75142 10.8936C9.75188 10.9899 9.7206 11.0839 9.66255 11.1599C9.6045 11.2359 9.52305 11.2896 9.43141 11.3126L7.43141 11.8543C7.2836 11.8995 7.15852 12.0016 7.08216 12.1386C7.00581 12.2756 6.98409 12.4366 7.02143 12.5895L7.49141 14.3982C7.51185 14.4754 7.54715 14.5476 7.59523 14.6107C7.6433 14.6739 7.70321 14.7261 7.77143 14.7654C7.91123 14.8458 8.07607 14.8684 8.2314 14.8272L10.2314 14.2855C10.3212 14.2604 10.4166 14.2655 10.5031 14.3005C10.5897 14.3355 10.6628 14.399 10.7114 14.48C10.9535 14.8795 11.2349 15.2525 11.5514 15.5934C11.6164 15.6612 11.6576 15.7485 11.6685 15.8428C11.6793 15.9371 11.6592 16.0328 11.6114 16.1141L10.6114 17.9428C10.556 18.0908 10.556 18.2547 10.6114 18.4027C10.6499 18.5597 10.7468 18.6954 10.8814 18.7808L12.4614 19.7106C12.6098 19.767 12.773 19.767 12.9214 19.7106C13.0714 19.6689 13.2002 19.5697 13.2814 19.4343L14.2814 17.6156C14.3194 17.5722 14.3655 17.5374 14.4171 17.5128C14.4686 17.4882 14.5246 17.4748 14.5814 17.4729V17.432Z" fill="#3D89EC"/>
<path d="M16.2619 15.0933C15.4934 15.0954 14.7416 14.8639 14.1019 14.4289C13.3136 13.8853 12.7407 13.0734 12.486 12.1373C12.2313 11.2013 12.3113 10.2022 12.7119 9.32104C12.7635 9.21654 12.853 9.13672 12.9613 9.09856C13.0696 9.06041 13.1882 9.06773 13.2919 9.11752C13.3444 9.14147 13.3915 9.17594 13.4304 9.21928C13.4692 9.26261 13.499 9.31337 13.5177 9.36892C13.5365 9.42447 13.5439 9.48392 13.5394 9.54251C13.535 9.6011 13.5188 9.65817 13.4919 9.71011C13.2028 10.3122 13.109 10.9922 13.224 11.6525C13.339 12.3128 13.6568 12.9181 14.1314 13.3814C14.606 13.8447 15.2127 14.142 15.8636 14.2294C16.5144 14.3167 17.1757 14.1905 17.7513 13.8682C18.327 13.5459 18.7872 13.0441 19.0653 12.4366C19.3434 11.8291 19.4248 11.1472 19.2978 10.4893C19.1709 9.8313 18.8421 9.23157 18.3592 8.77733C17.8762 8.32309 17.2642 8.03829 16.6119 7.96326C16.4288 7.94795 16.2449 7.94795 16.0619 7.96326C15.5019 8.00376 14.9629 8.19767 14.5019 8.52493C14.4553 8.55847 14.4027 8.582 14.347 8.59476C14.2914 8.60752 14.2338 8.60871 14.1777 8.59875C14.1215 8.58879 14.0677 8.56806 14.0196 8.5369C13.9714 8.50573 13.9297 8.46481 13.8969 8.41718C13.8306 8.321 13.8044 8.20188 13.8241 8.08597C13.8438 7.97006 13.9077 7.86739 14.0019 7.79965C14.5916 7.37824 15.2836 7.13064 16.0019 7.08435C16.5323 7.04594 17.0648 7.11697 17.5675 7.29385C18.0703 7.47074 18.5329 7.74998 18.9277 8.1139C19.3224 8.47783 19.6411 8.91902 19.8648 9.41182C20.0884 9.90462 20.2124 10.4382 20.2292 10.9811C20.2461 11.524 20.1555 12.065 19.9628 12.5713C19.7701 13.0776 19.4793 13.5394 19.1079 13.9281C18.7365 14.3168 18.2921 14.6249 17.8014 14.8339C17.3106 15.043 16.7836 15.1482 16.2519 15.1442L16.2619 15.0933Z" fill="#3D89EC"/>
<path d="M27.7418 10.2207H29.2618C30.2219 10.2207 31.1427 10.6096 31.8215 11.3031C32.5004 11.9967 32.8818 12.9371 32.8818 13.9179V46.1284C32.8818 46.614 32.7881 47.0953 32.6062 47.544C32.4243 47.9927 32.1577 48.3998 31.8215 48.7432C31.4854 49.0866 31.0863 49.3594 30.6471 49.5452C30.2079 49.7311 29.7372 49.8266 29.2618 49.8266H4.46179C3.98641 49.8266 3.51568 49.7311 3.07648 49.5452C2.63728 49.3594 2.23819 49.0866 1.90204 48.7432C1.56589 48.3998 1.29923 47.9927 1.11731 47.544C0.935388 47.0953 0.841797 46.614 0.841797 46.1284V13.9179C0.841797 12.9371 1.22316 11.9967 1.90204 11.3031C2.58092 10.6096 3.50171 10.2207 4.46179 10.2207H5.7818" stroke="#3D89EC" stroke-width="1.1" stroke-linecap="round" stroke-linejoin="round"/>
</svg>
