<svg width="77" height="79" viewBox="0 0 77 79" fill="none" xmlns="http://www.w3.org/2000/svg">
<mask id="mask0_19_6781" style="mask-type:luminance" maskUnits="userSpaceOnUse" x="0" y="0" width="77" height="78">
<path d="M38.6754 77.9399C59.5237 77.9399 76.4247 60.6733 76.4247 39.3752C76.4247 18.0772 59.5237 0.8125 38.6754 0.8125C17.8271 0.8125 0.92627 18.0772 0.92627 39.3752C0.92627 60.6733 17.8271 77.9399 38.6754 77.9399Z" fill="white"/>
</mask>
<g mask="url(#mask0_19_6781)">
<path d="M28.7768 18.0767V14.2319H20.5156C20.3455 14.2427 20.1753 14.2172 20.0155 14.1568C19.8557 14.0964 19.7098 14.004 19.5875 13.8827C19.4653 13.7614 19.3692 13.6142 19.3054 13.4528C19.2417 13.2914 19.2117 13.118 19.2172 12.944C19.2172 12.0789 19.7064 11.6377 20.5156 11.5416C20.8478 11.5226 21.1808 11.5226 21.513 11.5416H87.9224C88.2717 11.5416 88.6068 11.6835 88.8539 11.9359C89.1009 12.1882 89.2396 12.5308 89.2396 12.8877C89.2396 13.2446 89.1009 13.5853 88.8539 13.8376C88.6068 14.09 88.2717 14.2319 87.9224 14.2319C85.6454 14.2319 83.3684 14.2319 81.0914 14.2319H79.8116V18.0767H86.2475C89.3713 18.0767 89.3714 18.0774 89.3714 21.2494V52.9504C90.4212 52.5599 91.5585 52.484 92.649 52.7327C93.7394 52.9813 94.7374 53.5433 95.525 54.3528C95.6725 54.4907 95.8107 54.6393 95.9389 54.7959C96.654 55.6994 96.6915 56.5062 96.0517 57.0637C95.4119 57.6212 94.6403 57.4491 93.9064 56.5456C93.6049 56.1424 93.2122 55.8188 92.7618 55.605C92.3113 55.3913 91.8168 55.2932 91.3208 55.3178C90.8247 55.3424 90.3418 55.4904 89.9138 55.7477C89.4857 56.005 89.1252 56.3642 88.8633 56.7953C88.3417 57.5959 87.6369 58.254 86.8101 58.7139C85.9833 59.1739 85.0594 59.4216 84.1181 59.4348C83.1768 59.4481 82.2465 59.2274 81.4077 58.7909C80.5688 58.3544 79.8465 57.7142 79.3035 56.9286C79.0366 56.4358 78.6455 56.0262 78.1706 55.7402C77.6957 55.4542 77.1545 55.3028 76.6032 55.3028C76.0519 55.3028 75.5108 55.4542 75.0359 55.7402C74.561 56.0262 74.1696 56.4358 73.9027 56.9286C73.3877 57.7216 72.6888 58.3728 71.8679 58.8228C71.047 59.2729 70.1298 59.508 69.1982 59.508C68.2665 59.508 67.3495 59.2729 66.5287 58.8228C65.7078 58.3728 65.0086 57.7216 64.4936 56.9286C64.2267 56.4358 63.8356 56.0262 63.3607 55.7402C62.8858 55.4542 62.3446 55.3028 61.7933 55.3028C61.242 55.3028 60.7009 55.4542 60.226 55.7402C59.7511 56.0262 59.3597 56.4358 59.0928 56.9286C58.5778 57.7216 57.8789 58.3728 57.058 58.8228C56.2371 59.2729 55.3199 59.508 54.3883 59.508C53.4567 59.508 52.5396 59.2729 51.7188 58.8228C50.8979 58.3728 50.1987 57.7216 49.6837 56.9286C49.4093 56.4628 49.0216 56.079 48.5584 55.8115C48.0951 55.544 47.5721 55.4023 47.04 55.4023C46.5078 55.4023 45.9846 55.544 45.5213 55.8115C45.058 56.079 44.6704 56.4628 44.3959 56.9286C43.8896 57.7631 43.1832 58.4522 42.3435 58.9298C41.5037 59.4074 40.5583 59.6582 39.5972 59.6582C38.6361 59.6582 37.691 59.4074 36.8512 58.9298C36.0115 58.4522 35.305 57.7631 34.7987 56.9286C34.5212 56.4757 34.1355 56.1023 33.678 55.8434C33.2204 55.5846 32.706 55.4492 32.183 55.4492C31.66 55.4492 31.1455 55.5846 30.688 55.8434C30.2305 56.1023 29.8448 56.4757 29.5672 56.9286C29.076 57.738 28.3962 58.411 27.5885 58.8866C26.7808 59.3622 25.8703 59.6259 24.9385 59.6545C24.0066 59.683 23.0825 59.4752 22.2483 59.05C21.4142 58.6247 20.696 57.9955 20.1581 57.2177C19.7811 56.6978 19.331 56.238 18.8221 55.8528C18.1714 55.4745 17.4059 55.3572 16.6752 55.5243C15.9445 55.6914 15.3009 56.1302 14.8701 56.7558C14.1927 57.5633 13.44 57.7376 12.8002 57.1801C12.1604 56.6226 12.1604 55.9304 12.8002 55.1038C13.418 54.239 14.2592 53.5666 15.2296 53.1626C16.2001 52.7585 17.2617 52.638 18.2952 52.8153L19.0854 52.9692H19.33V20.4234C19.33 18.6355 19.6876 18.2701 21.4565 18.2701L28.7768 18.0767ZM21.833 20.8064V22.0755C21.833 32.6487 21.833 43.2234 21.833 53.8159C21.8431 54.2559 21.9478 54.6873 22.1399 55.0812C22.332 55.4752 22.6067 55.8216 22.9443 56.095C23.282 56.3684 23.6745 56.5628 24.0938 56.6638C24.5132 56.7649 24.9491 56.7693 25.3708 56.6789C25.5838 56.6593 25.7809 56.5565 25.9212 56.3916C26.0615 56.2268 26.1342 56.0128 26.1236 55.7946C26.2242 54.3285 26.419 52.8717 26.7068 51.4317C28.1432 44.6332 31.9366 38.5934 37.3876 34.4266C42.8387 30.2598 49.5802 28.2466 56.37 28.757C63.1598 29.2673 69.5401 32.2662 74.3355 37.2032C79.1309 42.1401 82.0181 48.6819 82.4651 55.6219C82.4782 55.7921 82.527 55.957 82.6082 56.1063C82.6893 56.2555 82.801 56.386 82.9355 56.4874C83.3262 56.6941 83.7622 56.7943 84.2019 56.7802C84.6416 56.7662 85.0704 56.6379 85.4477 56.4067C85.8249 56.1754 86.138 55.8502 86.3571 55.4605C86.5762 55.0707 86.6938 54.6295 86.6992 54.1801C86.6992 43.4146 86.6992 32.6678 86.6992 21.9215C86.7174 21.5501 86.7174 21.1778 86.6992 20.8064H21.833ZM29.0779 53.3728C32.4088 52.0464 34.9305 52.6046 36.7182 55.0268C38.5059 57.449 40.4819 57.3529 42.3637 55.0268C42.8845 54.2692 43.576 53.6495 44.3801 53.2227C45.1842 52.7958 46.0772 52.5731 46.9834 52.5731C47.8896 52.5731 48.7825 52.7958 49.5866 53.2227C50.3907 53.6495 51.0824 54.2692 51.6032 55.0268C53.3345 57.3721 55.3669 57.3914 57.2487 55.0268C57.7804 54.2726 58.4801 53.6576 59.2899 53.2339C60.0997 52.8102 60.9963 52.59 61.9061 52.59C62.8159 52.59 63.7128 52.8102 64.5226 53.2339C65.3324 53.6576 66.0321 54.2726 66.5638 55.0268C66.8256 55.5429 67.2211 55.9751 67.7073 56.2771C68.1935 56.5791 68.7516 56.7389 69.3206 56.7389C69.8896 56.7389 70.4477 56.5791 70.9339 56.2771C71.4201 55.9751 71.8156 55.5429 72.0774 55.0268C72.7815 54.0353 73.7711 53.2929 74.9079 52.9035C76.0448 52.5141 77.2722 52.4972 78.4191 52.8547L79.5482 53.2771C78.6566 47.1085 75.624 41.4728 71.0035 37.3984C66.383 33.324 60.4826 31.083 54.3789 31.083C48.2751 31.083 42.3747 33.324 37.7542 37.3984C33.1337 41.4728 30.1011 47.1085 29.2096 53.2771L29.0779 53.3728ZM31.5244 17.981H38.4305V14.2901H31.5244V17.981ZM48.0842 14.3088H41.1967V17.9997H48.0842V14.3088ZM57.7568 18.0392C57.7568 16.8857 57.7568 15.8665 57.7568 14.8476C57.7568 14.6362 57.4557 14.2713 57.3052 14.2713C55.1599 14.2713 53.0334 14.2713 50.8693 14.2713V18.1161L57.7568 18.0392ZM67.3352 18.0392V14.1943H60.4853V18.0392H67.3352ZM76.9326 18.0392V14.3088H70.1391V18.0392H76.9326Z" fill="#3D89EC" stroke="white" stroke-width="0.25" stroke-miterlimit="10"/>
<path d="M83.8571 66.9858C82.962 67.0183 82.0738 66.8155 81.2767 66.3982C80.4796 65.981 79.8001 65.3628 79.303 64.6016C79.0103 64.104 78.5967 63.6935 78.1021 63.4076C77.6075 63.1217 77.0486 62.9702 76.4803 62.9702C75.912 62.9702 75.3534 63.1217 74.8588 63.4076C74.3641 63.6935 73.9503 64.104 73.6576 64.6016C73.1538 65.3589 72.4763 65.9792 71.6841 66.4076C70.892 66.836 70.0095 67.0591 69.1132 67.0591C68.2169 67.0591 67.3341 66.836 66.542 66.4076C65.7499 65.9792 65.0723 65.3589 64.5685 64.6016C64.2625 64.1216 63.8442 63.7275 63.3513 63.4545C62.8583 63.1815 62.3065 63.0378 61.7458 63.0378C61.1851 63.0378 60.6332 63.1815 60.1403 63.4545C59.6474 63.7275 59.229 64.1216 58.9231 64.6016C58.4184 65.3668 57.7375 65.9949 56.9402 66.4283C56.1428 66.8617 55.2536 67.0872 54.3504 67.0872C53.4472 67.0872 52.5577 66.8617 51.7603 66.4283C50.963 65.9949 50.2821 65.3668 49.7775 64.6016C49.4779 64.113 49.0618 63.7112 48.568 63.432C48.0743 63.1528 47.5191 63.0058 46.9547 63.0058C46.3904 63.0058 45.8352 63.1528 45.3415 63.432C44.8477 63.7112 44.4316 64.113 44.132 64.6016C43.6117 65.363 42.9192 65.9857 42.1133 66.4151C41.3073 66.8445 40.4118 67.0684 39.5028 67.0684C38.5938 67.0684 37.6983 66.8445 36.8923 66.4151C36.0864 65.9857 35.3937 65.363 34.8734 64.6016C34.6134 64.0805 34.2174 63.6437 33.7292 63.3381C33.241 63.0326 32.6797 62.8707 32.1072 62.8707C31.5347 62.8707 30.9734 63.0326 30.4852 63.3381C29.997 63.6437 29.601 64.0805 29.341 64.6016C28.8758 65.3383 28.2552 65.9606 27.5248 66.4208C26.7944 66.8809 25.9727 67.1678 25.1195 67.2618C24.2663 67.3558 23.4032 67.2539 22.5936 66.9633C21.7839 66.6728 21.0482 66.2 20.44 65.5816C20.2067 65.337 20.01 65.059 19.8565 64.7555C19.6764 64.4671 19.6125 64.1186 19.6778 63.7831C19.7432 63.4476 19.9329 63.1512 20.2073 62.9552C20.4818 62.7591 20.8196 62.6792 21.1505 62.7318C21.4814 62.7843 21.7797 62.9649 21.983 63.2368C23.8648 65.1592 25.7466 65.0246 27.3838 62.7562C27.8988 61.9631 28.598 61.312 29.4188 60.8619C30.2397 60.4119 31.1567 60.1767 32.0883 60.1767C33.02 60.1767 33.9372 60.4119 34.7581 60.8619C35.5789 61.312 36.2779 61.9631 36.7929 62.7562C37.0676 63.2304 37.4584 63.6228 37.927 63.8957C38.3955 64.1687 38.9258 64.3125 39.4651 64.3125C40.0045 64.3125 40.5345 64.1687 41.0031 63.8957C41.4716 63.6228 41.8625 63.2304 42.1372 62.7562C42.6463 61.9343 43.3508 61.2578 44.1848 60.7887C45.0189 60.3196 45.9555 60.0734 46.9076 60.0734C47.8598 60.0734 48.7964 60.3196 49.6304 60.7887C50.4645 61.2578 51.169 61.9343 51.6781 62.7562C51.9501 63.2222 52.3359 63.609 52.7977 63.8769C53.2596 64.1449 53.7816 64.2843 54.3127 64.2843C54.8438 64.2843 55.3659 64.1449 55.8277 63.8769C56.2895 63.609 56.6753 63.2222 56.9473 62.7562C57.4526 61.9173 58.1597 61.2241 59.0014 60.7436C59.8431 60.2632 60.791 60.0115 61.7552 60.0115C62.7194 60.0115 63.6674 60.2632 64.509 60.7436C65.3507 61.2241 66.058 61.9173 66.5633 62.7562C66.8381 63.2009 67.2186 63.5686 67.6694 63.8225C68.1202 64.0764 68.6266 64.2092 69.1414 64.2092C69.6562 64.2092 70.1626 64.0764 70.6134 63.8225C71.0642 63.5686 71.4448 63.2009 71.7195 62.7562C72.2194 61.8956 72.9297 61.1825 73.781 60.6873C74.6322 60.1921 75.5949 59.9326 76.5745 59.9326C77.5541 59.9326 78.5168 60.1921 79.3681 60.6873C80.2193 61.1825 80.9296 61.8956 81.4295 62.7562C81.697 63.1748 82.0594 63.5226 82.4857 63.7681C82.9121 64.0135 83.3898 64.1491 83.8789 64.1661C84.368 64.183 84.8539 64.081 85.2956 63.8657C85.7372 63.6503 86.1217 63.328 86.4164 62.9289C87.1691 62.0446 87.903 61.872 88.5428 62.4295C89.1826 62.987 89.1638 63.7553 88.5428 64.6204C88.0062 65.3711 87.2998 65.979 86.4839 66.3907C85.668 66.8024 84.7669 67.0067 83.8571 66.9858Z" fill="#3D89EC" stroke="white" stroke-width="0.25" stroke-miterlimit="10"/>
<path d="M30.9604 26.0206C29.8501 26.0206 28.7587 26.0206 27.6484 26.0206C26.5381 26.0206 26.0112 25.4998 26.0112 24.6539C26.0112 23.808 26.5946 23.3083 27.6672 23.2891H34.2536C35.3262 23.2891 35.8908 23.8095 35.8908 24.6746C35.8908 25.5396 35.3262 26.0014 34.2348 26.0206C33.1433 26.0398 32.0707 26.0206 30.9604 26.0206Z" fill="#3D89EC" stroke="white" stroke-width="0.25" stroke-miterlimit="10"/>
<path d="M80.0945 31.2652C78.9278 31.2652 77.7611 31.2652 76.5944 31.2652C75.4277 31.2652 75.1265 30.7073 75.1453 29.9191C75.1444 29.7305 75.1823 29.5436 75.2565 29.3709C75.3308 29.1982 75.4399 29.0435 75.5765 28.9166C75.7132 28.7897 75.8744 28.6941 76.0497 28.635C76.2251 28.5759 76.4107 28.5542 76.5944 28.573C78.9467 28.573 81.2801 28.573 83.6324 28.573C83.9817 28.573 84.3168 28.7149 84.5638 28.9673C84.8109 29.2196 84.9495 29.5622 84.9495 29.9191C84.9495 30.276 84.8109 30.6185 84.5638 30.8709C84.3168 31.1233 83.9817 31.2652 83.6324 31.2652C82.4468 31.2844 81.2989 31.2652 80.0945 31.2652Z" fill="#3D89EC" stroke="white" stroke-width="0.25" stroke-miterlimit="10"/>
<path d="M77.7607 33.0361H79.6425C79.9649 33.0619 80.2668 33.2088 80.4906 33.4473C80.7144 33.6858 80.8445 33.9995 80.8561 34.3296C80.8677 34.6598 80.76 34.9821 80.5536 35.2364C80.3471 35.4907 80.0565 35.6582 79.7367 35.7076C78.4822 35.7076 77.1836 35.7076 75.8412 35.7076C75.5214 35.6683 75.2266 35.5107 75.0129 35.2646C74.7991 35.0184 74.6812 34.7019 74.6812 34.3728C74.6812 34.0437 74.7991 33.7254 75.0129 33.4792C75.2266 33.233 75.5214 33.0754 75.8412 33.0361H77.7607Z" fill="#3D89EC" stroke="white" stroke-width="0.25" stroke-miterlimit="10"/>
<path d="M26.9126 37.1082C27.5336 37.1082 28.1734 37.1082 28.7944 37.1082C29.1388 37.1082 29.4691 37.2481 29.7126 37.4968C29.9561 37.7456 30.093 38.0837 30.093 38.4355C30.093 38.7873 29.9561 39.1236 29.7126 39.3723C29.4691 39.6211 29.1388 39.7609 28.7944 39.7609C27.4594 39.8378 26.1212 39.8378 24.7861 39.7609C24.6158 39.7572 24.4484 39.7174 24.2946 39.6427C24.1407 39.5679 24.0042 39.4599 23.8939 39.3273C23.7837 39.1946 23.7021 39.0401 23.6548 38.8729C23.6075 38.7058 23.5954 38.5308 23.6194 38.3585C23.6189 38.186 23.6535 38.0136 23.7207 37.8554C23.788 37.6972 23.8867 37.556 24.0104 37.4386C24.1341 37.3213 24.2803 37.2308 24.4397 37.1739C24.5992 37.1171 24.7685 37.095 24.9368 37.1082C25.5578 37.1082 26.1977 37.1082 26.8187 37.1082H26.9126Z" fill="#3D89EC" stroke="white" stroke-width="0.25" stroke-miterlimit="10"/>
<path d="M59.0159 26.3066C58.4137 26.3066 57.8116 26.3066 57.1341 26.3066C56.9639 26.3148 56.7938 26.2868 56.6349 26.224C56.476 26.1612 56.3318 26.0655 56.2113 25.9424C56.0909 25.8193 55.9969 25.671 55.9355 25.5087C55.874 25.3464 55.8463 25.1738 55.8544 25C55.8326 24.8269 55.8477 24.6502 55.8987 24.4837C55.9497 24.3171 56.0354 24.1646 56.1498 24.035C56.2642 23.9054 56.4045 23.8018 56.5614 23.7327C56.7183 23.6637 56.888 23.6309 57.0588 23.6351C58.3572 23.6351 59.6744 23.6351 60.9729 23.6351C61.3172 23.6351 61.6475 23.775 61.891 24.0237C62.1345 24.2725 62.2714 24.6087 62.2714 24.9605C62.2714 25.3123 62.1345 25.6505 61.891 25.8992C61.6475 26.148 61.3172 26.2878 60.9729 26.2878C60.2954 26.2878 59.6369 26.2878 58.9594 26.2878L59.0159 26.3066Z" fill="#3D89EC" stroke="white" stroke-width="0.25" stroke-miterlimit="10"/>
<path d="M33.2749 30.4395C32.6539 30.4395 32.0141 30.4395 31.3931 30.4395C31.0487 30.4395 30.7184 30.2996 30.4749 30.0509C30.2314 29.8021 30.0947 29.464 30.0947 29.1122C30.0947 28.7604 30.2314 28.4242 30.4749 28.1754C30.7184 27.9266 31.0487 27.7868 31.3931 27.7868C32.6907 27.7195 33.9909 27.7195 35.2886 27.7868C35.6329 27.7868 35.963 27.9266 36.2065 28.1754C36.45 28.4242 36.5869 28.7604 36.5869 29.1122C36.5869 29.464 36.45 29.8021 36.2065 30.0509C35.963 30.2996 35.6329 30.4395 35.2886 30.4395C34.5546 30.4587 33.9147 30.4395 33.2749 30.4395Z" fill="#3D89EC" stroke="white" stroke-width="0.25" stroke-miterlimit="10"/>
</g>
<path d="M38.6754 77.9399C59.5237 77.9399 76.4247 60.6733 76.4247 39.3752C76.4247 18.0772 59.5237 0.8125 38.6754 0.8125C17.8271 0.8125 0.92627 18.0772 0.92627 39.3752C0.92627 60.6733 17.8271 77.9399 38.6754 77.9399Z" stroke="#3D89EC" stroke-width="1.01" stroke-miterlimit="10"/>
</svg>
