<svg width="94" height="97" viewBox="0 0 94 97" fill="none" xmlns="http://www.w3.org/2000/svg">
<path d="M46.9696 96.1998C72.607 96.1998 93.3901 74.9692 93.3901 48.7788C93.3901 22.5883 72.607 1.35547 46.9696 1.35547C21.3322 1.35547 0.548828 22.5883 0.548828 48.7788C0.548828 74.9692 21.3322 96.1998 46.9696 96.1998Z" stroke="#3D89EC" stroke-width="1.01" stroke-miterlimit="10"/>
<path fill-rule="evenodd" clip-rule="evenodd" d="M46.968 26.819C44.2561 26.8033 41.5679 27.3381 39.0594 28.3911C36.5509 29.4441 34.2718 30.9939 32.3541 32.9529C30.4365 34.9119 28.9183 37.2399 27.8875 39.8025C26.8568 42.3651 26.3341 45.1122 26.3494 47.8826C26.3494 58.237 33.8702 63.3426 37.9199 65.5411V59.0632C37.9199 58.5679 38.1123 58.0929 38.4552 57.7427C38.798 57.3924 39.2632 57.1955 39.7481 57.1955C40.2329 57.1955 40.6979 57.3924 41.0407 57.7427C41.3836 58.0929 41.576 58.5679 41.576 59.0632V70.2461C41.57 70.7395 41.3755 71.2108 41.034 71.5597C40.6924 71.9086 40.2311 72.1076 39.7481 72.1137H28.8022C28.3174 72.1137 27.8524 71.9168 27.5096 71.5666C27.1667 71.2164 26.9743 70.7414 26.9743 70.2461C26.9743 69.7508 27.1667 69.2758 27.5096 68.9256C27.8524 68.5753 28.3174 68.3784 28.8022 68.3784H35.4208C31.6802 66.4706 28.5237 63.5499 26.2958 59.9359C24.0678 56.3218 22.8537 52.1531 22.7856 47.8826C22.7856 41.2994 25.3457 34.9854 29.9025 30.3303C34.4592 25.6753 40.6394 23.0605 47.0836 23.0605C53.5278 23.0605 59.7082 25.6753 64.265 30.3303C68.8217 34.9854 71.3815 41.2994 71.3815 47.8826C71.4162 51.1461 70.8072 54.3833 69.5906 57.401C68.374 60.4188 66.5749 63.1545 64.3005 65.4465C62.0204 67.721 59.3335 69.5267 56.3863 70.7655C55.9469 70.9376 55.4592 70.9277 55.027 70.7378C54.5947 70.5479 54.2521 70.1939 54.0722 69.7497C53.9097 69.3005 53.9223 68.8045 54.1075 68.3646C54.2927 67.9246 54.6364 67.5743 55.0674 67.3857C57.5734 66.3331 59.8589 64.8001 61.8011 62.8701C63.7344 60.926 65.2622 58.6027 66.2923 56.0389C67.3224 53.4752 67.8336 50.7229 67.7948 47.9519C67.8199 45.1574 67.2971 42.3875 66.2576 39.8025C65.2181 37.2175 63.6826 34.8716 61.7418 32.9021C59.801 30.9326 57.4942 29.378 54.9569 28.3334C52.4196 27.2888 49.7033 26.7747 46.968 26.819ZM46.6904 34.5482C47.1752 34.5482 47.6402 34.7451 47.983 35.0953C48.3258 35.4455 48.5183 35.9205 48.5183 36.4158V46.8184L55.2755 53.7442C55.6162 54.0922 55.8075 54.5657 55.8075 55.0578C55.8075 55.5499 55.6162 56.0211 55.2755 56.3691C54.9349 56.717 54.4728 56.9116 53.9911 56.9116C53.5094 56.9116 53.0476 56.717 52.7069 56.3691L45.4175 48.9215C45.2479 48.7474 45.1136 48.5415 45.0223 48.3143C44.931 48.0872 44.8845 47.8443 44.8853 47.5987V36.4158C44.8853 35.9246 45.0746 35.4541 45.4124 35.1045C45.7503 34.755 46.2095 34.5544 46.6904 34.5482Z" fill="#3D89EC" stroke="white" stroke-width="0.25" stroke-miterlimit="10"/>
</svg>
