<svg width="46" height="46" viewBox="0 0 46 46" fill="none" xmlns="http://www.w3.org/2000/svg">
<path d="M22.7401 45.4179C34.7467 45.4179 44.48 35.4749 44.48 23.2092C44.48 10.9435 34.7467 1 22.7401 1C10.7334 1 1 10.9435 1 23.2092C1 35.4749 10.7334 45.4179 22.7401 45.4179Z" stroke="#3D89EC" stroke-width="1.1" stroke-miterlimit="10"/>
<path d="M33.3382 20.7781C32.7658 20.6633 32.2277 20.4127 31.7672 20.0469C31.3067 19.681 30.9365 19.2101 30.6866 18.6716C30.4367 18.1331 30.3138 17.542 30.328 16.9462C30.3422 16.3505 30.493 15.7662 30.7682 15.2408C30.8392 15.1318 30.877 15.004 30.877 14.8732C30.877 14.7423 30.8392 14.6145 30.7682 14.5055C30.3543 14.0009 29.903 13.5297 29.4182 13.0959C29.3186 13.0162 29.1983 12.9676 29.0722 12.9567C28.946 12.9458 28.8195 12.973 28.7082 13.0345C28.0057 13.3976 27.2089 13.5247 26.4315 13.3982C25.654 13.2716 24.9355 12.8978 24.3782 12.3297C23.8433 11.7727 23.4934 11.0579 23.3782 10.2866C22.8775 10.2183 22.3733 10.1804 21.8682 10.1738C21.4337 10.1753 20.9996 10.2027 20.5682 10.2556C20.448 10.8321 20.1993 11.3727 19.8413 11.8349C19.4833 12.2971 19.0257 12.6687 18.5042 12.9208C17.9826 13.1729 17.4112 13.2983 16.8343 13.2879C16.2574 13.2775 15.6907 13.1316 15.1782 12.8609C15.0686 12.7953 14.9421 12.765 14.8154 12.7741C14.6887 12.7833 14.5677 12.8312 14.4682 12.9118C13.9652 13.3388 13.497 13.807 13.0682 14.3115C12.9886 14.4105 12.9402 14.5315 12.9295 14.6592C12.9188 14.7868 12.9462 14.9149 13.0082 15.0263C13.2634 15.554 13.3959 16.1351 13.3952 16.7238C13.3944 17.3124 13.2606 17.8927 13.004 18.4197C12.7475 18.9468 12.3753 19.4062 11.9163 19.762C11.4574 20.1179 10.9242 20.3607 10.3582 20.4714C10.2861 20.996 10.2493 21.5253 10.2482 22.0551C10.246 22.4852 10.2694 22.9148 10.3182 23.342C10.8841 23.4637 11.4147 23.7177 11.8682 24.0843C12.3218 24.4508 12.6859 24.9199 12.932 25.4545C13.1782 25.9891 13.2996 26.5748 13.2868 27.1654C13.274 27.7561 13.1273 28.3355 12.8582 28.8584C12.7855 28.9648 12.7465 29.0913 12.7465 29.2211C12.7465 29.3508 12.7855 29.4774 12.8582 29.5837C13.2692 30.0973 13.7207 30.576 14.2082 31.0143C14.3067 31.0965 14.4272 31.146 14.5539 31.157C14.6806 31.1679 14.8077 31.1393 14.9182 31.0752C15.4384 30.8105 16.0117 30.6731 16.5929 30.6736C17.174 30.6741 17.7471 30.8127 18.2669 31.0781C18.7866 31.3436 19.2389 31.7288 19.588 32.2035C19.937 32.6781 20.1733 33.2292 20.2782 33.8131C20.7915 33.8903 21.3094 33.9314 21.8282 33.9359C22.2482 33.9359 22.6682 33.9355 23.0782 33.864C23.2488 33.0004 23.7064 32.2238 24.3734 31.6653C25.0404 31.1068 25.8758 30.8007 26.7382 30.7993C27.3561 30.8025 27.9638 30.9605 28.5082 31.2592C28.6138 31.3344 28.7395 31.3744 28.8682 31.3744C28.997 31.3744 29.1226 31.3344 29.2282 31.2592C29.7267 30.8453 30.1885 30.3874 30.6082 29.8905C30.6875 29.7893 30.7355 29.666 30.7462 29.5368C30.7569 29.4077 30.7297 29.2786 30.6682 29.1652C30.401 28.6328 30.2599 28.0435 30.2562 27.4453C30.2526 26.847 30.3866 26.2561 30.6473 25.7204C30.908 25.1847 31.2883 24.7192 31.7574 24.3611C32.2265 24.003 32.7714 23.7624 33.3482 23.6588C33.4154 23.1473 33.4521 22.6319 33.4582 22.1159C33.444 21.6678 33.4039 21.2214 33.3382 20.7781ZM21.7882 27.9291C20.6589 27.9291 19.5549 27.5869 18.6159 26.946C17.6769 26.305 16.945 25.3941 16.5128 24.3282C16.0807 23.2623 15.9676 22.0892 16.1879 20.9577C16.4083 19.8262 16.9521 18.7871 17.7506 17.9713C18.5492 17.1555 19.5666 16.5997 20.6743 16.3746C21.7819 16.1495 22.93 16.2653 23.9733 16.7068C25.0167 17.1483 25.9085 17.8959 26.5359 18.8552C27.1633 19.8145 27.4982 20.9423 27.4982 22.096C27.4982 22.8629 27.3502 23.6218 27.0626 24.3302C26.7751 25.0386 26.3536 25.6824 25.8223 26.2242C25.291 26.766 24.6603 27.1951 23.9664 27.4877C23.2725 27.7802 22.5289 27.9305 21.7782 27.9291H21.7882Z" stroke="#3D89EC" stroke-width="0.99" stroke-linecap="round" stroke-linejoin="round"/>
<path d="M31.3894 25.4463C30.3466 25.4443 29.3268 25.7583 28.4588 26.3487C27.5909 26.939 26.9138 27.7789 26.5134 28.7624C26.113 29.746 26.0072 30.829 26.2094 31.874C26.4116 32.919 26.9127 33.879 27.6494 34.633C28.386 35.3869 29.325 35.9009 30.3476 36.1095C31.3701 36.318 32.4303 36.2119 33.3938 35.8047C34.3574 35.3975 35.181 34.7075 35.7605 33.8219C36.34 32.9363 36.6494 31.8952 36.6494 30.83C36.6507 30.1235 36.5156 29.4235 36.2519 28.7704C35.9881 28.1173 35.6009 27.5236 35.1123 27.0236C34.6238 26.5235 34.0434 26.127 33.4046 25.8563C32.7658 25.5856 32.081 25.4463 31.3894 25.4463ZM31.3894 27.7753V31.3917H34.3894" fill="white"/>
<path d="M31.3894 27.7753V31.3917H34.3894M31.3894 25.4463C30.3466 25.4443 29.3268 25.7583 28.4588 26.3487C27.5909 26.939 26.9138 27.7789 26.5134 28.7624C26.113 29.746 26.0072 30.829 26.2094 31.874C26.4116 32.919 26.9127 33.879 27.6494 34.633C28.386 35.3869 29.325 35.9009 30.3476 36.1095C31.3701 36.318 32.4303 36.2119 33.3938 35.8047C34.3574 35.3975 35.181 34.7075 35.7605 33.8219C36.34 32.9363 36.6494 31.8952 36.6494 30.83C36.6507 30.1235 36.5156 29.4235 36.2519 28.7704C35.9881 28.1173 35.6009 27.5236 35.1123 27.0236C34.6238 26.5235 34.0434 26.127 33.4046 25.8563C32.7658 25.5856 32.081 25.4463 31.3894 25.4463Z" stroke="#3D89EC" stroke-width="0.99" stroke-linecap="round" stroke-linejoin="round"/>
</svg>
