<svg width="59" height="59" viewBox="0 0 59 59" fill="none" xmlns="http://www.w3.org/2000/svg">
<path d="M46.1959 28.1378C44.9779 27.8839 43.8832 27.2081 43.0971 26.2243C42.311 25.2405 41.8817 24.0093 41.882 22.7394C41.8714 21.8395 42.0867 20.9521 42.5075 20.1614C42.607 19.9997 42.6599 19.8123 42.6599 19.6213C42.6599 19.4303 42.607 19.2434 42.5075 19.0817C41.9102 18.3579 41.2614 17.68 40.5662 17.0541C40.4122 16.9517 40.2324 16.8976 40.0486 16.8976C39.8648 16.8976 39.6849 16.9517 39.5308 17.0541C38.7853 17.4423 37.9613 17.6471 37.1246 17.6523C36.2879 17.6576 35.4616 17.4631 34.7116 17.0843C33.9615 16.7054 33.3084 16.1527 32.8045 15.4704C32.3005 14.788 31.9596 13.9947 31.8089 13.1539C31.0936 13.058 30.3733 13.0069 29.6519 13C29.025 13.0038 28.3986 13.0407 27.7754 13.1103C27.5275 14.3509 26.8688 15.466 25.9103 16.2687C24.9517 17.0714 23.7518 17.5125 22.5123 17.5173C21.6468 17.5151 20.7949 17.2955 20.0318 16.8782C19.8799 16.7702 19.6992 16.712 19.5141 16.712C19.329 16.712 19.1484 16.7702 18.9965 16.8782C18.2635 17.4836 17.585 18.1545 16.9689 18.8832C16.8731 19.0382 16.8221 19.218 16.8221 19.4013C16.8221 19.5846 16.8731 19.7638 16.9689 19.9188C17.3357 20.6777 17.5264 21.5126 17.5262 22.359C17.526 23.2054 17.3349 24.0405 16.9677 24.7992C16.6005 25.5579 16.0671 26.2202 15.409 26.7343C14.7508 27.2484 13.9856 27.6004 13.1726 27.7634C13.0636 28.4928 13.0059 29.2292 13 29.9669C13.003 30.5928 13.039 31.2182 13.1078 31.8401C13.9217 32.0147 14.6849 32.3797 15.3371 32.9069C15.9893 33.4341 16.5127 34.1089 16.8661 34.878C17.2195 35.6471 17.3932 36.4893 17.3736 37.3387C17.354 38.188 17.1416 39.0212 16.7531 39.7724C16.6529 39.9298 16.5995 40.1135 16.5995 40.3013C16.5995 40.489 16.6529 40.6727 16.7531 40.8301C17.3501 41.5609 17.999 42.2462 18.6945 42.8797C18.8464 42.9878 19.027 43.0454 19.2121 43.0454C19.3972 43.0454 19.5779 42.9878 19.7298 42.8797C20.4789 42.4963 21.3053 42.2964 22.1432 42.296C22.9811 42.2957 23.8076 42.4948 24.557 42.8776C25.3065 43.2604 25.9584 43.8161 26.4608 44.5012C26.9633 45.1862 27.3026 45.9812 27.4518 46.8236C28.1657 46.9349 28.8866 46.994 29.6088 47C30.2142 46.9969 30.8191 46.96 31.4207 46.8897C31.6655 45.6435 32.3262 44.5227 33.29 43.719C34.2538 42.9152 35.461 42.4783 36.7052 42.4827C37.5937 42.4872 38.4676 42.7143 39.2504 43.1439C39.4011 43.255 39.5823 43.3149 39.7682 43.3149C39.954 43.3149 40.1351 43.255 40.2858 43.1439C40.9992 42.5473 41.6629 41.8915 42.2702 41.183C42.3705 41.0256 42.4239 40.8419 42.4239 40.6542C42.4239 40.4664 42.3705 40.2827 42.2702 40.1253C41.752 39.0917 41.5668 37.9166 41.7411 36.769C41.9154 35.6213 42.4404 34.5595 43.2409 33.7348C44.024 32.9304 45.0353 32.3985 46.1312 32.2146C46.2234 31.4837 46.2739 30.7479 46.2822 30.011C46.2863 29.3856 46.2575 28.7601 46.1959 28.1378ZM29.544 38.4286C27.9143 38.4286 26.3213 37.9349 24.9663 37.01C23.6113 36.0851 22.5553 34.7705 21.9316 33.2324C21.308 31.6943 21.1448 30.0014 21.4627 28.3686C21.7806 26.7358 22.5654 25.2362 23.7178 24.059C24.8701 22.8818 26.3382 22.0802 27.9365 21.7554C29.5349 21.4306 31.1916 21.5971 32.6972 22.2342C34.2028 22.8713 35.4897 23.9503 36.3951 25.3345C37.3005 26.7187 37.7837 28.3462 37.7837 30.011C37.7837 31.1164 37.5706 32.2111 37.1565 33.2324C36.7424 34.2536 36.1355 35.1815 35.3704 35.9631C34.6052 36.7447 33.6969 37.3649 32.6972 37.7879C31.6975 38.2109 30.626 38.4286 29.544 38.4286Z" stroke="white" stroke-width="0.7" stroke-linecap="round" stroke-linejoin="round"/>
<circle cx="29.5" cy="29.5" r="29" stroke="#0296EA"/>
</svg>
