<svg width="59" height="59" viewBox="0 0 59 59" fill="none" xmlns="http://www.w3.org/2000/svg">
<path d="M46.0905 13H13.9095C13.4072 13 13 13.4158 13 13.929V15.5218C13 16.035 13.4072 16.4514 13.9095 16.4514H46.0905C46.5928 16.4514 47 16.035 47 15.5218V13.929C47 13.4158 46.5928 13 46.0905 13Z" stroke="white" stroke-width="0.49" stroke-miterlimit="10"/>
<path d="M46.3087 27.7786H42.1508C41.9594 27.7786 41.8042 27.9374 41.8042 28.1329V30.8761C41.8042 31.0716 41.9594 31.2299 42.1508 31.2299H46.3087C46.5001 31.2299 46.6553 31.0716 46.6553 30.8761V28.1329C46.6553 27.9374 46.5001 27.7786 46.3087 27.7786Z" stroke="white" stroke-width="0.49" stroke-miterlimit="10"/>
<path d="M31.6694 42.048H16.6184C16.2715 42.048 15.9904 42.3353 15.9904 42.6896V44.8577C15.9904 45.212 16.2715 45.4993 16.6184 45.4993H31.6694C32.0162 45.4993 32.2975 45.212 32.2975 44.8577V42.6896C32.2975 42.3353 32.0162 42.048 31.6694 42.048Z" stroke="white" stroke-width="0.49" stroke-miterlimit="10"/>
<path d="M19.9325 16.075V42.6007" stroke="white" stroke-width="0.49" stroke-miterlimit="10"/>
<path d="M28.6372 16.075V42.6007" stroke="white" stroke-width="0.49" stroke-miterlimit="10"/>
<path d="M27.8169 16.4514L19.9557 18.9733L28.4232 22.0487L19.9557 24.8578L28.4015 27.7561L19.869 30.6101L28.6398 33.6191L19.9557 36.3845L28.3149 39.2822L21.0385 42.0476" stroke="white" stroke-width="0.49" stroke-linecap="round" stroke-linejoin="round"/>
<path d="M44.2321 16.4514V27.7782" stroke="white" stroke-width="0.49" stroke-miterlimit="10"/>
<path d="M46.44 35.6322C46.44 36.0698 46.313 36.4977 46.075 36.8616C45.8371 37.2254 45.4988 37.5086 45.1031 37.676C44.7074 37.8435 44.272 37.8873 43.8519 37.8019C43.4318 37.7165 43.0459 37.5058 42.7431 37.1964C42.4402 36.887 42.2339 36.4929 42.1504 36.0638C42.0668 35.6346 42.1097 35.1901 42.2736 34.7859C42.4375 34.3816 42.7151 34.0357 43.0713 33.7926C43.4274 33.5495 43.846 33.4199 44.2744 33.4199V31.5171" stroke="white" stroke-width="0.49" stroke-linecap="round" stroke-linejoin="round"/>
<circle cx="29.5" cy="29.5" r="29" stroke="#0296EA"/>
</svg>
