<svg width="39" height="30" viewBox="0 0 39 30" fill="none" xmlns="http://www.w3.org/2000/svg">
<path d="M38.3945 0.851159C38.1341 0.581379 37.8248 0.367257 37.4841 0.2212C37.1434 0.0751441 36.7781 0 36.4092 0C36.0403 0 35.675 0.0751441 35.3343 0.2212C34.9936 0.367257 34.6841 0.581379 34.4237 0.851159L13.8024 22.1411C13.6845 22.264 13.5442 22.3613 13.3895 22.4279C13.2349 22.4945 13.0691 22.5288 12.9016 22.5288C12.734 22.5288 12.568 22.4945 12.4134 22.4279C12.2587 22.3613 12.1185 22.264 12.0006 22.1411L4.79318 14.7002C4.26662 14.1565 3.55235 13.8507 2.80768 13.8507C2.06301 13.8507 1.34894 14.1565 0.822386 14.7002C0.295827 15.2438 0 15.981 0 16.7498C0 17.5187 0.295827 18.2559 0.822386 18.7995L10.8328 29.1345C11.0909 29.4085 11.3995 29.6259 11.7405 29.7746C12.0815 29.9233 12.4479 30 12.8181 30C13.1882 30 13.5546 29.9233 13.8956 29.7746C14.2366 29.6259 14.5455 29.4085 14.8036 29.1345L38.1611 4.84707C38.4252 4.58343 38.6351 4.26773 38.7784 3.91853C38.9217 3.56932 38.9955 3.19347 38.9953 2.81421C39.0351 2.10577 38.8211 1.40754 38.3945 0.851159Z" fill="#3D89EC"/>
</svg>
