<svg width="59" height="59" viewBox="0 0 59 59" fill="none" xmlns="http://www.w3.org/2000/svg">
<path d="M42.1463 38.1039H38.7355L38.6332 37.7032C38.4852 36.9059 38.0695 36.1864 37.4577 35.6688C36.8459 35.1512 36.0765 34.8679 35.2822 34.8679C34.4878 34.8679 33.7183 35.1512 33.1065 35.6688C32.4947 36.1864 32.079 36.9059 31.931 37.7032L31.8116 38.0864H16.8043C16.7139 38.0711 16.6213 38.076 16.533 38.1009C16.4447 38.1258 16.3628 38.1701 16.2929 38.2306C16.223 38.2911 16.1668 38.3664 16.1283 38.4514C16.0898 38.5363 16.0699 38.6287 16.0699 38.7223C16.0699 38.8159 16.0898 38.9083 16.1283 38.9932C16.1668 39.0781 16.223 39.1535 16.2929 39.214C16.3628 39.2745 16.4447 39.3188 16.533 39.3437C16.6213 39.3686 16.7139 39.3735 16.8043 39.3582H31.8116L31.931 39.7414C32.1341 40.4983 32.5815 41.1629 33.2005 41.6278C33.8195 42.0926 34.574 42.3303 35.3418 42.3023C36.1062 42.3152 36.8537 42.0716 37.4697 41.609C38.0857 41.1465 38.5364 40.4905 38.7526 39.7414L38.8549 39.3582H42.2657C42.356 39.3735 42.4486 39.3686 42.5369 39.3437C42.6252 39.3188 42.7072 39.2745 42.777 39.214C42.8469 39.1535 42.9031 39.0781 42.9416 38.9932C42.9801 38.9083 43 38.8159 43 38.7223C43 38.6287 42.9801 38.5363 42.9416 38.4514C42.9031 38.3664 42.8469 38.2911 42.777 38.2306C42.7072 38.1701 42.6252 38.1258 42.5369 38.1009C42.4486 38.076 42.356 38.0711 42.2657 38.0864L42.1463 38.1039ZM35.2053 41.048C34.7567 41.048 34.3182 40.9122 33.9452 40.6576C33.5723 40.403 33.2815 40.041 33.1098 39.6176C32.9382 39.1942 32.8932 38.7286 32.9808 38.2791C33.0683 37.8296 33.2843 37.4165 33.6015 37.0924C33.9188 36.7684 34.3229 36.5481 34.7629 36.4587C35.2028 36.3693 35.6589 36.4151 36.0733 36.5905C36.4878 36.7659 36.8421 37.0627 37.0913 37.4437C37.3405 37.8248 37.4735 38.2729 37.4735 38.7312C37.4735 39.3458 37.2346 39.9351 36.8092 40.3696C36.3839 40.8042 35.8069 41.048 35.2053 41.048Z" fill="white"/>
<path d="M16.7344 20.4903H31.7418L31.8612 20.8739C32.0092 21.6712 32.4249 22.3907 33.0367 22.9083C33.6484 23.4259 34.4178 23.7092 35.2122 23.7092C36.0066 23.7092 36.7761 23.4259 37.3879 22.9083C37.9997 22.3907 38.4154 21.6712 38.5633 20.8739L38.6657 20.4903H42.0764C42.1668 20.5056 42.2594 20.5007 42.3477 20.4758C42.436 20.4509 42.5179 20.4066 42.5878 20.3461C42.6577 20.2856 42.7138 20.2103 42.7523 20.1253C42.7908 20.0404 42.8108 19.948 42.8108 19.8544C42.8108 19.7608 42.7908 19.6684 42.7523 19.5835C42.7138 19.4985 42.6577 19.4232 42.5878 19.3627C42.5179 19.3022 42.436 19.2579 42.3477 19.233C42.2594 19.2081 42.1668 19.2032 42.0764 19.2185H38.6657L38.5633 18.8353C38.4154 18.038 37.9997 17.3185 37.3879 16.8009C36.7761 16.2833 36.0066 16 35.2122 16C34.4178 16 33.6484 16.2833 33.0367 16.8009C32.4249 17.3185 32.0092 18.038 31.8612 18.8353L31.7418 19.2185H16.7344C16.6441 19.2032 16.5515 19.2081 16.4632 19.233C16.3749 19.2579 16.2929 19.3022 16.2231 19.3627C16.1532 19.4232 16.097 19.4985 16.0585 19.5835C16.02 19.6684 16 19.7608 16 19.8544C16 19.948 16.02 20.0404 16.0585 20.1253C16.097 20.2103 16.1532 20.2856 16.2231 20.3461C16.2929 20.4066 16.3749 20.4509 16.4632 20.4758C16.5515 20.5007 16.6441 20.5056 16.7344 20.4903ZM35.2037 17.5461C35.6537 17.5427 36.0946 17.6761 36.4702 17.9293C36.8458 18.1826 37.1391 18.5443 37.3129 18.9684C37.4867 19.3925 37.533 19.8597 37.4461 20.3108C37.3591 20.7619 37.1428 21.1766 36.8245 21.5017C36.5063 21.8268 36.1006 22.0479 35.6591 22.1367C35.2175 22.2256 34.76 22.1782 34.3448 22.0006C33.9297 21.8231 33.5756 21.5235 33.3277 21.1398C33.0798 20.7561 32.9492 20.3056 32.9526 19.8459C32.957 19.2374 33.1957 18.6552 33.6169 18.2249C34.0381 17.7947 34.608 17.5507 35.2037 17.5461Z" fill="white"/>
<path d="M42.1467 28.6613H27.1223L27.0029 28.2781C26.8464 27.4904 26.4281 26.7821 25.8189 26.2735C25.2097 25.7648 24.4472 25.487 23.6604 25.487C22.8737 25.487 22.111 25.7648 21.5018 26.2735C20.8927 26.7821 20.4744 27.4904 20.3178 28.2781L20.1985 28.6613H16.7877C16.6973 28.646 16.6047 28.6509 16.5164 28.6758C16.4281 28.7007 16.3462 28.745 16.2763 28.8055C16.2064 28.866 16.1502 28.9413 16.1117 29.0263C16.0732 29.1112 16.0533 29.2036 16.0533 29.2972C16.0533 29.3908 16.0732 29.4832 16.1117 29.5681C16.1502 29.6531 16.2064 29.7284 16.2763 29.7889C16.3462 29.8494 16.4281 29.8937 16.5164 29.9186C16.6047 29.9435 16.6973 29.9484 16.7877 29.9331H20.1985L20.3178 30.3163C20.4744 31.104 20.8927 31.8118 21.5018 32.3205C22.111 32.8291 22.8737 33.1073 23.6604 33.1073C24.4472 33.1073 25.2097 32.8291 25.8189 32.3205C26.4281 31.8118 26.8464 31.104 27.0029 30.3163L27.1223 29.9331H42.1467C42.2371 29.9484 42.3297 29.9435 42.418 29.9186C42.5063 29.8937 42.5882 29.8494 42.6581 29.7889C42.728 29.7284 42.7842 29.6531 42.8227 29.5681C42.8612 29.4832 42.8811 29.3908 42.8811 29.2972C42.8811 29.2036 42.8612 29.1112 42.8227 29.0263C42.7842 28.9413 42.728 28.866 42.6581 28.8055C42.5882 28.745 42.5063 28.7007 42.418 28.6758C42.3297 28.6509 42.2371 28.646 42.1467 28.6613ZM23.6604 31.6055C23.2118 31.6055 22.7732 31.4696 22.4002 31.215C22.0272 30.9604 21.7366 30.5985 21.5649 30.1751C21.3933 29.7517 21.3483 29.2856 21.4359 28.8361C21.5234 28.3867 21.7393 27.9739 22.0565 27.6499C22.3737 27.3258 22.7779 27.1051 23.2179 27.0157C23.6578 26.9263 24.114 26.9722 24.5284 27.1476C24.9429 27.3229 25.2971 27.6202 25.5463 28.0012C25.7955 28.3822 25.9285 28.83 25.9285 29.2883C25.9285 29.9028 25.6896 30.4921 25.2642 30.9267C24.8389 31.3612 24.262 31.6055 23.6604 31.6055Z" fill="white"/>
<circle cx="29.5" cy="29.5" r="29" stroke="#0296EA"/>
</svg>
