<svg width="57" height="51" viewBox="0 0 57 51" fill="none" xmlns="http://www.w3.org/2000/svg">
<path d="M42.1524 36.3453C44.094 36.3453 45.9635 36.3453 47.8333 36.3453C48.5396 36.2951 49.2023 35.9771 49.6912 35.4539C50.1801 34.9307 50.4597 34.24 50.476 33.5169C50.476 30.3028 50.476 27.0705 50.476 23.8932C49.9493 23.695 49.4387 23.4557 48.9481 23.1771C48.3911 22.8129 47.934 22.3097 47.6195 21.7154C47.305 21.1211 47.1435 20.4549 47.1503 19.7793C47.1503 18.6406 47.1503 17.5017 47.1503 16.363C47.1298 16.1569 47.1549 15.9489 47.224 15.7541C47.2932 15.5593 47.4046 15.3828 47.5497 15.2381C47.6949 15.0933 47.8701 14.9839 48.0624 14.9179C48.2547 14.8519 48.4594 14.8314 48.6606 14.8574H50.3504H50.5479V13.0208C50.5479 12.6603 50.6882 12.3143 50.9377 12.0595C51.1872 11.8046 51.5255 11.6617 51.8783 11.6617C52.2311 11.6617 52.5698 11.8046 52.8193 12.0595C53.0688 12.3143 53.2086 12.6603 53.2086 13.0208C53.2086 13.5534 53.2086 14.1042 53.2086 14.6368C53.2028 14.704 53.2028 14.7718 53.2086 14.839H55.0064C55.2073 14.8149 55.4112 14.8379 55.6021 14.9062C55.7929 14.9746 55.9656 15.0866 56.1077 15.2336C56.2498 15.3805 56.3573 15.5588 56.422 15.7546C56.4866 15.9503 56.5067 16.1582 56.4808 16.363C56.4808 17.263 56.4808 18.1996 56.4808 19.0811C56.6176 20.1655 56.3412 21.2621 55.7087 22.1441C55.0763 23.026 54.1364 23.626 53.0831 23.8197V33.0026C53.1134 33.8116 52.9795 34.6185 52.6903 35.3723C52.4011 36.1261 51.9625 36.8103 51.4021 37.3828C50.8417 37.9553 50.1718 38.4034 49.434 38.6988C48.6961 38.9943 47.9063 39.1311 47.1143 39.1001H42.1524C42.1524 39.7246 42.1524 40.3123 42.1524 40.9367C42.1512 42.1398 42.0308 43.3396 41.7929 44.518C41.344 46.1316 40.384 47.5479 39.0633 48.5449C37.7426 49.5418 36.1355 50.0632 34.4937 50.0277C25.7684 50.0277 17.049 50.0277 8.33571 50.0277C7.32022 50.0304 6.31451 49.8254 5.37786 49.4246C4.4412 49.0239 3.59266 48.4355 2.88218 47.6943C2.17171 46.9531 1.61361 46.074 1.24108 45.1089C0.868544 44.1439 0.689054 43.1123 0.713064 42.0752V8.28227C0.69129 7.23565 0.876128 6.19523 1.256 5.22295C1.63588 4.25067 2.20307 3.36644 2.92432 2.62278C3.64557 1.87911 4.50604 1.29131 5.45423 0.894256C6.40242 0.497201 7.419 0.298805 8.44368 0.311358H34.4218C35.4471 0.296239 36.465 0.492725 37.4143 0.888876C38.3636 1.28503 39.2251 1.87276 39.9468 2.61695C40.6686 3.36113 41.2357 4.24638 41.6147 5.21981C41.9937 6.19325 42.1767 7.23497 42.1524 8.28227C42.1524 17.3733 42.1524 26.4646 42.1524 35.574V36.3453ZM3.37377 15.1878V41.8734C3.31067 42.6132 3.40682 43.3579 3.65555 44.0557C3.90428 44.7534 4.29986 45.3873 4.81385 45.9124C5.32784 46.4375 5.94795 46.8412 6.63096 47.0953C7.31397 47.3494 8.04301 47.4476 8.76716 47.3831H34.2422C34.9664 47.4476 35.6954 47.3494 36.3784 47.0953C37.0615 46.8412 37.6816 46.4375 38.1956 45.9124C38.7095 45.3873 39.1051 44.7534 39.3539 44.0557C39.6026 43.3579 39.6987 42.6132 39.6356 41.8734V15.1878H3.37377ZM39.3297 12.3962C39.3297 10.6514 39.4196 8.92495 39.3297 7.2353C39.2189 6.46879 38.9223 5.74292 38.4668 5.12341C37.9862 4.42196 37.3366 3.85904 36.5808 3.48905C35.8249 3.11907 34.9886 2.95426 34.1523 3.01108H8.64163H7.81428C6.79461 3.087 5.82667 3.49864 5.05525 4.18405C4.28384 4.86946 3.75071 5.79185 3.53573 6.81292C3.33725 8.64227 3.24738 10.4822 3.26623 12.3227L39.3297 12.3962ZM49.685 17.5571C49.685 18.3468 49.685 19.0446 49.685 19.7425C49.6945 20.1144 49.847 20.4675 50.1095 20.7254C50.3719 20.9832 50.7233 21.1249 51.0874 21.1199C52.7593 21.2485 53.5683 20.9729 53.7121 20.0362C53.7752 19.211 53.7752 18.3823 53.7121 17.5571H49.685Z" fill="#3D89EC"/>
<path d="M20.0392 29.2175H24.7497C24.9834 29.2175 25.2169 29.2175 25.4506 29.2175C25.6937 29.2082 25.9346 29.2671 26.1472 29.3879C26.3597 29.5086 26.5358 29.6868 26.6563 29.9026C26.7768 30.1185 26.8371 30.364 26.8306 30.6124C26.824 30.8608 26.7511 31.1025 26.6194 31.3115C24.7977 34.6418 22.9698 37.9536 21.1361 41.2472C21.0598 41.4195 20.9488 41.5739 20.8108 41.7001C20.6728 41.8262 20.5108 41.9214 20.3346 41.9798C20.1585 42.0382 19.9724 42.0583 19.7882 42.039C19.604 42.0197 19.4254 41.9615 19.2645 41.8677C19.1037 41.774 18.9638 41.6468 18.8537 41.4947C18.7437 41.3426 18.666 41.1686 18.6255 40.984C18.585 40.7994 18.5829 40.6086 18.6189 40.4231C18.6549 40.2375 18.7285 40.0614 18.8348 39.9065C20.1472 37.5006 21.4775 35.1132 22.7899 32.7257L23.2034 31.9724H22.5204C20.9384 31.9724 19.356 31.9724 17.774 31.9724C17.4821 32.0191 17.1832 31.9719 16.919 31.837C16.6547 31.702 16.4387 31.4861 16.3001 31.2195C16.1827 30.9557 16.1423 30.6628 16.1838 30.3761C16.2253 30.0895 16.3466 29.8214 16.5336 29.6036L22.2145 21.2286C22.3522 20.9719 22.5648 20.7651 22.8224 20.6368C23.08 20.5085 23.37 20.4647 23.6528 20.5121C23.9209 20.529 24.174 20.6444 24.3656 20.8368C24.5572 21.0291 24.6745 21.2855 24.6957 21.5591C24.7127 22.0158 24.5868 22.4661 24.3362 22.8446C23.1317 24.6812 21.8551 26.5178 20.6146 28.3544L20.0392 29.2175Z" fill="#3D89EC"/>
<path d="M17.5234 9.07086C16.3368 9.07086 15.7256 8.61175 15.7256 7.73019C15.7256 6.84864 16.3908 6.35278 17.5234 6.37114C17.7327 6.35236 17.943 6.35236 18.1523 6.37114C18.4729 6.42349 18.7632 6.59545 18.967 6.8536C19.1707 7.11176 19.2737 7.43764 19.2558 7.76876C19.2379 8.09987 19.1007 8.41255 18.8704 8.64624C18.6401 8.87993 18.3331 9.0181 18.0088 9.03409C17.8478 9.05491 17.6857 9.06721 17.5234 9.07086Z" fill="#3D89EC"/>
<path d="M9.50448 9.0885C9.27111 9.10679 9.03647 9.10679 8.8031 9.0885C8.51011 9.05007 8.23988 8.90746 8.03938 8.68585C7.83889 8.46425 7.72116 8.17792 7.70669 7.87652C7.66606 7.5744 7.7351 7.26757 7.90069 7.01383C8.06628 6.76009 8.31697 6.57697 8.60559 6.49909C9.10648 6.42674 9.61456 6.42674 10.1155 6.49909C10.2842 6.51052 10.4491 6.55658 10.6 6.6345C10.7509 6.71242 10.8847 6.82041 10.9937 6.9524C11.1028 7.0844 11.1848 7.23753 11.2347 7.40258C11.2846 7.56763 11.3016 7.74146 11.2843 7.91329C11.2704 8.24949 11.1298 8.56699 10.8919 8.79974C10.654 9.03249 10.3373 9.16234 10.0079 9.16204C9.84025 9.17124 9.67216 9.17124 9.50448 9.16204V9.0885Z" fill="#3D89EC"/>
</svg>
