<svg width="78" height="79" viewBox="0 0 78 79" fill="none" xmlns="http://www.w3.org/2000/svg">
<path d="M38.8842 78.4017C59.8068 78.4017 76.7678 61.0748 76.7678 39.7008C76.7678 18.3268 59.8068 1 38.8842 1C17.9615 1 1 18.3268 1 39.7008C1 61.0748 17.9615 78.4017 38.8842 78.4017Z" stroke="#3D89EC" stroke-width="0.81" stroke-miterlimit="10"/>
<path fill-rule="evenodd" clip-rule="evenodd" d="M38.8816 37.5926C38.4179 37.5926 37.9644 37.7335 37.5789 37.9966C37.1934 38.2598 36.8927 38.6337 36.7153 39.0713C36.5378 39.5089 36.4915 39.9907 36.5819 40.4552C36.6724 40.9198 36.8956 41.3464 37.2235 41.6813C37.5514 42.0162 37.9695 42.2443 38.4243 42.3367C38.879 42.4291 39.3501 42.3818 39.7784 42.2005C40.2068 42.0192 40.5728 41.7121 40.8304 41.3182C41.088 40.9244 41.2259 40.4611 41.2259 39.9875C41.2259 39.3523 40.9787 38.7434 40.5391 38.2942C40.0994 37.8451 39.5033 37.5926 38.8816 37.5926ZM33.7471 39.9875C33.7425 38.9434 34.0419 37.9219 34.6068 37.0518C35.1717 36.1817 35.9768 35.5024 36.9202 35.1007C37.8635 34.6989 38.9029 34.593 39.9055 34.7955C40.9081 34.998 41.8287 35.5002 42.5514 36.2385C43.2741 36.9768 43.7662 37.9178 43.9645 38.9421C44.1627 39.9663 44.0584 41.0275 43.6652 41.9912C43.2719 42.9549 42.607 43.7774 41.7553 44.3545C40.9036 44.9316 39.9036 45.2374 38.8816 45.2327C37.5218 45.2264 36.2196 44.6713 35.2581 43.6891C34.2966 42.7069 33.7533 41.3765 33.7471 39.9875Z" fill="#3D89EC" stroke="white" stroke-width="0.19" stroke-miterlimit="10"/>
<path fill-rule="evenodd" clip-rule="evenodd" d="M38.8811 29.9532C37.4318 29.9578 36.0011 30.2891 34.6916 30.9238C33.3821 31.5584 32.226 32.4806 31.3057 33.6244C30.3853 34.7682 29.7232 36.1059 29.3672 37.5412C29.0111 38.9765 28.9698 40.474 29.2458 41.9275C29.6212 43.8733 30.5608 45.6593 31.9421 47.0529C32.2064 47.3228 32.3548 47.6884 32.3548 48.0702C32.3548 48.452 32.2064 48.8182 31.9421 49.0881C31.6779 49.3581 31.3194 49.5097 30.9457 49.5097C30.572 49.5097 30.2135 49.3581 29.9492 49.0881C28.6258 47.7401 27.6122 46.1086 26.9817 44.3113C26.3511 42.514 26.1195 40.5959 26.3034 38.696C26.4874 36.796 27.0821 34.9619 28.0451 33.3256C29.0081 31.6894 30.3154 30.2917 31.8717 29.2346C33.9491 27.8178 36.3908 27.0622 38.8886 27.0625C41.3864 27.0628 43.8277 27.8192 45.9049 29.2364C47.982 30.6535 49.6015 32.6678 50.5585 35.0247C51.5156 37.3817 51.7678 39.9752 51.2826 42.4783C50.7987 44.9863 49.5896 47.2886 47.8125 49.0881C47.5415 49.3159 47.1974 49.4322 46.8469 49.4138C46.4965 49.3954 46.1653 49.2437 45.9186 48.9887C45.6719 48.7338 45.5273 48.3939 45.5134 48.0357C45.4995 47.6775 45.6175 47.327 45.8436 47.0529C47.2112 45.6486 48.141 43.8621 48.5164 41.9187C48.8919 39.9754 48.696 37.9619 47.9533 36.1321C47.2231 34.2866 45.9648 32.7088 44.343 31.6055C42.722 30.5156 40.8217 29.9407 38.8811 29.9532Z" fill="#3D89EC" stroke="white" stroke-width="0.19" stroke-miterlimit="10"/>
<path fill-rule="evenodd" clip-rule="evenodd" d="M38.885 22.4835C35.4938 22.4839 32.1798 23.5179 29.367 25.4531C26.5585 27.375 24.3656 30.0985 23.061 33.2843C21.7515 36.4953 21.4065 40.0315 22.0703 43.4432C22.734 46.8549 24.3762 49.9879 26.7881 52.4433C27.0473 52.7159 27.1927 53.0805 27.1927 53.4606C27.1927 53.8407 27.0473 54.2059 26.7881 54.4785C26.659 54.6154 26.5042 54.7246 26.3331 54.799C26.1619 54.8733 25.9782 54.9118 25.7922 54.9118C25.6062 54.9118 25.422 54.8733 25.2508 54.799C25.0796 54.7246 24.9248 54.6154 24.7958 54.4785C22.0034 51.6368 20.1021 48.0105 19.3339 44.0612C18.5658 40.112 18.9653 36.0185 20.482 32.3021C21.9779 28.5719 24.534 25.3858 27.82 23.1541C31.9336 20.3479 36.9215 19.205 41.8142 19.9477C46.707 20.6903 51.1545 23.2652 54.2918 27.172C57.429 31.0788 59.0316 36.0382 58.788 41.0852C58.5445 46.1322 56.4724 50.9059 52.9742 54.4785C52.8472 54.6148 52.6942 54.7231 52.5249 54.7972C52.3557 54.8713 52.1734 54.91 51.9892 54.91C51.8051 54.91 51.6228 54.8713 51.4535 54.7972C51.2843 54.7231 51.1318 54.6148 51.0048 54.4785C50.8708 54.3467 50.764 54.1886 50.6912 54.0137C50.6184 53.8388 50.5813 53.6507 50.5813 53.4606C50.5813 53.2706 50.6184 53.083 50.6912 52.9081C50.764 52.7332 50.8708 52.5751 51.0048 52.4433C53.4209 49.9905 55.0643 46.8558 55.7243 43.442C56.3843 40.0283 56.0309 36.4913 54.709 33.2843C53.4038 30.0935 51.2062 27.3667 48.3915 25.4455C45.5768 23.5243 42.2701 22.4941 38.885 22.4835Z" fill="#3D89EC" stroke="white" stroke-width="0.19" stroke-miterlimit="10"/>
</svg>
