<svg width="39" height="39" viewBox="0 0 39 39" fill="none" xmlns="http://www.w3.org/2000/svg">
<path d="M19.5324 38.1069H3.81138C3.3933 38.118 2.97821 38.0332 2.59648 37.8587C2.21476 37.6841 1.87618 37.4245 1.60575 37.0986C1.33533 36.7727 1.13982 36.3889 1.03379 35.9756C0.92775 35.5623 0.913757 35.1299 0.992932 34.7103C1.14706 33.8331 1.32317 32.9335 1.49932 32.0562C2.46814 26.8602 3.45915 21.6418 4.42797 16.4458L5.02251 13.3189C5.16498 12.6687 5.5235 12.0893 6.03743 11.6791C6.55136 11.2689 7.18897 11.0534 7.84096 11.0695H9.31603C9.47442 11.0919 9.6359 11.0765 9.78748 11.0245C9.93906 10.9725 10.0765 10.8857 10.1896 10.7702C10.3026 10.6547 10.3881 10.5138 10.439 10.3589C10.4899 10.2041 10.505 10.0397 10.4831 9.87786C10.4831 8.3483 10.4831 6.7961 10.4831 5.24405C10.4769 4.28737 10.7473 3.35017 11.2604 2.54987C11.7735 1.74956 12.5067 1.12178 13.3677 0.745325C13.9916 0.464851 14.6676 0.326286 15.3491 0.340044H23.6943C24.3376 0.32792 24.9766 0.448461 25.5736 0.693704C26.1705 0.938946 26.7131 1.30412 27.1691 1.76786C27.6251 2.2316 27.9853 2.78409 28.2281 3.39283C28.4708 4.00156 28.5913 4.65434 28.5823 5.31159C28.5823 6.81866 28.5823 8.34823 28.5823 9.81031C28.5823 10.755 28.9348 11.1146 29.8375 11.1146H31.2245C31.8754 11.1027 32.5106 11.3201 33.0237 11.7296C33.5367 12.1391 33.8966 12.7158 34.0429 13.3639C35.0998 19.0548 36.2447 24.7459 37.2355 30.4143C37.5217 31.8538 37.7862 33.2932 38.0504 34.7103C38.1377 35.135 38.1289 35.5746 38.0252 35.9954C37.9214 36.4161 37.7254 36.807 37.4516 37.1387C37.1778 37.4704 36.8337 37.7342 36.4453 37.9097C36.0569 38.0853 35.6344 38.168 35.2099 38.1519L19.5324 38.1069ZM19.5324 10.935H25.1693C26.006 10.935 26.3805 10.5525 26.3805 9.69774C26.3805 8.37061 26.3805 7.04342 26.3805 5.69381C26.3992 5.24858 26.3269 4.80428 26.1687 4.389C26.0104 3.97373 25.7697 3.59646 25.4612 3.28135C25.1528 2.96623 24.7835 2.72032 24.377 2.55865C23.9705 2.39698 23.5355 2.32317 23.0997 2.34228H15.9877C15.5509 2.32339 15.1149 2.3972 14.7073 2.55865C14.2996 2.7201 13.9294 2.9655 13.6192 3.28025C13.3091 3.59499 13.0656 3.97203 12.9048 4.38736C12.744 4.80268 12.6694 5.24748 12.6849 5.69381V9.69774C12.6849 10.5525 13.0814 10.935 13.9181 10.935H19.5324ZM8.01674 15.4337C8.01674 15.0963 7.86272 14.8489 7.57648 14.8489C7.29024 14.8489 7.09207 15.0513 7.02601 15.3662C6.5416 18.8077 6.03532 22.2489 5.5289 25.6904C5.5289 26.1627 5.37455 26.6354 5.3085 27.0852C5.24244 27.5351 5.41846 27.7152 5.72672 27.7602C6.03498 27.8052 6.23317 27.6252 6.29923 27.2429C6.30868 27.1833 6.30868 27.1223 6.29923 27.0627C6.69556 24.3185 7.11402 21.5745 7.51036 18.8528C7.68651 17.8181 7.86261 16.6704 8.01674 15.5457V15.4337ZM5.81488 29.9645C5.81488 29.6046 5.81501 29.4021 5.39666 29.3346C4.9783 29.2671 4.91225 29.4695 4.84619 29.7844C4.78013 30.0993 4.84608 30.2118 4.73599 30.4368C4.55984 31.7414 4.36167 33.0235 4.18552 34.3281C4.18552 34.688 4.18589 34.913 4.56021 34.958C4.63187 34.971 4.70533 34.9679 4.77577 34.9492C4.84621 34.9305 4.9118 34.8968 4.96822 34.8498C5.02464 34.8029 5.07045 34.7435 5.10261 34.6768C5.13476 34.6101 5.15216 34.5375 5.15421 34.4632C5.15421 34.2383 5.15421 34.0132 5.15421 33.7883C5.52853 32.6186 5.72689 31.3367 5.90304 30.0771L5.81488 29.9645Z" fill="#3D89EC"/>
</svg>
