<svg width="46" height="46" viewBox="0 0 46 46" fill="none" xmlns="http://www.w3.org/2000/svg">
<path d="M22.7401 45.4179C34.7467 45.4179 44.48 35.4744 44.48 23.2087C44.48 10.943 34.7467 1 22.7401 1C10.7334 1 1 10.943 1 23.2087C1 35.4744 10.7334 45.4179 22.7401 45.4179Z" stroke="#3D89EC" stroke-width="1.1" stroke-miterlimit="10"/>
<path d="M34.3383 21.9018C33.4912 21.7271 32.7295 21.2584 32.1826 20.5749C31.6357 19.8914 31.3373 19.0354 31.3383 18.1527C31.3396 17.5302 31.487 16.9171 31.7682 16.3649C31.8418 16.257 31.8812 16.1288 31.8812 15.9973C31.8812 15.8658 31.8418 15.7371 31.7682 15.6292C31.3596 15.1197 30.9078 14.6481 30.4183 14.2195C30.3192 14.1386 30.1988 14.0898 30.0724 14.0789C29.946 14.0679 29.8192 14.0953 29.7083 14.1582C29.0055 14.5231 28.2074 14.6503 27.4291 14.5218C26.6509 14.3933 25.9327 14.0159 25.3782 13.4434C24.853 12.8997 24.504 12.2041 24.3782 11.4511C23.8781 11.3777 23.3736 11.3403 22.8683 11.3389C22.4338 11.3403 21.9997 11.3677 21.5682 11.4207C21.3959 12.2834 20.9378 13.0588 20.2712 13.617C19.6046 14.1751 18.7702 14.482 17.9083 14.4854C17.3068 14.4813 16.7146 14.334 16.1783 14.0559C16.0737 13.983 15.9499 13.9442 15.8232 13.9442C15.6966 13.9442 15.5729 13.983 15.4683 14.0559C14.9653 14.483 14.4971 14.9512 14.0682 15.4556C13.9886 15.5546 13.9403 15.6761 13.9296 15.8038C13.9189 15.9314 13.9463 16.0595 14.0082 16.1709C14.3556 16.8867 14.474 17.6956 14.3466 18.4839C14.2192 19.2722 13.8525 19.9997 13.2983 20.5634C12.7672 21.096 12.091 21.4521 11.3583 21.585C11.2831 22.1094 11.2431 22.6388 11.2383 23.1688C11.2397 23.6025 11.2664 24.0357 11.3182 24.4662C12.1636 24.6365 12.925 25.101 13.4721 25.781C14.0193 26.4611 14.3183 27.3145 14.3182 28.1948C14.3218 28.8146 14.174 29.4253 13.8882 29.9721C13.8173 30.081 13.7795 30.2093 13.7795 30.3402C13.7795 30.4711 13.8173 30.5989 13.8882 30.7078C14.2994 31.2181 14.751 31.6932 15.2383 32.128C15.3367 32.2102 15.4573 32.2597 15.584 32.2706C15.7107 32.2816 15.8377 32.253 15.9482 32.1888C16.4674 31.9218 17.0405 31.7824 17.6218 31.7818C18.2031 31.7812 18.7765 31.9194 19.2962 32.1853C19.8159 32.4513 20.2676 32.8377 20.6152 33.3136C20.9628 33.7896 21.1967 34.3421 21.2983 34.9268C21.8149 35.004 22.3361 35.045 22.8583 35.0495C23.2783 35.0495 23.6983 35.0492 24.1083 34.9777C24.2754 34.1123 24.732 33.3336 25.3997 32.7744C26.0675 32.2153 26.9048 31.9105 27.7682 31.913C28.3868 31.911 28.9958 32.0693 29.5383 32.3729C29.6498 32.438 29.7777 32.4678 29.9058 32.4587C30.034 32.4496 30.1566 32.4022 30.2582 32.322C30.7568 31.9081 31.2186 31.4497 31.6382 30.9528C31.7187 30.8522 31.7676 30.7291 31.7783 30.5996C31.789 30.4701 31.7611 30.3404 31.6982 30.2275C31.3369 29.5085 31.2081 28.691 31.3303 27.8925C31.4525 27.094 31.8194 26.3556 32.3782 25.7835C32.9214 25.2342 33.6221 24.8763 34.3782 24.762C34.4421 24.2469 34.4755 23.7283 34.4783 23.2092C34.457 22.7708 34.4102 22.3344 34.3383 21.9018ZM22.7883 29.0528C21.6589 29.0528 20.555 28.7106 19.616 28.0696C18.677 27.4286 17.9451 26.5177 17.5129 25.4518C17.0807 24.386 16.9677 23.2134 17.188 22.0818C17.4083 20.9503 17.9521 19.9107 18.7507 19.0949C19.5492 18.2792 20.5667 17.7238 21.6743 17.4987C22.7819 17.2737 23.93 17.3889 24.9734 17.8304C26.0168 18.2719 26.9085 19.0196 27.5359 19.9788C28.1634 20.9381 28.4982 22.0659 28.4982 23.2196C28.4969 23.9891 28.3466 24.7509 28.056 25.4608C27.7653 26.1707 27.34 26.8146 26.8046 27.3558C26.2692 27.8971 25.6343 28.3248 24.9364 28.6143C24.2385 28.9038 23.4915 29.0495 22.7383 29.0428L22.7883 29.0528Z" stroke="#3D89EC" stroke-width="0.99" stroke-linecap="round" stroke-linejoin="round"/>
</svg>
