<svg width="1174" height="452" viewBox="0 0 1174 452" fill="none" xmlns="http://www.w3.org/2000/svg">
<g opacity="0.7">
<g style="mix-blend-mode:luminosity">
<path d="M423.459 257.691H439.709L464.514 371.381H448.264L423.459 257.691Z" fill="#5B5B5B"/>
<path d="M716.307 375.224H713.042V383.222H716.307V375.224Z" fill="#303030"/>
<path d="M698.317 375.224H687.681V383.222H698.317V375.224Z" fill="#303030"/>
<path d="M729.843 380.1H690.373V381.758H729.843V380.1Z" fill="#303030"/>
<path d="M584.489 389.405C584.489 391.844 583.133 393.833 581.434 393.833C579.734 393.833 578.359 391.883 578.359 389.405C578.359 386.928 579.734 384.958 581.434 384.958C583.133 384.958 584.489 387.006 584.489 389.405Z" fill="#303030"/>
<path d="M582.865 360.224H580V388.977H582.865V360.224Z" fill="#303030"/>
<path d="M600.512 387.318H580.653V391.473H600.512V387.318Z" fill="#303030"/>
<path d="M616.628 389.658C616.628 386.186 617.488 383.357 618.538 383.357C619.588 383.357 620.447 386.186 620.447 389.658C620.447 393.131 619.588 395.979 618.538 395.979C617.488 395.979 616.628 393.15 616.628 389.658Z" fill="#303030"/>
<path d="M598.659 389.658C598.659 386.186 599.519 383.357 600.569 383.357C601.619 383.357 602.479 386.186 602.479 389.658C602.479 393.131 601.619 395.979 600.569 395.979C599.519 395.979 598.659 393.15 598.659 389.658Z" fill="#303030"/>
<path d="M604.386 375.576H603.526V386.227H604.386V375.576Z" fill="#303030"/>
<path d="M615.425 375.576H614.566V386.227H615.425V375.576Z" fill="#303030"/>
<path d="M601.676 381.545H600.263V397.618H601.676V381.545Z" fill="#303030"/>
<path d="M618.825 381.545H617.412V397.618H618.825V381.545Z" fill="#303030"/>
<path d="M618.137 382.636H600.875V396.097H618.137V382.636Z" fill="#303030"/>
<path d="M482.136 374.326H510.57L507.113 392.389H486.7L482.136 374.326Z" fill="#303030"/>
<path d="M509.75 374.326H538.183L534.708 392.389H514.314L509.75 374.326Z" fill="#303030"/>
<path d="M494.205 375.224H526.114L522.218 398.009H499.323L494.205 375.224Z" fill="#303030"/>
<path d="M726.733 374.326H755.166L751.71 392.389H731.297L726.733 374.326Z" fill="#303030"/>
<path d="M754.343 374.326H782.776L779.3 392.389H758.907L754.343 374.326Z" fill="#303030"/>
<path d="M466.804 370.483H794.768L797.708 378.189H470.146L466.804 370.483Z" fill="#303030"/>
<path d="M800.879 365.588H462.318V372.689H800.879V365.588Z" fill="#303030"/>
<path d="M738.798 375.224H770.706L766.811 398.009H743.916L738.798 375.224Z" fill="#303030"/>
<path d="M739.487 393.874C739.487 403.433 734.16 411.177 727.572 411.177C720.984 411.177 715.637 403.374 715.637 393.874C715.637 384.374 720.984 376.552 727.572 376.552C734.16 376.552 739.487 384.296 739.487 393.874Z" fill="#303030"/>
<path d="M733.033 393.854C733.033 398.282 730.57 401.872 727.533 401.872C724.497 401.872 722.015 398.282 722.015 393.854C722.015 389.426 724.478 385.856 727.533 385.856C730.589 385.856 733.033 389.445 733.033 393.854Z" fill="#2D2D2D"/>
<path d="M550.902 393.874C550.902 403.433 545.555 411.177 538.968 411.177C532.38 411.177 527.033 403.374 527.033 393.874C527.033 384.374 532.38 376.552 538.968 376.552C545.555 376.552 550.902 384.296 550.902 393.874Z" fill="#303030"/>
<path d="M494.033 393.874C494.033 403.433 488.706 411.177 482.118 411.177C475.53 411.177 470.183 403.374 470.183 393.874C470.183 384.374 475.53 376.552 482.118 376.552C488.706 376.552 494.033 384.296 494.033 393.874Z" fill="#303030"/>
<path d="M793.451 393.874C793.451 403.433 788.104 411.177 781.517 411.177C774.929 411.177 769.582 403.374 769.582 393.874C769.582 384.374 774.929 376.552 781.517 376.552C788.104 376.552 793.451 384.296 793.451 393.874Z" fill="#303030"/>
<path opacity="0.4" d="M533.068 405.693C533.068 403.411 535.684 403.625 538.892 403.625C542.1 403.625 544.735 403.411 544.735 405.693C544.735 407.976 542.119 409.848 538.892 409.848C535.664 409.848 533.068 407.995 533.068 405.693Z" fill="#444444"/>
<path opacity="0.4" d="M476.315 405.693C476.315 403.411 478.931 403.625 482.158 403.625C485.385 403.625 487.886 403.411 487.886 405.693C487.886 407.976 485.27 409.848 482.158 409.848C479.045 409.848 476.315 407.995 476.315 405.693Z" fill="#444444"/>
<path opacity="0.4" d="M775.616 405.109C775.616 402.827 778.232 403.043 781.44 403.043C784.648 403.043 787.169 402.827 787.169 405.109C787.169 407.392 784.572 409.245 781.44 409.245C778.309 409.245 775.616 407.392 775.616 405.109Z" fill="#444444"/>
<path opacity="0.4" d="M721.329 405.109C721.329 402.827 723.926 403.043 727.057 403.043C730.189 403.043 732.881 402.827 732.881 405.109C732.881 407.392 730.265 409.245 727.057 409.245C723.849 409.245 721.329 407.392 721.329 405.109Z" fill="#444444"/>
<path d="M787.034 393.854C787.034 398.282 784.551 401.872 781.515 401.872C778.479 401.872 775.997 398.282 775.997 393.854C775.997 389.426 778.46 385.856 781.515 385.856C784.571 385.856 787.034 389.445 787.034 393.854Z" fill="#2D2D2D"/>
<path d="M544.388 393.854C544.388 398.282 541.906 401.872 538.87 401.872C535.833 401.872 533.351 398.282 533.351 393.854C533.351 389.426 535.814 385.856 538.87 385.856C541.925 385.856 544.388 389.445 544.388 393.854Z" fill="#2D2D2D"/>
<path d="M487.426 393.854C487.426 398.282 484.944 401.872 481.908 401.872C478.872 401.872 476.389 398.282 476.389 393.854C476.389 389.426 478.852 385.856 481.908 385.856C484.963 385.856 487.426 389.445 487.426 393.854Z" fill="#2D2D2D"/>
<path d="M544.886 362.778H717.203L709.68 397.716H555.828L544.886 362.778Z" fill="#303030"/>
<path d="M474.577 369.897H780.943V388.839H478.262L474.577 369.897Z" fill="#858D9B"/>
<path d="M779.7 401.266H840.233C848.162 396.054 854.533 388.71 858.646 380.042C862.759 371.373 864.455 361.716 863.548 352.127C861.104 317.795 786.25 239.648 775.213 238.477C764.176 237.307 421.814 238.477 421.814 238.477L458.21 381.154H767.842L779.7 401.266Z" fill="#E9E9E9"/>
<path d="M425.234 238.458H437.513L560.525 352.771H450.975L448.149 341.671H532.302L425.234 238.458Z" fill="#3D89EC"/>
<path d="M446.105 238.38H463.864L573.128 337.028H859.31C861.444 341.575 862.849 346.442 863.473 351.444H569.748L446.105 238.38Z" fill="#3D89EC"/>
<path d="M763.223 305.369L746.992 257.42H799.065C814.026 272.288 827.835 288.319 840.368 305.369H763.223Z" fill="#524547"/>
<path d="M720.811 257.42L733.242 294.113H492.125L479.694 257.42H720.811Z" fill="#524547"/>
<path d="M744.948 383.496H766.01L763.967 394.166H748.003L744.948 383.496Z" fill="#A3CAED"/>
<path d="M554.337 384.51H696.674L682.849 401.149H575.075L554.337 384.51Z" fill="#A3CAED"/>
<path d="M765.781 303.613L750.505 259.176H799.809C813.923 272.919 826.955 287.777 838.783 303.613H765.781Z" fill="#89A7BD"/>
<path d="M776.989 298.99L765.531 264.385H802.309C812.909 275.12 822.665 286.691 831.487 298.99H776.989Z" fill="#C1D2DA"/>
<path d="M719.839 259.936L730.743 292.182H493.54L482.636 259.936H719.839Z" fill="#89A7BD"/>
<path d="M591.614 269.709C556.953 269.53 522.311 271.432 487.868 275.405L482.636 259.936H719.839L726.809 280.516C695.836 273.864 646.818 269.709 591.614 269.709Z" fill="#98B7CA"/>
<g style="mix-blend-mode:multiply" opacity="0.3">
<path d="M863.606 354.059C864.158 363.342 862.281 372.609 858.166 380.905C854.052 389.202 847.849 396.23 840.195 401.267H779.663L767.843 381.155H458.211L431.172 275.152C494.263 370.933 745.1 374.873 863.606 354.059Z" fill="#858D9B"/>
</g>
<path d="M423.132 238.458L460.215 364.28L768.262 377.584L780.121 397.716H840.691C846.822 393.696 852.039 388.381 855.992 382.129C859.944 375.877 862.54 368.834 863.606 361.471C862.99 369.491 860.567 377.255 856.526 384.159C852.484 391.063 846.934 396.918 840.309 401.266H779.777L767.842 381.154H458.21L421.814 238.497L423.132 238.458Z" fill="#E9E9E9"/>
<path d="M844.092 381.368C848.236 377.154 852.417 375.516 853.429 377.565C854.441 379.613 851.94 384.782 847.815 388.996C843.691 393.209 839.509 394.848 838.478 392.8C837.447 390.752 839.967 385.562 844.092 381.368Z" fill="#E9E9E9"/>
<path d="M855.245 366.172C856.409 363.402 858.204 361.92 859.236 362.817C860.267 363.715 860.171 366.718 859.006 369.469C857.842 372.219 856.066 373.741 855.016 372.824C853.965 371.908 854.061 368.923 855.245 366.172Z" fill="#E9E9E9"/>
<path d="M508.93 258.609H510.285L521.017 293.098H519.661L508.93 258.609Z" fill="#524547"/>
<path d="M535.835 258.667H537.172L547.903 293.156H546.566L535.835 258.667Z" fill="#524547"/>
<path d="M562.721 258.727H564.058L574.79 293.215H573.453L562.721 258.727Z" fill="#524547"/>
<path d="M589.626 258.784H590.963L601.695 293.273H600.358L589.626 258.784Z" fill="#524547"/>
<path d="M616.513 258.843H617.85L628.581 293.332H627.244L616.513 258.843Z" fill="#524547"/>
<path d="M643.399 258.902H644.755L655.487 293.391H654.131L643.399 258.902Z" fill="#524547"/>
<path d="M670.304 258.96H671.641L682.373 293.449H681.036L670.304 258.96Z" fill="#524547"/>
<path d="M697.191 259.038H698.528L709.259 293.507H707.923L697.191 259.038Z" fill="#524547"/>
<path d="M774.449 258.162H776.492L792.857 305.233H790.814L774.449 258.162Z" fill="#524547"/>
<path d="M781.822 260.949H783.713L798.836 301.661H796.946L781.822 260.949Z" fill="#89A7BD"/>
<path d="M488.669 384.081L489.7 383.496L482.749 357.96H520.348L529.399 382.949L530.392 382.188L521.035 356.341H481.107L488.669 384.081Z" fill="#858D9B"/>
<path d="M686.801 384.119L687.642 383.631L682.028 363.031H712.389L719.684 383.202L720.486 382.598L712.943 361.725H680.71L686.801 384.119Z" fill="#858D9B"/>
<path d="M586.609 245.285H612.121L632.629 308.781H606.182L586.609 245.285Z" fill="#E9E9E9"/>
<g style="mix-blend-mode:overlay" opacity="0.3">
<path d="M611.909 260.463C547.176 248.115 475.434 241.346 423.094 243.472L421.814 238.478C421.814 238.478 764.157 237.288 775.213 238.478C786.269 239.668 861.142 317.795 863.548 352.128C863.709 354.381 863.747 356.64 863.663 358.897C805.155 317.073 720.829 281.258 611.909 260.463Z" fill="#F6EDD5"/>
</g>
<path d="M840.559 309.29C845.646 315.926 850.296 322.898 854.48 330.162C859.636 339.662 842.984 323.706 840.559 309.29Z" fill="#FFF5EF"/>
<path d="M787.854 252.58C782.696 250.821 777.805 248.332 773.322 245.187C767.708 240.798 783.825 241.149 787.854 252.58Z" fill="#FFF5EF"/>
<path d="M441.503 322.105H851.424L852.493 323.881H441.503V322.105Z" fill="#858D9B"/>
<path d="M823.43 283.851L757.78 277.921L751.803 261.496L799.045 260.599L823.43 283.851Z" fill="#E9E9E9"/>
<mask id="mask0_5_4080" style="mask-type:luminance" maskUnits="userSpaceOnUse" x="51" y="211" width="412" height="205">
<path d="M51.3264 211.051H411.141L462.966 415.371L92.7826 415.351L51.3264 211.051Z" fill="white"/>
</mask>
<g mask="url(#mask0_5_4080)">
<path d="M63.2611 253.947H84.3615L116.537 367.617H95.4559L63.2611 253.947Z" fill="#5B5B5B"/>
<path d="M368.331 371.458H365.065V379.456H368.331V371.458Z" fill="#403336"/>
<path d="M350.34 371.458H339.704V379.456H350.34V371.458Z" fill="#403336"/>
<path d="M381.867 376.335H342.397V377.993H381.867V376.335Z" fill="#403336"/>
<path d="M236.532 385.64C236.532 388.098 235.157 390.088 233.457 390.088C231.758 390.088 230.383 388.137 230.383 385.64C230.383 383.143 231.758 381.192 233.457 381.192C235.157 381.192 236.532 383.104 236.532 385.64Z" fill="#403336"/>
<path d="M234.892 356.459H232.028V385.213H234.892V356.459Z" fill="#403336"/>
<path d="M252.536 383.574H232.677V387.729H252.536V383.574Z" fill="#403336"/>
<path d="M268.652 385.915C268.652 382.423 269.512 379.595 270.562 379.595C271.612 379.595 272.471 382.423 272.471 385.915C272.471 389.406 271.612 392.235 270.562 392.235C269.512 392.235 268.652 389.406 268.652 385.915Z" fill="#403336"/>
<path d="M250.646 385.915C250.646 382.423 251.505 379.595 252.555 379.595C253.606 379.595 254.465 382.423 254.465 385.915C254.465 389.406 253.606 392.235 252.555 392.235C251.505 392.235 250.646 389.406 250.646 385.915Z" fill="#403336"/>
<path d="M256.41 371.83H255.55V382.481H256.41V371.83Z" fill="#403336"/>
<path d="M267.449 371.83H266.59V382.481H267.449V371.83Z" fill="#403336"/>
<path d="M253.7 377.799H252.287V393.873H253.7V377.799Z" fill="#403336"/>
<path d="M270.848 377.799H269.435V393.873H270.848V377.799Z" fill="#403336"/>
<path d="M270.161 378.873H252.899V392.333H270.161V378.873Z" fill="#403336"/>
<path d="M134.164 370.582H162.597L159.141 388.626H138.728L134.164 370.582Z" fill="#403336"/>
<path d="M161.774 370.582H190.207L186.732 388.626H166.338L161.774 370.582Z" fill="#403336"/>
<path d="M146.229 371.458H178.138L174.261 394.263H151.347L146.229 371.458Z" fill="#403336"/>
<path d="M378.757 370.582H407.19L403.733 388.626H383.32L378.757 370.582Z" fill="#403336"/>
<path d="M406.367 370.582H434.8L431.324 388.626H410.931L406.367 370.582Z" fill="#403336"/>
<path d="M118.828 366.718H446.791L449.732 374.423H122.17L118.828 366.718Z" fill="#403336"/>
<path d="M452.903 361.842H114.341V368.943H452.903V361.842Z" fill="#403336"/>
<path d="M390.822 371.458H422.73L418.854 394.263H395.939L390.822 371.458Z" fill="#403336"/>
<path d="M391.474 390.108C391.474 399.667 386.146 407.432 379.558 407.432C372.97 407.432 367.624 399.628 367.624 390.108C367.624 380.589 372.951 372.786 379.558 372.786C386.165 372.786 391.474 380.55 391.474 390.108Z" fill="#403336"/>
<path d="M385.057 390.108C385.057 394.536 382.593 398.106 379.557 398.106C376.521 398.106 374.039 394.536 374.039 390.108C374.039 385.679 376.502 382.11 379.557 382.11C382.613 382.11 385.057 385.679 385.057 390.108Z" fill="#33282B"/>
<path d="M202.907 390.108C202.907 399.667 197.561 407.432 190.973 407.432C184.385 407.432 179.038 399.628 179.038 390.108C179.038 380.589 184.385 372.786 190.973 372.786C197.561 372.786 202.907 380.55 202.907 390.108Z" fill="#403336"/>
<path d="M146.057 390.108C146.057 399.667 140.729 407.432 134.142 407.432C127.554 407.432 122.207 399.628 122.207 390.108C122.207 380.589 127.554 372.786 134.142 372.786C140.729 372.786 146.057 380.55 146.057 390.108Z" fill="#403336"/>
<path d="M445.419 390.108C445.419 399.667 440.072 407.432 433.484 407.432C426.896 407.432 421.55 399.628 421.55 390.108C421.55 380.589 426.896 372.786 433.484 372.786C440.072 372.786 445.419 380.55 445.419 390.108Z" fill="#403336"/>
<path opacity="0.4" d="M185.091 401.949C185.091 399.667 187.707 399.881 190.934 399.881C194.161 399.881 196.663 399.667 196.663 401.949C196.663 404.232 194.047 406.084 190.934 406.084C187.822 406.084 185.091 404.232 185.091 401.949Z" fill="#584A4E"/>
<path opacity="0.4" d="M128.435 401.949C128.435 399.667 131.051 399.881 134.278 399.881C137.506 399.881 140.007 399.667 140.007 401.949C140.007 404.232 137.391 406.084 134.278 406.084C131.166 406.084 128.435 404.232 128.435 401.949Z" fill="#584A4E"/>
<path opacity="0.4" d="M427.64 401.364C427.64 399.062 430.256 399.277 433.369 399.277C436.481 399.277 439.212 399.062 439.212 401.364C439.212 403.666 436.596 405.5 433.369 405.5C430.142 405.5 427.64 403.646 427.64 401.364Z" fill="#584A4E"/>
<path opacity="0.4" d="M373.353 401.364C373.353 399.062 375.95 399.277 379.081 399.277C382.213 399.277 384.905 399.062 384.905 401.364C384.905 403.666 382.289 405.5 379.081 405.5C375.873 405.5 373.353 403.646 373.353 401.364Z" fill="#584A4E"/>
<path d="M439.058 390.108C439.058 394.536 436.575 398.106 433.539 398.106C430.503 398.106 428.021 394.536 428.021 390.108C428.021 385.679 430.484 382.11 433.539 382.11C436.594 382.11 439.058 385.679 439.058 390.108Z" fill="#33282B"/>
<path d="M196.412 390.108C196.412 394.536 193.929 398.106 190.893 398.106C187.857 398.106 185.375 394.536 185.375 390.108C185.375 385.679 187.838 382.11 190.893 382.11C193.948 382.11 196.412 385.679 196.412 390.108Z" fill="#33282B"/>
<path d="M139.357 390.108C139.357 394.536 136.874 398.106 133.838 398.106C130.802 398.106 128.32 394.536 128.32 390.108C128.32 385.679 130.783 382.11 133.838 382.11C136.894 382.11 139.357 385.679 139.357 390.108Z" fill="#33282B"/>
<path d="M196.91 359.034H369.227L361.704 393.952H207.852L196.91 359.034Z" fill="#403336"/>
<path d="M126.6 366.133H432.967V385.074H130.286L126.6 366.133Z" fill="#858D9B"/>
<path d="M431.724 397.502H492.276C500.202 392.291 506.569 384.951 510.679 376.285C514.789 367.62 516.482 357.966 515.572 348.383C513.128 314.03 438.274 235.903 427.237 234.713C416.2 233.523 73.8381 234.713 73.8381 234.713L110.234 377.389H419.866L431.724 397.502Z" fill="#E9E9E9"/>
<path d="M77.2582 234.694H89.5365L212.549 349.007H102.999L100.173 337.908H184.326L77.2582 234.694Z" fill="#3D89EC"/>
<path d="M98.1289 234.615H115.888L225.152 333.283H511.334C513.454 337.836 514.859 342.701 515.497 347.7H221.772L98.1289 234.615Z" fill="#3D89EC"/>
<path d="M372.835 253.655L385.266 290.368H144.149L131.717 253.655H372.835Z" fill="#524547"/>
<path d="M396.972 379.749H418.034L415.991 390.401H400.027L396.972 379.749Z" fill="#A3CAED"/>
<path d="M206.361 380.745H348.698L334.873 397.404H227.099L206.361 380.745Z" fill="#A3CAED"/>
<path d="M371.863 256.191L382.767 288.438H145.563L134.66 256.191H371.863Z" fill="#89A7BD"/>
<path d="M243.637 266.061C208.977 265.876 174.335 267.772 139.892 271.738L134.66 256.288H371.863L378.814 276.848C347.86 270.196 298.842 266.061 243.637 266.061Z" fill="#98B7CA"/>
<g style="mix-blend-mode:multiply" opacity="0.3">
<path d="M515.668 350.294C516.226 359.576 514.353 368.842 510.242 377.14C506.131 385.437 499.929 392.465 492.276 397.501H431.725L419.867 377.389H110.235L83.1957 271.387C146.306 367.187 397.124 371.109 515.668 350.294Z" fill="#858D9B"/>
</g>
<path d="M75.1557 234.714L112.239 360.516L420.286 373.821L432.144 393.952H492.677C498.808 389.937 504.026 384.626 507.978 378.378C511.931 372.129 514.527 365.087 515.591 357.727C514.979 365.743 512.56 373.504 508.521 380.404C504.483 387.305 498.936 393.157 492.314 397.502H431.724L419.866 377.39H110.234L73.8381 234.714H75.1557Z" fill="#E9E9E9"/>
<path d="M160.972 254.863H162.309L173.04 289.334H171.704L160.972 254.863Z" fill="#524547"/>
<path d="M187.859 254.923H189.195L199.927 289.392H198.59L187.859 254.923Z" fill="#524547"/>
<path d="M214.745 254.98H216.082L226.832 289.451H225.477L214.745 254.98Z" fill="#524547"/>
<path d="M241.631 255.041H242.987L253.719 289.51H252.382L241.631 255.041Z" fill="#524547"/>
<path d="M268.537 255.099H269.873L280.605 289.588L279.268 289.568L268.537 255.099Z" fill="#524547"/>
<path d="M295.442 255.158H296.778L307.51 289.647L306.173 289.627L295.442 255.158Z" fill="#524547"/>
<path d="M322.328 255.216H323.665L334.397 289.705L333.06 289.685L322.328 255.216Z" fill="#524547"/>
<path d="M349.215 255.273H350.571L361.302 289.762H359.946L349.215 255.273Z" fill="#524547"/>
<path d="M140.692 380.315L141.723 379.73L134.773 354.195H172.372L181.423 379.184L182.397 378.442L173.059 352.576H133.15L140.692 380.315Z" fill="#858D9B"/>
<path d="M338.825 380.374L339.665 379.887L334.051 359.267H364.413L371.727 379.457L372.51 378.852L364.967 357.96H332.734L338.825 380.374Z" fill="#858D9B"/>
<path d="M238.633 241.541H264.163L284.634 305.018H258.206L238.633 241.541Z" fill="#E9E9E9"/>
<path d="M439.88 248.816C434.722 247.068 429.83 244.585 425.349 241.442C419.735 237.053 435.87 237.404 439.88 248.816Z" fill="#FFF5EF"/>
<path d="M95.3616 318.341H503.449L504.519 320.116H95.3616V318.341Z" fill="#858D9B"/>
<path d="M475.454 280.087L409.804 274.177L403.827 257.732L451.069 256.854L475.454 280.087Z" fill="#E9E9E9"/>
</g>
<mask id="mask1_5_4080" style="mask-type:luminance" maskUnits="userSpaceOnUse" x="-302" y="211" width="413" height="205">
<path d="M-301.077 211.051H58.7568L110.582 415.351H-259.602L-301.077 211.051Z" fill="white"/>
</mask>
<g mask="url(#mask1_5_4080)">
<path d="M15.9237 371.459H12.6583V379.457H15.9237V371.459Z" fill="#403336"/>
<path d="M29.4638 376.336H-10.0063V377.994H29.4638V376.336Z" fill="#403336"/>
<path d="M26.3495 370.583H54.7826L51.3263 388.627H30.9133L26.3495 370.583Z" fill="#403336"/>
<path d="M53.9633 370.583H82.3963L78.9401 388.627H58.5271L53.9633 370.583Z" fill="#403336"/>
<path d="M-233.557 366.719H94.3876L97.3283 374.424H-230.234L-233.557 366.719Z" fill="#403336"/>
<path d="M100.499 361.843H-238.062V368.944H100.499V361.843Z" fill="#403336"/>
<path d="M38.437 371.459H70.3263L66.4499 394.264H43.5355L38.437 371.459Z" fill="#403336"/>
<path d="M39.086 390.109C39.086 399.668 33.7393 407.433 27.1514 407.433C20.5635 407.433 15.2168 399.629 15.2168 390.109C15.2168 380.59 20.5635 372.787 27.1514 372.787C33.7393 372.787 39.086 380.551 39.086 390.109Z" fill="#403336"/>
<path d="M32.6725 390.108C32.6725 394.536 30.1901 398.106 27.154 398.106C24.1178 398.106 21.6354 394.536 21.6354 390.108C21.6354 385.679 24.0987 382.11 27.154 382.11C30.2092 382.11 32.6725 385.679 32.6725 390.108Z" fill="#33282B"/>
<path d="M93.0677 390.109C93.0677 399.668 87.721 407.433 81.1331 407.433C74.5452 407.433 69.1985 399.629 69.1985 390.109C69.1985 380.59 74.5452 372.787 81.1331 372.787C87.721 372.787 93.0677 380.551 93.0677 390.109Z" fill="#403336"/>
<path opacity="0.4" d="M75.233 401.365C75.233 399.063 77.8491 399.278 81.0762 399.278C84.3033 399.278 86.8048 399.063 86.8048 401.365C86.8048 403.667 84.1888 405.501 81.0762 405.501C77.9637 405.501 75.233 403.647 75.233 401.365Z" fill="#584A4E"/>
<path opacity="0.4" d="M20.9453 401.365C20.9453 399.063 23.5614 399.278 26.6739 399.278C29.7865 399.278 32.4026 399.063 32.4026 401.365C32.4026 403.667 29.8056 405.501 26.6739 405.501C23.5423 405.501 20.9453 403.647 20.9453 401.365Z" fill="#584A4E"/>
<path d="M86.6543 390.108C86.6543 394.536 84.1909 398.106 81.1357 398.106C78.0804 398.106 75.6172 394.536 75.6172 390.108C75.6172 385.679 78.0995 382.11 81.1357 382.11C84.1718 382.11 86.6543 385.679 86.6543 390.108Z" fill="#33282B"/>
<path d="M-155.474 359.034H16.8232L9.29965 393.952H-144.552L-155.474 359.034Z" fill="#403336"/>
<path d="M-225.784 366.133H80.5631V385.074H-222.118L-225.784 366.133Z" fill="#858D9B"/>
<path d="M79.3393 397.502H139.891C147.817 392.29 154.186 384.951 158.299 376.286C162.412 367.622 164.11 357.968 163.206 348.383C160.743 314.03 85.8891 235.903 74.8519 234.713C63.8148 233.523 -278.547 234.713 -278.547 234.713L-242.132 377.389H67.4811L79.3393 397.502Z" fill="#E9E9E9"/>
<path d="M-254.275 234.615H-236.516L-127.252 333.283H158.988C161.108 337.836 162.513 342.701 163.151 347.7H-130.632L-254.275 234.615Z" fill="#3D89EC"/>
<path d="M20.4315 253.655L32.8627 290.368H-208.255L-220.686 253.655H20.4315Z" fill="#524547"/>
<path d="M44.5685 379.75H65.6306L63.5874 390.402H47.6237L44.5685 379.75Z" fill="#A3CAED"/>
<path d="M19.4751 256.191L30.3786 288.438H-206.844L-217.747 256.191H19.4751Z" fill="#89A7BD"/>
<path d="M-108.751 266.061C-143.418 265.876 -178.065 267.772 -212.515 271.738L-217.747 256.288H19.4751L26.4258 276.848C-4.52782 270.196 -53.5648 266.061 -108.751 266.061Z" fill="#98B7CA"/>
<g style="mix-blend-mode:multiply" opacity="0.3">
<path d="M163.265 350.295C163.823 359.577 161.95 368.843 157.839 377.141C153.727 385.438 147.526 392.466 139.873 397.502H79.3406L67.4824 377.39H-242.149L-269.208 271.388C-206.097 367.188 44.7206 371.11 163.265 350.295Z" fill="#858D9B"/>
</g>
<path d="M-277.248 234.715L-240.107 360.517L67.9208 373.841L79.7791 393.953H140.311C146.443 389.938 151.661 384.627 155.613 378.378C159.566 372.13 162.162 365.088 163.226 357.728C162.608 365.749 160.179 373.514 156.131 380.415C152.082 387.316 146.524 393.165 139.891 397.503H79.3589L67.5008 377.391H-242.15L-278.565 234.715H-277.248Z" fill="#E9E9E9"/>
<path d="M-3.17004 255.273H-1.83334L8.89826 289.762H7.56156L-3.17004 255.273Z" fill="#524547"/>
<path d="M-13.5782 380.374L-12.738 379.887L-18.3521 359.267H12.0096L19.3231 379.457L20.1252 378.852L12.5634 357.96H-19.6697L-13.5782 380.374Z" fill="#858D9B"/>
<path d="M87.4734 248.817C82.3146 247.069 77.4226 244.586 72.9419 241.443C67.3278 237.054 83.4634 237.405 87.4734 248.817Z" fill="#FFF5EF"/>
<path d="M-258.858 318.341H151.044L152.113 320.116H-258.858V318.341Z" fill="#858D9B"/>
<path d="M123.069 280.087L57.4003 274.177L51.4235 257.732L98.6655 256.854L123.069 280.087Z" fill="#E9E9E9"/>
</g>
</g>
</g>
<path d="M1173.56 391.259H-235.008V451.692H1173.56V391.259Z" fill="#858D9B"/>
<path d="M1173.56 430.663H-235.008V451.693H1173.56V430.663Z" fill="#182445"/>
<path d="M1173.56 392.233H-235.008V398.885H1173.56V392.233Z" fill="#182445"/>
<path d="M1173.56 382.05H-235.008V391.258H1173.56V382.05Z" fill="#BBBBBB"/>
<path d="M1173.56 386.283H-235.008V395.549H1173.56V386.283Z" fill="#B6B6B6"/>
<path d="M861.639 368.707L1078.07 367.829L1078.18 388.156L861.753 389.034L861.639 368.707Z" fill="#4F4F4F"/>
<path d="M857.517 224.743C857.517 220.002 860.477 216.159 864.086 216.12L1074.84 215.321C1076.04 215.473 1077.14 216.086 1077.91 217.036C1078.68 217.986 1079.06 219.2 1078.99 220.431L1083.05 365.995C1083.13 367.565 1082.7 369.118 1081.81 370.405C1081.45 370.955 1080.96 371.41 1080.4 371.732C1079.83 372.054 1079.2 372.234 1078.55 372.257L862.252 373.154C861.453 373.136 860.668 372.93 859.959 372.551C859.25 372.172 858.636 371.63 858.166 370.969C857.053 369.423 856.469 367.545 856.505 365.625L857.517 224.743Z" fill="#B9B9B9"/>
<path d="M883.562 269.961C874.857 268.678 866.052 268.26 857.268 268.712L857.516 224.703C857.516 219.944 860.476 216.12 864.085 216.081L1074.84 215.282C1076.04 215.429 1077.13 216.038 1077.9 216.985C1078.67 217.932 1079.06 219.145 1078.98 220.373L1078.53 306.459C1058.38 287.615 912.587 274.291 883.562 269.961Z" fill="#D0D0D0"/>
<path d="M868.687 236.155C868.687 231.98 870.997 228.605 873.842 228.566L1065.75 227.942C1067.49 227.942 1068.9 229.893 1069 232.449L1071.44 354.311C1071.51 355.682 1071.17 357.041 1070.47 358.213C1070.21 358.683 1069.84 359.079 1069.39 359.365C1068.95 359.652 1068.44 359.819 1067.91 359.851L872.506 360.553C871.856 360.52 871.224 360.325 870.665 359.984C870.106 359.645 869.636 359.17 869.298 358.602C868.413 357.203 867.955 355.567 867.98 353.901L868.687 236.155Z" fill="#686868"/>
<path d="M870.444 238.184C870.444 234.107 872.659 230.81 875.37 230.79L1064.41 230.186C1066.06 230.186 1067.41 232.136 1067.51 234.575L1069.67 352.224C1069.75 353.545 1069.43 354.86 1068.75 355.989C1068.51 356.449 1068.16 356.839 1067.73 357.122C1067.31 357.406 1066.81 357.573 1066.31 357.608L874.186 358.271C873.556 358.24 872.944 358.045 872.41 357.703C871.875 357.362 871.434 356.885 871.131 356.32C870.286 354.956 869.848 353.37 869.871 351.756L870.444 238.184Z" fill="#A3CAED"/>
<path d="M857.515 224.742C857.474 222.276 858.363 219.887 859.997 218.071C859.269 219.547 858.896 221.178 858.909 222.831L857.935 363.693C857.905 365.609 858.481 367.484 859.577 369.039C860.025 369.7 860.621 370.243 861.315 370.623C862.009 371.003 862.781 371.209 863.568 371.224L1077.76 370.365C1078.41 370.324 1079.04 370.125 1079.6 369.785C1080.15 369.446 1080.62 368.977 1080.97 368.415C1081.83 367.125 1082.24 365.582 1082.15 364.026L1078.33 218.462C1078.29 218.079 1078.21 217.7 1078.11 217.33C1078.68 218.227 1079.01 219.264 1079.06 220.334L1083.11 365.917C1083.2 367.486 1082.77 369.04 1081.89 370.326C1081.52 370.877 1081.04 371.332 1080.47 371.654C1079.9 371.976 1079.27 372.156 1078.62 372.179L862.327 373.076C861.527 373.058 860.742 372.852 860.034 372.473C859.325 372.094 858.711 371.553 858.241 370.892C857.127 369.345 856.543 367.466 856.579 365.547L857.515 224.742Z" fill="#A4A4A4"/>
<path d="M1082.34 368.863L1078.28 223.299C1078.35 222.067 1077.96 220.853 1077.19 219.901C1076.42 218.949 1075.33 218.33 1074.13 218.169L863.377 218.988C862.086 219.1 860.855 219.595 859.837 220.413C858.819 221.232 858.058 222.336 857.648 223.592C858.087 219.398 860.799 216.159 864.122 216.12L1074.88 215.321C1076.07 215.468 1077.17 216.078 1077.94 217.024C1078.71 217.971 1079.1 219.184 1079.02 220.412L1083.07 365.995C1083.14 367.224 1082.89 368.448 1082.34 369.545C1082.32 369.331 1082.34 369.097 1082.34 368.863Z" fill="#E5D6D4"/>
<path d="M1063.75 298.831L1067.64 344.732L872.011 292.472L872.278 251.78L1063.75 298.831Z" fill="#BADBF3"/>
<path d="M878.667 243.384V239.02H879.195V240.963H881.522V239.02H882.05V243.384H881.522V241.432H879.195V243.384H878.667ZM884.003 243.46C883.796 243.46 883.608 243.421 883.438 243.343C883.269 243.264 883.135 243.149 883.036 243C882.936 242.85 882.887 242.668 882.887 242.455C882.887 242.267 882.924 242.115 882.997 241.999C883.071 241.881 883.17 241.789 883.294 241.722C883.417 241.655 883.554 241.605 883.703 241.573C883.853 241.539 884.005 241.512 884.157 241.492C884.355 241.466 884.517 241.447 884.64 241.434C884.765 241.42 884.856 241.397 884.913 241.364C884.971 241.331 885 241.274 885 241.193V241.176C885 240.966 884.943 240.803 884.828 240.686C884.714 240.57 884.541 240.512 884.31 240.512C884.07 240.512 883.882 240.564 883.745 240.669C883.609 240.774 883.513 240.887 883.458 241.006L882.98 240.835C883.066 240.637 883.179 240.482 883.321 240.371C883.465 240.259 883.621 240.181 883.79 240.137C883.961 240.091 884.128 240.068 884.293 240.068C884.398 240.068 884.519 240.081 884.655 240.107C884.793 240.131 884.926 240.181 885.054 240.258C885.183 240.335 885.29 240.451 885.375 240.605C885.461 240.76 885.503 240.968 885.503 241.228V243.384H885V242.941H884.975C884.941 243.012 884.884 243.088 884.804 243.169C884.725 243.25 884.619 243.318 884.487 243.375C884.355 243.432 884.193 243.46 884.003 243.46ZM884.08 243.009C884.279 243.009 884.446 242.97 884.583 242.892C884.72 242.813 884.824 242.713 884.894 242.589C884.965 242.465 885 242.335 885 242.199V241.739C884.979 241.764 884.932 241.788 884.86 241.809C884.789 241.829 884.706 241.847 884.613 241.862C884.52 241.877 884.43 241.889 884.342 241.901C884.255 241.911 884.185 241.919 884.131 241.926C884 241.943 883.878 241.971 883.764 242.009C883.652 242.046 883.561 242.103 883.492 242.178C883.424 242.252 883.389 242.353 883.389 242.48C883.389 242.655 883.454 242.787 883.583 242.877C883.714 242.965 883.88 243.009 884.08 243.009ZM886.421 243.384V240.111H887.759C888.111 240.111 888.391 240.191 888.598 240.35C888.806 240.509 888.91 240.719 888.91 240.98C888.91 241.179 888.851 241.333 888.733 241.443C888.615 241.551 888.464 241.624 888.279 241.662C888.4 241.679 888.517 241.722 888.63 241.79C888.745 241.858 888.841 241.952 888.916 242.071C888.991 242.189 889.029 242.334 889.029 242.506C889.029 242.674 888.986 242.823 888.901 242.956C888.816 243.088 888.694 243.192 888.535 243.269C888.375 243.345 888.185 243.384 887.964 243.384H886.421ZM886.898 242.924H887.964C888.137 242.924 888.272 242.882 888.37 242.8C888.469 242.718 888.518 242.605 888.518 242.463C888.518 242.294 888.469 242.161 888.37 242.065C888.272 241.967 888.137 241.918 887.964 241.918H886.898V242.924ZM886.898 241.483H887.759C887.894 241.483 888.01 241.465 888.106 241.428C888.203 241.389 888.277 241.335 888.328 241.266C888.38 241.195 888.407 241.111 888.407 241.014C888.407 240.877 888.349 240.769 888.234 240.691C888.119 240.611 887.961 240.571 887.759 240.571H886.898V241.483ZM890.293 242.642L891.87 240.111H892.449V243.384H891.946V240.853L890.378 243.384H889.79V240.111H890.293V242.642ZM895.39 240.111V240.58H893.873V243.384H893.37V240.111H895.39ZM896.917 243.46C896.71 243.46 896.522 243.421 896.353 243.343C896.184 243.264 896.049 243.149 895.95 243C895.85 242.85 895.801 242.668 895.801 242.455C895.801 242.267 895.838 242.115 895.912 241.999C895.985 241.881 896.084 241.789 896.208 241.722C896.331 241.655 896.468 241.605 896.617 241.573C896.767 241.539 896.919 241.512 897.071 241.492C897.269 241.466 897.431 241.447 897.554 241.434C897.679 241.42 897.77 241.397 897.827 241.364C897.885 241.331 897.914 241.274 897.914 241.193V241.176C897.914 240.966 897.857 240.803 897.742 240.686C897.628 240.57 897.456 240.512 897.224 240.512C896.984 240.512 896.796 240.564 896.659 240.669C896.523 240.774 896.427 240.887 896.372 241.006L895.894 240.835C895.98 240.637 896.093 240.482 896.235 240.371C896.379 240.259 896.535 240.181 896.704 240.137C896.875 240.091 897.042 240.068 897.207 240.068C897.312 240.068 897.433 240.081 897.569 240.107C897.707 240.131 897.84 240.181 897.968 240.258C898.097 240.335 898.204 240.451 898.289 240.605C898.375 240.76 898.417 240.968 898.417 241.228V243.384H897.914V242.941H897.889C897.855 243.012 897.798 243.088 897.718 243.169C897.639 243.25 897.533 243.318 897.401 243.375C897.269 243.432 897.108 243.46 896.917 243.46ZM896.994 243.009C897.193 243.009 897.36 242.97 897.497 242.892C897.635 242.813 897.738 242.713 897.808 242.589C897.879 242.465 897.914 242.335 897.914 242.199V241.739C897.893 241.764 897.846 241.788 897.774 241.809C897.703 241.829 897.62 241.847 897.527 241.862C897.434 241.877 897.344 241.889 897.256 241.901C897.169 241.911 897.099 241.919 897.045 241.926C896.914 241.943 896.792 241.971 896.679 242.009C896.566 242.046 896.475 242.103 896.406 242.178C896.338 242.252 896.304 242.353 896.304 242.48C896.304 242.655 896.368 242.787 896.497 242.877C896.628 242.965 896.794 243.009 896.994 243.009ZM901.909 240.111V242.915H902.369V244.441H901.866V243.384H899.335V240.111H899.838V242.915H901.406V240.111H901.909ZM903.646 242.642L905.223 240.111H905.803V243.384H905.3V240.853L903.732 243.384H903.144V240.111H903.646V242.642ZM908.692 243.384V240.571H907.823C907.627 240.571 907.473 240.617 907.361 240.708C907.249 240.799 907.192 240.924 907.192 241.083C907.192 241.239 907.243 241.362 907.344 241.451C907.446 241.541 907.586 241.585 907.763 241.585H908.82V242.054H907.763C907.542 242.054 907.351 242.015 907.19 241.937C907.03 241.859 906.906 241.747 906.82 241.603C906.733 241.456 906.69 241.283 906.69 241.083C906.69 240.881 906.735 240.708 906.826 240.563C906.917 240.418 907.047 240.306 907.216 240.228C907.386 240.15 907.589 240.111 907.823 240.111H909.17V243.384H908.692ZM906.511 243.384L907.44 241.756H907.985L907.056 243.384H906.511Z" fill="black"/>
<path d="M910.346 261.665V268.407H909.529V262.521H909.49L907.844 263.614V262.785L909.529 261.665H910.346ZM915.195 264.674V265.398H912.245V264.674H915.195ZM918.655 268.499C918.269 268.499 917.921 268.423 917.612 268.269C917.302 268.115 917.054 267.905 916.868 267.637C916.681 267.369 916.579 267.064 916.562 266.722H917.352C917.382 267.027 917.521 267.279 917.766 267.479C918.014 267.676 918.311 267.775 918.655 267.775C918.932 267.775 919.178 267.71 919.393 267.581C919.61 267.451 919.78 267.274 919.903 267.048C920.028 266.819 920.09 266.562 920.09 266.274C920.09 265.98 920.026 265.718 919.896 265.487C919.769 265.255 919.593 265.071 919.37 264.938C919.146 264.804 918.89 264.736 918.603 264.733C918.396 264.731 918.184 264.763 917.967 264.829C917.75 264.893 917.571 264.975 917.431 265.076L916.667 264.984L917.075 261.665H920.578V262.39H917.76L917.523 264.378H917.562C917.701 264.268 917.874 264.177 918.082 264.105C918.291 264.032 918.508 263.996 918.734 263.996C919.147 263.996 919.514 264.095 919.837 264.292C920.162 264.488 920.416 264.755 920.601 265.096C920.787 265.436 920.881 265.824 920.881 266.261C920.881 266.691 920.784 267.075 920.591 267.413C920.4 267.749 920.137 268.014 919.801 268.21C919.465 268.403 919.083 268.499 918.655 268.499Z" fill="black"/>
<path d="M893.127 262.411H887.971C884.069 262.411 880.906 265.643 880.906 269.629V274.896C880.906 278.882 884.069 282.114 887.971 282.114H893.127C897.029 282.114 900.192 278.882 900.192 274.896V269.629C900.192 265.643 897.029 262.411 893.127 262.411Z" fill="#85B8F0"/>
<path d="M910.214 299.594C909.937 299.59 909.661 299.537 909.384 299.436C909.108 299.335 908.856 299.165 908.627 298.926C908.399 298.684 908.216 298.359 908.078 297.948C907.939 297.536 907.87 297.018 907.87 296.394C907.87 295.797 907.926 295.269 908.038 294.808C908.15 294.345 908.312 293.955 908.525 293.639C908.738 293.321 908.995 293.079 909.296 292.915C909.598 292.75 909.94 292.668 910.319 292.668C910.697 292.668 911.033 292.744 911.327 292.895C911.623 293.044 911.864 293.253 912.051 293.521C912.237 293.788 912.358 294.097 912.413 294.446H911.61C911.535 294.143 911.39 293.891 911.175 293.692C910.96 293.492 910.675 293.392 910.319 293.392C909.797 293.392 909.386 293.619 909.085 294.074C908.786 294.528 908.636 295.165 908.634 295.986H908.687C908.809 295.8 908.955 295.641 909.124 295.509C909.296 295.375 909.484 295.272 909.691 295.199C909.897 295.127 910.115 295.091 910.346 295.091C910.732 295.091 911.085 295.187 911.406 295.38C911.726 295.571 911.983 295.836 912.176 296.174C912.369 296.51 912.466 296.895 912.466 297.329C912.466 297.746 912.372 298.128 912.186 298.475C911.999 298.819 911.737 299.094 911.399 299.298C911.063 299.5 910.668 299.599 910.214 299.594ZM910.214 298.87C910.49 298.87 910.738 298.801 910.958 298.663C911.18 298.524 911.354 298.339 911.481 298.106C911.611 297.874 911.676 297.615 911.676 297.329C911.676 297.051 911.613 296.797 911.488 296.569C911.365 296.338 911.195 296.155 910.978 296.019C910.763 295.883 910.517 295.815 910.24 295.815C910.032 295.815 909.838 295.857 909.658 295.94C909.478 296.021 909.32 296.133 909.184 296.276C909.05 296.419 908.944 296.582 908.868 296.766C908.791 296.949 908.752 297.141 908.752 297.342C908.752 297.61 908.815 297.86 908.94 298.093C909.067 298.326 909.241 298.513 909.46 298.656C909.682 298.799 909.933 298.87 910.214 298.87ZM916.67 295.769V296.493H913.721V295.769H916.67ZM920.17 292.668C920.447 292.67 920.723 292.723 921 292.826C921.276 292.929 921.529 293.1 921.757 293.34C921.985 293.577 922.169 293.9 922.307 294.311C922.445 294.721 922.514 295.236 922.514 295.855C922.514 296.454 922.457 296.986 922.343 297.451C922.231 297.914 922.069 298.305 921.856 298.623C921.645 298.941 921.388 299.183 921.085 299.347C920.785 299.512 920.445 299.594 920.065 299.594C919.688 299.594 919.351 299.52 919.054 299.37C918.76 299.219 918.519 299.009 918.33 298.742C918.144 298.472 918.024 298.159 917.971 297.803H918.775C918.847 298.113 918.991 298.368 919.206 298.57C919.423 298.77 919.709 298.87 920.065 298.87C920.585 298.87 920.995 298.643 921.296 298.188C921.599 297.734 921.75 297.092 921.75 296.263H921.698C921.575 296.447 921.429 296.606 921.26 296.74C921.091 296.874 920.903 296.977 920.697 297.049C920.491 297.122 920.271 297.158 920.039 297.158C919.652 297.158 919.298 297.063 918.975 296.872C918.655 296.679 918.398 296.414 918.205 296.078C918.014 295.74 917.919 295.354 917.919 294.92C917.919 294.507 918.011 294.13 918.195 293.787C918.382 293.443 918.643 293.168 918.979 292.964C919.317 292.76 919.714 292.661 920.17 292.668ZM920.17 293.392C919.894 293.392 919.645 293.461 919.423 293.6C919.204 293.736 919.029 293.92 918.9 294.153C918.772 294.383 918.709 294.639 918.709 294.92C918.709 295.201 918.77 295.456 918.893 295.687C919.018 295.915 919.188 296.097 919.403 296.233C919.621 296.367 919.867 296.434 920.144 296.434C920.352 296.434 920.547 296.393 920.727 296.312C920.907 296.229 921.064 296.116 921.197 295.973C921.333 295.828 921.44 295.665 921.517 295.483C921.594 295.298 921.632 295.106 921.632 294.906C921.632 294.643 921.568 294.396 921.441 294.166C921.316 293.935 921.143 293.749 920.921 293.606C920.701 293.464 920.451 293.392 920.17 293.392Z" fill="black"/>
<path d="M893.127 293.487H887.971C884.069 293.487 880.906 296.718 880.906 300.704V305.972C880.906 309.958 884.069 313.19 887.971 313.19H893.127C897.029 313.19 900.192 309.958 900.192 305.972V300.704C900.192 296.718 897.029 293.487 893.127 293.487Z" fill="#59C0AC"/>
<path d="M910.346 323.856V330.598H909.529V324.712H909.49L907.844 325.805V324.975L909.529 323.856H910.346ZM914.484 330.69C913.988 330.69 913.565 330.555 913.216 330.285C912.867 330.013 912.601 329.619 912.416 329.103C912.232 328.585 912.14 327.96 912.14 327.227C912.14 326.498 912.232 325.876 912.416 325.36C912.603 324.842 912.871 324.447 913.219 324.175C913.571 323.901 913.992 323.764 914.484 323.764C914.975 323.764 915.395 323.901 915.744 324.175C916.096 324.447 916.363 324.842 916.548 325.36C916.734 325.876 916.827 326.498 916.827 327.227C916.827 327.96 916.735 328.585 916.551 329.103C916.367 329.619 916.1 330.013 915.751 330.285C915.402 330.555 914.98 330.69 914.484 330.69ZM914.484 329.966C914.975 329.966 915.357 329.729 915.629 329.255C915.901 328.781 916.037 328.105 916.037 327.227C916.037 326.643 915.975 326.146 915.85 325.736C915.727 325.325 915.549 325.012 915.316 324.797C915.086 324.582 914.808 324.475 914.484 324.475C913.996 324.475 913.616 324.715 913.341 325.196C913.067 325.674 912.93 326.351 912.93 327.227C912.93 327.811 912.991 328.306 913.114 328.715C913.237 329.123 913.414 329.433 913.644 329.646C913.877 329.859 914.157 329.966 914.484 329.966ZM920.988 326.865V327.589H918.039V326.865H920.988ZM924.712 323.856V330.598H923.896V324.712H923.856L922.21 325.805V324.975L923.896 323.856H924.712ZM928.758 330.69C928.372 330.69 928.024 330.613 927.715 330.459C927.405 330.306 927.157 330.095 926.971 329.827C926.784 329.56 926.682 329.255 926.664 328.912H927.454C927.485 329.217 927.623 329.47 927.869 329.669C928.117 329.867 928.414 329.966 928.758 329.966C929.035 329.966 929.28 329.901 929.495 329.771C929.713 329.642 929.883 329.464 930.006 329.238C930.131 329.01 930.193 328.752 930.193 328.465C930.193 328.17 930.129 327.908 929.999 327.678C929.872 327.445 929.696 327.262 929.472 327.128C929.249 326.994 928.993 326.926 928.705 326.924C928.499 326.922 928.287 326.954 928.07 327.019C927.853 327.083 927.674 327.165 927.533 327.266L926.77 327.174L927.178 323.856H930.681V324.58H927.863L927.626 326.568H927.665C927.803 326.459 927.977 326.368 928.185 326.295C928.394 326.223 928.611 326.187 928.837 326.187C929.25 326.187 929.617 326.285 929.94 326.483C930.265 326.678 930.519 326.946 930.704 327.286C930.89 327.626 930.983 328.015 930.983 328.451C930.983 328.881 930.887 329.266 930.694 329.604C930.503 329.939 930.239 330.205 929.904 330.4C929.568 330.593 929.186 330.69 928.758 330.69Z" fill="black"/>
<path d="M893.127 324.581H887.971C884.069 324.581 880.906 327.813 880.906 331.799V337.066C880.906 341.052 884.069 344.284 887.971 344.284H893.127C897.029 344.284 900.192 341.052 900.192 337.066V331.799C900.192 327.813 897.029 324.581 893.127 324.581Z" fill="#243D72"/>
<path d="M1061.67 230.4H997.81C994.362 230.4 991.566 233.256 991.566 236.779V353.452C991.566 356.975 994.362 359.831 997.81 359.831H1061.67C1065.11 359.831 1067.91 356.975 1067.91 353.452V236.779C1067.91 233.256 1065.11 230.4 1061.67 230.4Z" fill="#3D89EC"/>
<path d="M1024.96 270.063V291.881H1022.32V272.833H1022.19L1016.86 276.369V273.685L1022.32 270.063H1024.96Z" fill="white"/>
<path d="M1010.48 239.313V242.949H1010.04V239.703H1008.21V242.949H1007.77V239.313H1010.48ZM1011.07 242.949V242.559H1011.17C1011.25 242.559 1011.32 242.543 1011.37 242.511C1011.43 242.478 1011.47 242.42 1011.51 242.338C1011.54 242.256 1011.57 242.141 1011.58 241.994C1011.6 241.846 1011.62 241.658 1011.62 241.429L1011.67 240.222H1013.49V242.949H1013.07V240.613H1012.07L1012.03 241.586C1012.02 241.809 1012 242.006 1011.97 242.177C1011.94 242.346 1011.89 242.488 1011.83 242.603C1011.77 242.718 1011.69 242.804 1011.59 242.862C1011.49 242.92 1011.36 242.949 1011.21 242.949H1011.07ZM1015.06 243.013C1014.89 243.013 1014.73 242.981 1014.59 242.915C1014.45 242.849 1014.34 242.754 1014.26 242.63C1014.17 242.504 1014.13 242.353 1014.13 242.175C1014.13 242.019 1014.16 241.892 1014.23 241.795C1014.29 241.697 1014.37 241.62 1014.47 241.564C1014.57 241.509 1014.69 241.467 1014.81 241.44C1014.94 241.412 1015.06 241.389 1015.19 241.373C1015.36 241.351 1015.49 241.335 1015.59 241.325C1015.7 241.313 1015.77 241.293 1015.82 241.266C1015.87 241.239 1015.89 241.191 1015.89 241.124V241.11C1015.89 240.935 1015.85 240.798 1015.75 240.701C1015.66 240.604 1015.51 240.556 1015.32 240.556C1015.12 240.556 1014.96 240.6 1014.85 240.687C1014.73 240.775 1014.65 240.868 1014.61 240.968L1014.21 240.826C1014.28 240.66 1014.38 240.531 1014.5 240.439C1014.61 240.345 1014.74 240.28 1014.89 240.243C1015.03 240.205 1015.17 240.186 1015.3 240.186C1015.39 240.186 1015.49 240.197 1015.61 240.218C1015.72 240.239 1015.83 240.281 1015.94 240.344C1016.05 240.408 1016.14 240.505 1016.21 240.634C1016.28 240.763 1016.31 240.936 1016.31 241.152V242.949H1015.89V242.58H1015.87C1015.84 242.639 1015.8 242.702 1015.73 242.77C1015.66 242.837 1015.58 242.895 1015.47 242.942C1015.36 242.989 1015.22 243.013 1015.06 243.013ZM1015.13 242.637C1015.29 242.637 1015.43 242.604 1015.55 242.539C1015.66 242.474 1015.75 242.39 1015.81 242.287C1015.86 242.184 1015.89 242.076 1015.89 241.962V241.578C1015.88 241.6 1015.84 241.619 1015.78 241.637C1015.72 241.654 1015.65 241.668 1015.57 241.681C1015.49 241.693 1015.42 241.704 1015.35 241.713C1015.27 241.722 1015.21 241.729 1015.17 241.735C1015.06 241.749 1014.96 241.772 1014.86 241.804C1014.77 241.835 1014.7 241.882 1014.64 241.944C1014.58 242.006 1014.55 242.09 1014.55 242.196C1014.55 242.342 1014.61 242.452 1014.71 242.527C1014.82 242.6 1014.96 242.637 1015.13 242.637ZM1016.71 240.613V240.222H1018.92V240.613H1018.03V242.949H1017.61V240.613H1016.71ZM1020.5 243.88V239.313H1020.92V243.88H1020.5ZM1020.5 243.006C1020.32 243.006 1020.15 242.973 1020 242.907C1019.84 242.839 1019.71 242.744 1019.61 242.621C1019.5 242.496 1019.41 242.348 1019.35 242.175C1019.29 242.002 1019.26 241.81 1019.26 241.6C1019.26 241.387 1019.29 241.194 1019.35 241.021C1019.41 240.847 1019.5 240.698 1019.61 240.574C1019.71 240.449 1019.84 240.354 1020 240.288C1020.15 240.22 1020.32 240.186 1020.5 240.186H1020.63V243.006H1020.5ZM1020.5 242.63H1020.57V240.563H1020.5C1020.36 240.563 1020.24 240.591 1020.14 240.648C1020.03 240.704 1019.95 240.78 1019.88 240.877C1019.81 240.973 1019.76 241.083 1019.73 241.207C1019.7 241.332 1019.68 241.462 1019.68 241.6C1019.68 241.782 1019.71 241.951 1019.77 242.108C1019.83 242.264 1019.92 242.39 1020.04 242.486C1020.16 242.582 1020.31 242.63 1020.5 242.63ZM1020.92 243.006H1020.79V240.186H1020.92C1021.1 240.186 1021.27 240.22 1021.42 240.288C1021.58 240.354 1021.71 240.449 1021.81 240.574C1021.92 240.698 1022.01 240.847 1022.07 241.021C1022.13 241.194 1022.16 241.387 1022.16 241.6C1022.16 241.81 1022.13 242.002 1022.07 242.175C1022.01 242.348 1021.92 242.496 1021.81 242.621C1021.71 242.744 1021.58 242.839 1021.42 242.907C1021.27 242.973 1021.1 243.006 1020.92 243.006ZM1020.92 242.63C1021.06 242.63 1021.18 242.602 1021.28 242.548C1021.39 242.492 1021.47 242.417 1021.54 242.321C1021.6 242.224 1021.65 242.114 1021.69 241.99C1021.72 241.866 1021.74 241.736 1021.74 241.6C1021.74 241.417 1021.71 241.248 1021.65 241.09C1021.59 240.933 1021.5 240.806 1021.38 240.708C1021.26 240.611 1021.11 240.563 1020.92 240.563H1020.85V242.63H1020.92ZM1023.9 243.006C1023.66 243.006 1023.44 242.947 1023.26 242.83C1023.07 242.713 1022.93 242.549 1022.82 242.338C1022.72 242.128 1022.67 241.882 1022.67 241.6C1022.67 241.316 1022.72 241.068 1022.82 240.856C1022.93 240.644 1023.07 240.479 1023.26 240.362C1023.44 240.245 1023.66 240.186 1023.9 240.186C1024.15 240.186 1024.37 240.245 1024.55 240.362C1024.74 240.479 1024.88 240.644 1024.98 240.856C1025.09 241.068 1025.14 241.316 1025.14 241.6C1025.14 241.882 1025.09 242.128 1024.98 242.338C1024.88 242.549 1024.74 242.713 1024.55 242.83C1024.37 242.947 1024.15 243.006 1023.9 243.006ZM1023.9 242.63C1024.09 242.63 1024.24 242.582 1024.37 242.486C1024.49 242.39 1024.58 242.264 1024.63 242.108C1024.69 241.951 1024.72 241.782 1024.72 241.6C1024.72 241.417 1024.69 241.248 1024.63 241.09C1024.58 240.933 1024.49 240.806 1024.37 240.708C1024.24 240.611 1024.09 240.563 1023.9 240.563C1023.72 240.563 1023.56 240.611 1023.44 240.708C1023.32 240.806 1023.23 240.933 1023.17 241.09C1023.12 241.248 1023.09 241.417 1023.09 241.6C1023.09 241.782 1023.12 241.951 1023.17 242.108C1023.23 242.264 1023.32 242.39 1023.44 242.486C1023.56 242.582 1023.72 242.63 1023.9 242.63ZM1025.78 243.972V240.222H1026.18V240.655H1026.23C1026.26 240.608 1026.31 240.547 1026.36 240.474C1026.42 240.4 1026.5 240.333 1026.6 240.275C1026.7 240.216 1026.84 240.186 1027.02 240.186C1027.25 240.186 1027.45 240.244 1027.63 240.359C1027.8 240.473 1027.94 240.636 1028.04 240.847C1028.14 241.058 1028.19 241.306 1028.19 241.593C1028.19 241.882 1028.14 242.132 1028.04 242.344C1027.94 242.554 1027.81 242.718 1027.63 242.834C1027.46 242.949 1027.26 243.006 1027.03 243.006C1026.85 243.006 1026.71 242.977 1026.61 242.919C1026.5 242.86 1026.42 242.793 1026.37 242.718C1026.31 242.643 1026.26 242.58 1026.23 242.53H1026.2V243.972H1025.78ZM1026.19 241.586C1026.19 241.792 1026.22 241.973 1026.28 242.131C1026.34 242.287 1026.43 242.409 1026.55 242.498C1026.66 242.586 1026.8 242.63 1026.97 242.63C1027.15 242.63 1027.29 242.583 1027.41 242.491C1027.53 242.398 1027.62 242.272 1027.68 242.115C1027.74 241.956 1027.77 241.78 1027.77 241.586C1027.77 241.394 1027.74 241.221 1027.68 241.067C1027.62 240.912 1027.53 240.79 1027.41 240.7C1027.3 240.608 1027.15 240.563 1026.97 240.563C1026.8 240.563 1026.66 240.606 1026.54 240.692C1026.43 240.778 1026.34 240.897 1026.28 241.051C1026.22 241.204 1026.19 241.382 1026.19 241.586ZM1030.32 242.381L1031.27 240.222H1031.67L1030.49 242.949H1030.15L1028.99 240.222H1029.38L1030.32 242.381ZM1029.25 240.222V242.949H1028.83V240.222H1029.25ZM1031.39 242.949V240.222H1031.81V242.949H1031.39ZM1033.38 243.013C1033.21 243.013 1033.05 242.981 1032.91 242.915C1032.77 242.849 1032.66 242.754 1032.57 242.63C1032.49 242.504 1032.45 242.353 1032.45 242.175C1032.45 242.019 1032.48 241.892 1032.54 241.795C1032.6 241.697 1032.68 241.62 1032.79 241.564C1032.89 241.509 1033 241.467 1033.13 241.44C1033.25 241.412 1033.38 241.389 1033.51 241.373C1033.67 241.351 1033.81 241.335 1033.91 241.325C1034.01 241.313 1034.09 241.293 1034.14 241.266C1034.19 241.239 1034.21 241.191 1034.21 241.124V241.11C1034.21 240.935 1034.16 240.798 1034.07 240.701C1033.97 240.604 1033.83 240.556 1033.63 240.556C1033.43 240.556 1033.28 240.6 1033.16 240.687C1033.05 240.775 1032.97 240.868 1032.92 240.968L1032.53 240.826C1032.6 240.66 1032.69 240.531 1032.81 240.439C1032.93 240.345 1033.06 240.28 1033.2 240.243C1033.34 240.205 1033.48 240.186 1033.62 240.186C1033.71 240.186 1033.81 240.197 1033.92 240.218C1034.04 240.239 1034.15 240.281 1034.25 240.344C1034.36 240.408 1034.45 240.505 1034.52 240.634C1034.59 240.763 1034.63 240.936 1034.63 241.152V242.949H1034.21V242.58H1034.19C1034.16 242.639 1034.11 242.702 1034.05 242.77C1033.98 242.837 1033.89 242.895 1033.78 242.942C1033.67 242.989 1033.54 243.013 1033.38 243.013ZM1033.44 242.637C1033.61 242.637 1033.75 242.604 1033.86 242.539C1033.98 242.474 1034.06 242.39 1034.12 242.287C1034.18 242.184 1034.21 242.076 1034.21 241.962V241.578C1034.19 241.6 1034.15 241.619 1034.09 241.637C1034.03 241.654 1033.96 241.668 1033.89 241.681C1033.81 241.693 1033.73 241.704 1033.66 241.713C1033.59 241.722 1033.53 241.729 1033.49 241.735C1033.38 241.749 1033.27 241.772 1033.18 241.804C1033.09 241.835 1033.01 241.882 1032.95 241.944C1032.9 242.006 1032.87 242.09 1032.87 242.196C1032.87 242.342 1032.92 242.452 1033.03 242.527C1033.14 242.6 1033.28 242.637 1033.44 242.637Z" fill="white"/>
<path d="M887.288 269.725H886.642L888.511 264.634H889.148L891.017 269.725H890.371L888.849 265.439H888.809L887.288 269.725ZM887.527 267.736H890.132V268.283H887.527V267.736Z" fill="white"/>
<path d="M887.538 300.799V295.708H889.318C889.673 295.708 889.965 295.769 890.195 295.892C890.426 296.013 890.597 296.176 890.71 296.382C890.823 296.585 890.879 296.812 890.879 297.06C890.879 297.279 890.84 297.46 890.762 297.602C890.686 297.745 890.585 297.857 890.459 297.94C890.335 298.023 890.2 298.084 890.054 298.124V298.174C890.21 298.184 890.366 298.238 890.524 298.338C890.681 298.437 890.813 298.58 890.919 298.765C891.025 298.951 891.078 299.178 891.078 299.447C891.078 299.702 891.02 299.931 890.904 300.135C890.788 300.339 890.605 300.501 890.355 300.62C890.104 300.739 889.779 300.799 889.378 300.799H887.538ZM888.155 300.252H889.378C889.78 300.252 890.066 300.174 890.235 300.018C890.406 299.861 890.491 299.67 890.491 299.447C890.491 299.274 890.447 299.115 890.359 298.969C890.272 298.822 890.147 298.704 889.984 298.616C889.822 298.527 889.629 298.482 889.407 298.482H888.155V300.252ZM888.155 297.945H889.298C889.484 297.945 889.651 297.909 889.8 297.836C889.951 297.763 890.07 297.66 890.158 297.528C890.248 297.395 890.292 297.239 890.292 297.06C890.292 296.836 890.214 296.647 890.059 296.491C889.903 296.334 889.656 296.255 889.318 296.255H888.155V297.945Z" fill="white"/>
<path d="M891.388 328.395H890.772C890.736 328.217 890.672 328.061 890.581 327.927C890.491 327.793 890.382 327.68 890.252 327.589C890.125 327.496 889.983 327.427 889.827 327.38C889.672 327.334 889.509 327.311 889.34 327.311C889.032 327.311 888.753 327.389 888.502 327.544C888.254 327.7 888.056 327.93 887.908 328.233C887.763 328.536 887.69 328.908 887.69 329.349C887.69 329.79 887.763 330.162 887.908 330.465C888.056 330.768 888.254 330.998 888.502 331.154C888.753 331.31 889.032 331.387 889.34 331.387C889.509 331.387 889.672 331.364 889.827 331.318C889.983 331.271 890.125 331.203 890.252 331.112C890.382 331.019 890.491 330.905 890.581 330.771C890.672 330.635 890.736 330.479 890.772 330.304H891.388C891.342 330.564 891.258 330.797 891.135 331.002C891.012 331.208 890.86 331.382 890.678 331.527C890.495 331.669 890.291 331.778 890.064 331.852C889.838 331.927 889.597 331.964 889.34 331.964C888.906 331.964 888.52 331.858 888.182 331.646C887.844 331.434 887.578 331.132 887.384 330.741C887.19 330.35 887.093 329.886 887.093 329.349C887.093 328.812 887.19 328.348 887.384 327.957C887.578 327.566 887.844 327.264 888.182 327.052C888.52 326.84 888.906 326.734 889.34 326.734C889.597 326.734 889.838 326.771 890.064 326.846C890.291 326.92 890.495 327.03 890.678 327.174C890.86 327.317 891.012 327.491 891.135 327.696C891.258 327.9 891.342 328.133 891.388 328.395Z" fill="white"/>
<path d="M221.676 77.5022C221.17 77.5022 220.684 77.2965 220.326 76.9307C219.968 76.5648 219.767 76.0688 219.767 75.5514C219.641 56.958 226.535 39.031 239.015 25.4963C244.964 18.9519 252.167 13.7257 260.175 10.1419C268.183 6.5581 276.826 4.69287 285.569 4.66211C286.091 4.66211 286.591 4.87395 286.96 5.25076C287.329 5.62757 287.536 6.13806 287.536 6.67094C287.536 7.20383 287.329 7.71528 286.96 8.09208C286.591 8.46889 286.091 8.68073 285.569 8.68073C251.427 8.68073 223.643 38.6435 223.643 75.4733C223.654 75.741 223.61 76.0084 223.515 76.2582C223.42 76.5079 223.276 76.7346 223.092 76.9249C222.907 77.1153 222.686 77.2648 222.443 77.364C222.199 77.4633 221.938 77.5104 221.676 77.5022Z" fill="#89898A"/>
<path d="M219.118 77.5012C218.611 77.5012 218.126 77.2955 217.768 76.9297C217.41 76.5639 217.208 76.0678 217.208 75.5505C217.208 38.7206 189.425 8.75788 155.282 8.75788C154.76 8.75788 154.26 8.54604 153.891 8.16923C153.522 7.79242 153.315 7.28098 153.315 6.74809C153.315 6.21521 153.522 5.70472 153.891 5.32791C154.26 4.9511 154.76 4.73926 155.282 4.73926C164.029 4.75203 172.68 6.60094 180.698 10.1714C188.716 13.7419 195.931 18.9579 201.894 25.4953C214.374 39.03 221.268 56.957 221.142 75.5505C221.142 75.8168 221.09 76.0812 220.986 76.3258C220.883 76.5705 220.732 76.7908 220.543 76.9735C220.353 77.1563 220.129 77.297 219.884 77.3879C219.639 77.4787 219.378 77.5172 219.118 77.5012Z" fill="#89898A"/>
<path d="M155.168 6.61121C155.168 7.4183 154.854 8.19222 154.295 8.76292C153.737 9.33362 152.979 9.65447 152.189 9.65447H149.917C149.127 9.65447 148.369 9.33362 147.81 8.76292C147.252 8.19222 146.938 7.4183 146.938 6.61121C146.938 6.21249 147.015 5.81727 147.165 5.44915C147.315 5.08103 147.535 4.74719 147.811 4.46616C148.088 4.18514 148.417 3.96259 148.778 3.81179C149.139 3.66099 149.526 3.58538 149.917 3.58795H152.189C152.579 3.58538 152.966 3.66099 153.328 3.81179C153.689 3.96259 154.017 4.18514 154.294 4.46616C154.571 4.74719 154.791 5.08103 154.941 5.44915C155.091 5.81727 155.168 6.21249 155.168 6.61121Z" fill="#5C5E60"/>
<path d="M98.9511 12.4645C98.9511 14.2396 100.23 16.0146 104.164 15.683L145.792 12.4645C148.714 12.3084 150.986 11.0211 150.986 9.24596V5.3445C150.986 3.54982 148.656 2.12598 145.792 2.12598H103.782C100.918 2.12598 98.8748 3.54982 98.8748 5.3445L98.9511 12.4645Z" fill="#FFF39E"/>
<path d="M98.7218 6.35899C98.7218 4.72411 99.3575 3.15635 100.489 2.00032C101.621 0.844285 103.156 0.194367 104.756 0.194367H145.238C146.031 0.191791 146.817 0.349364 147.55 0.658238C148.284 0.967111 148.95 1.42168 149.511 1.9946C150.071 2.56753 150.516 3.24772 150.818 3.99677C151.121 4.74582 151.275 5.54876 151.272 6.35899V7.25625H98.7218V6.35899Z" fill="#686B6D"/>
<path d="M97.4057 6.74881C97.4057 6.88333 97.4581 7.01279 97.5512 7.10791C97.6443 7.20303 97.7705 7.2565 97.9022 7.2565H152.095C152.161 7.25925 152.227 7.24768 152.288 7.22316C152.35 7.19865 152.405 7.16128 152.452 7.11362C152.499 7.06597 152.535 7.00972 152.559 6.94694C152.583 6.88415 152.594 6.81616 152.591 6.74881C152.592 6.6831 152.579 6.61879 152.553 6.55831C152.528 6.49784 152.491 6.44289 152.445 6.39734C152.399 6.35179 152.344 6.31589 152.284 6.29256C152.223 6.26923 152.159 6.2585 152.095 6.26113H97.8831C97.7547 6.26103 97.6312 6.31212 97.5386 6.40305C97.446 6.49399 97.3915 6.61771 97.3866 6.74881H97.4057Z" fill="#808385"/>
<path opacity="0.13" d="M152.093 6.26085H151.349C151.324 4.64293 150.677 3.10007 149.548 1.96505C148.419 0.830023 146.899 0.194133 145.315 0.194336H139.051C140.635 0.194133 142.156 0.830023 143.285 1.96505C144.414 3.10007 145.06 4.64293 145.085 6.26085H145.907C145.979 6.24621 146.053 6.24834 146.124 6.26656C146.195 6.28478 146.262 6.319 146.318 6.36658C146.375 6.41415 146.421 6.47404 146.452 6.54184C146.484 6.60963 146.5 6.68401 146.5 6.75901C146.5 6.83401 146.484 6.90743 146.452 6.97523C146.421 7.04303 146.375 7.10291 146.318 7.15049C146.262 7.19807 146.195 7.23228 146.124 7.2505C146.053 7.26872 145.979 7.27085 145.907 7.25622H144.799V9.20695C144.799 10.9821 142.527 12.2694 139.605 12.4255L101.261 15.3906C102.228 15.6748 103.241 15.7607 104.24 15.644L145.868 12.4255C148.79 12.2694 151.062 10.9821 151.062 9.20695V7.25622H152.17C152.242 7.27085 152.316 7.26872 152.387 7.2505C152.458 7.23228 152.525 7.19807 152.582 7.15049C152.638 7.10291 152.684 7.04303 152.715 6.97523C152.747 6.90743 152.763 6.83401 152.763 6.75901C152.763 6.68401 152.747 6.60963 152.715 6.54184C152.684 6.47404 152.638 6.41415 152.582 6.36658C152.525 6.319 152.458 6.28478 152.387 6.26656C152.316 6.24834 152.242 6.24621 152.17 6.26085H152.093Z" fill="black"/>
<path d="M292.349 6.61121C292.349 7.4183 292.035 8.19222 291.476 8.76292C290.918 9.33362 290.16 9.65447 289.37 9.65447H287.098C286.307 9.65447 285.55 9.33362 284.991 8.76292C284.432 8.19222 284.119 7.4183 284.119 6.61121C284.119 6.21249 284.196 5.81727 284.346 5.44915C284.496 5.08103 284.715 4.74719 284.992 4.46616C285.269 4.18514 285.598 3.96259 285.959 3.81179C286.32 3.66099 286.707 3.58538 287.098 3.58795H289.37C289.76 3.58538 290.147 3.66099 290.508 3.81179C290.87 3.96259 291.198 4.18514 291.475 4.46616C291.752 4.74719 291.972 5.08103 292.122 5.44915C292.272 5.81727 292.349 6.21249 292.349 6.61121Z" fill="#5C5E60"/>
<path d="M340.394 12.4645C340.394 14.2396 339.134 16.0146 335.2 15.683L293.572 12.4645C290.631 12.3084 288.378 11.0211 288.378 9.24596V5.3445C288.378 3.54982 290.708 2.12598 293.572 2.12598H335.582C338.446 2.12598 340.47 3.54982 340.47 5.3445L340.394 12.4645Z" fill="#FFF39E"/>
<path d="M340.567 6.35899C340.567 5.54783 340.41 4.74403 340.106 3.99487C339.801 3.2457 339.355 2.56536 338.793 1.9927C338.23 1.42003 337.563 0.966874 336.828 0.658238C336.094 0.349601 335.307 0.1918 334.513 0.194367H294.05C293.257 0.191791 292.471 0.349364 291.738 0.658238C291.005 0.967111 290.339 1.42168 289.778 1.9946C289.217 2.56753 288.773 3.24772 288.47 3.99677C288.168 4.74582 288.014 5.54876 288.016 6.35899V7.25625H340.567V6.35899Z" fill="#686B6D"/>
<path d="M341.863 6.74843C341.865 6.81409 341.855 6.88035 341.832 6.94178C341.809 7.00322 341.774 7.0592 341.73 7.10657C341.685 7.15394 341.632 7.19134 341.573 7.21706C341.513 7.24278 341.45 7.25616 341.385 7.25611H287.174C287.109 7.25616 287.046 7.24278 286.986 7.21706C286.927 7.19134 286.874 7.15394 286.829 7.10657C286.784 7.0592 286.75 7.00322 286.727 6.94178C286.704 6.88035 286.694 6.81409 286.696 6.74843C286.696 6.61908 286.747 6.49508 286.836 6.40362C286.926 6.31216 287.047 6.26074 287.174 6.26074H341.385C341.512 6.26074 341.633 6.31216 341.723 6.40362C341.812 6.49508 341.863 6.61908 341.863 6.74843Z" fill="#808385"/>
<path opacity="0.13" d="M341.384 6.26085H340.563C340.533 4.64117 339.882 3.09859 338.75 1.96409C337.618 0.829595 336.096 0.194046 334.51 0.194336H324.599C326.183 0.194133 327.704 0.830023 328.833 1.96505C329.962 3.10007 330.609 4.64293 330.634 6.26085H331.455C331.527 6.24621 331.601 6.24834 331.672 6.26656C331.743 6.28478 331.81 6.319 331.867 6.36658C331.923 6.41415 331.969 6.47404 332 6.54184C332.032 6.60963 332.048 6.68401 332.048 6.75901C332.048 6.83401 332.032 6.90743 332 6.97523C331.969 7.04303 331.923 7.10291 331.867 7.15049C331.81 7.19806 331.743 7.23228 331.672 7.2505C331.601 7.26872 331.527 7.27085 331.455 7.25622H330.404V12.4645C330.418 13.0331 330.27 13.5934 329.979 14.0781C329.687 14.5627 329.265 14.9507 328.762 15.1954L335.121 15.683C339.055 16.0147 340.315 14.2397 340.315 12.4645V7.31432H341.384C341.497 7.29142 341.598 7.22976 341.671 7.13906C341.744 7.04836 341.784 6.93445 341.784 6.81711C341.784 6.69978 341.744 6.58587 341.671 6.49516C341.598 6.40446 341.497 6.3428 341.384 6.3199V6.26085Z" fill="black"/>
<path d="M224.734 77.7959H216.084V386.557H224.734V77.7959Z" fill="#5D5F60"/>
<path d="M226.985 76.8382C226.985 77.2004 226.844 77.548 226.593 77.8041C226.342 78.0601 226.002 78.2041 225.648 78.2041H215.145C214.97 78.2041 214.796 78.168 214.634 78.0993C214.472 78.0307 214.324 77.9309 214.2 77.8041C214.076 77.6773 213.978 77.5268 213.911 77.3611C213.843 77.1955 213.809 77.0175 213.809 76.8382C213.809 76.6598 213.844 76.4827 213.911 76.3182C213.978 76.1536 214.077 76.0043 214.201 75.879C214.326 75.7538 214.473 75.656 214.635 75.5895C214.797 75.523 214.971 75.4897 215.145 75.4923H225.648C225.823 75.4897 225.996 75.523 226.158 75.5895C226.32 75.656 226.468 75.7538 226.592 75.879C226.716 76.0043 226.815 76.1536 226.882 76.3182C226.95 76.4827 226.985 76.6598 226.985 76.8382Z" fill="#494B4C"/>
<path d="M229.124 327.177H211.67L208.863 391.259H231.931L229.124 327.177Z" fill="#89898A"/>
<path d="M237.107 393.228C237.107 393.538 237.048 393.845 236.932 394.131C236.815 394.417 236.645 394.678 236.431 394.897C236.216 395.116 235.961 395.291 235.681 395.409C235.401 395.528 235.1 395.588 234.797 395.588H206.001C205.388 395.588 204.801 395.339 204.367 394.897C203.934 394.454 203.69 393.854 203.69 393.228C203.69 392.6 203.933 391.998 204.366 391.553C204.799 391.107 205.386 390.854 206.001 390.849H234.797C235.411 390.854 235.999 391.107 236.432 391.553C236.865 391.998 237.107 392.6 237.107 393.228Z" fill="#494B4C"/>
<path d="M232.983 325.206C232.983 325.517 232.923 325.826 232.805 326.113C232.688 326.401 232.516 326.663 232.3 326.882C232.083 327.101 231.826 327.275 231.544 327.392C231.261 327.51 230.959 327.568 230.654 327.566H210.145C209.53 327.566 208.941 327.318 208.504 326.876C208.068 326.434 207.82 325.833 207.815 325.206C207.815 324.574 208.061 323.97 208.498 323.523C208.935 323.077 209.527 322.826 210.145 322.826H230.654C231.271 322.826 231.864 323.077 232.301 323.523C232.738 323.97 232.983 324.574 232.983 325.206Z" fill="#494B4C"/>
<g opacity="0.16">
<path d="M234.776 390.907H231.893L229.124 327.625H230.652C231.231 327.572 231.769 327.299 232.161 326.861C232.553 326.422 232.771 325.849 232.771 325.256C232.771 324.662 232.553 324.089 232.161 323.651C231.769 323.212 231.231 322.938 230.652 322.885H224.713V78.2049H225.649C225.973 78.1651 226.272 78.0052 226.489 77.7554C226.706 77.5055 226.826 77.1825 226.826 76.8486C226.826 76.5146 226.706 76.1926 226.489 75.9427C226.272 75.6929 225.973 75.533 225.649 75.4932H219.004C219.328 75.533 219.627 75.6929 219.844 75.9427C220.061 76.1926 220.181 76.5146 220.181 76.8486C220.181 77.1825 220.061 77.5055 219.844 77.7554C219.627 78.0052 219.328 78.1651 219.004 78.2049H218.068V322.827H224.007C224.586 322.88 225.124 323.153 225.516 323.592C225.908 324.03 226.126 324.603 226.126 325.196C226.126 325.79 225.908 326.363 225.516 326.801C225.124 327.24 224.586 327.513 224.007 327.566H222.479L225.267 390.849H228.131C228.454 390.819 228.779 390.858 229.085 390.963C229.392 391.069 229.674 391.238 229.913 391.461C230.152 391.684 230.343 391.956 230.473 392.259C230.604 392.561 230.672 392.888 230.672 393.219C230.672 393.549 230.604 393.876 230.473 394.179C230.343 394.481 230.152 394.753 229.913 394.976C229.674 395.199 229.392 395.369 229.085 395.474C228.779 395.58 228.454 395.618 228.131 395.589H234.776C235.355 395.535 235.894 395.262 236.286 394.824C236.678 394.385 236.895 393.813 236.895 393.219C236.895 392.625 236.678 392.052 236.286 391.614C235.894 391.175 235.355 390.903 234.776 390.849V390.907Z" fill="black"/>
</g>
<path opacity="0.5" d="M329.413 417.358H113.692L192.308 112.575H248.83L329.413 417.358Z" fill="url(#paint0_linear_5_4080)"/>
<path d="M221.561 92.2888C237.697 92.2888 250.777 91.0746 250.777 89.577C250.777 88.0795 237.697 86.8662 221.561 86.8662C205.426 86.8662 192.345 88.0795 192.345 89.577C192.345 91.0746 205.426 92.2888 221.561 92.2888Z" fill="#182445"/>
<path d="M250.758 89.5771C250.758 91.0792 237.697 92.3089 221.561 92.3089C205.426 92.3089 192.345 91.0792 192.345 89.5771V116.127C192.345 117.629 205.426 118.858 221.561 118.858C237.697 118.858 250.758 117.629 250.758 116.127V89.5771Z" fill="#85B8F0"/>
<path d="M215.753 98.9629H214.604L217.926 89.9156H219.057L222.379 98.9629H221.231L218.527 91.3469H218.456L215.753 98.9629ZM216.177 95.4288H220.807V96.4007H216.177V95.4288Z" fill="white"/>
<defs>
<linearGradient id="paint0_linear_5_4080" x1="221.562" y1="139.944" x2="221.562" y2="405.556" gradientUnits="userSpaceOnUse">
<stop stop-color="#6BA9EF"/>
<stop offset="1" stop-color="#6BA9EF" stop-opacity="0"/>
</linearGradient>
</defs>
</svg>
