<svg width="78" height="79" viewBox="0 0 78 79" fill="none" xmlns="http://www.w3.org/2000/svg">
<path d="M38.9289 78.0973C59.8765 78.0973 76.8583 60.7494 76.8583 39.3499C76.8583 17.9504 59.8765 0.602539 38.9289 0.602539C17.9812 0.602539 1 17.9504 1 39.3499C1 60.7494 17.9812 78.0973 38.9289 78.0973Z" stroke="#3D89EC" stroke-width="0.81" stroke-miterlimit="10"/>
<path d="M24.4478 37.168L28.0154 42.6109L32.1228 37.5997" stroke="#3D89EC" stroke-width="0.78" stroke-linecap="round" stroke-linejoin="round"/>
<path d="M53.4124 42.8768L49.8447 37.4102L45.7373 42.4453" stroke="#3D89EC" stroke-width="0.78" stroke-linecap="round" stroke-linejoin="round"/>
<path d="M49.8639 37.4316C50.2809 40.2562 49.6434 43.1375 48.0784 45.5047C46.5133 47.8718 44.1347 49.5518 41.4141 50.2114C39.6108 50.6433 37.7296 50.5992 35.9475 50.0832C34.1655 49.5673 32.541 48.5965 31.2275 47.2623" stroke="#3D89EC" stroke-width="0.78" stroke-linecap="round" stroke-linejoin="round"/>
<path d="M28.0145 42.5393C27.6552 41.0512 27.5886 39.5052 27.8186 37.9906C28.0485 36.476 28.5705 35.0228 29.3542 33.7158C30.138 32.4089 31.168 31.2738 32.3844 30.3765C33.6008 29.4792 34.9798 28.8376 36.4408 28.4887C38.3643 28.0304 40.3734 28.1139 42.2541 28.7304C44.1348 29.3469 45.8162 30.4735 47.1196 31.9895" stroke="#3D89EC" stroke-width="0.78" stroke-linecap="round" stroke-linejoin="round"/>
<path d="M64.7925 36.4023C62.8909 36.0243 61.1772 34.9828 59.9442 33.4564C58.7111 31.9299 58.0356 30.0133 58.0331 28.0343C58.0388 26.6299 58.3769 25.2478 59.0187 24.0059C59.1802 23.7661 59.2669 23.4819 59.2669 23.1908C59.2669 22.8997 59.1802 22.6155 59.0187 22.3757C58.1066 21.2281 57.0929 20.1685 55.9909 19.2105C55.7678 19.0296 55.4976 18.9197 55.2139 18.8941C54.9302 18.8685 54.6457 18.9286 54.395 19.0668C53.2361 19.6666 51.9564 19.982 50.6572 19.9882C49.3581 19.9943 48.0751 19.6911 46.9108 19.1022C45.7465 18.5133 44.7328 17.6551 43.95 16.5959C43.1672 15.5367 42.6367 14.3056 42.4011 13.0005C41.2806 12.8474 40.1519 12.7673 39.0214 12.7607C38.0357 12.7607 37.0734 12.7606 36.1111 12.9285C35.7179 14.8514 34.6893 16.5777 33.1978 17.8176C31.7063 19.0575 29.8427 19.7357 27.9197 19.7382C26.5726 19.7367 25.2455 19.4079 24.0472 18.7791C23.8125 18.6141 23.534 18.5256 23.249 18.5256C22.9641 18.5256 22.6856 18.6141 22.4508 18.7791C21.3169 19.7328 20.2651 20.7834 19.3061 21.9199C19.1302 22.139 19.0223 22.407 18.9972 22.6891C18.9721 22.9713 19.0308 23.2547 19.1651 23.5025C19.9453 25.1067 20.2133 26.9205 19.9312 28.6884C19.6491 30.4563 18.8312 32.0891 17.5927 33.3571C16.4211 34.5934 14.9046 35.4307 13.2504 35.7549C13.0819 36.93 12.9959 38.1158 12.9925 39.3035C12.9874 40.2651 13.0419 41.2264 13.1564 42.1809C14.4218 42.4555 15.6078 43.0255 16.6215 43.8466C17.6351 44.6677 18.4493 45.7173 18.9995 46.9134C19.5497 48.1095 19.8214 49.4197 19.7931 50.741C19.7649 52.0622 19.4375 53.3586 18.8368 54.529C18.6763 54.7737 18.5904 55.0618 18.5904 55.3564C18.5904 55.651 18.6763 55.9388 18.8368 56.1836C19.7608 57.3277 20.7728 58.394 21.864 59.3724C22.0988 59.5374 22.3773 59.6259 22.6623 59.6259C22.9472 59.6259 23.2257 59.5374 23.4605 59.3724C24.625 58.7776 25.909 58.4684 27.2109 58.4689C28.5128 58.4694 29.7967 58.7796 30.9607 59.3754C32.1248 59.9711 33.137 60.8357 33.917 61.9007C34.6969 62.9657 35.2229 64.2018 35.4538 65.5107C36.6039 65.6847 37.7648 65.7728 38.9275 65.7745C39.8603 65.775 40.7929 65.7268 41.7209 65.6305C42.0918 63.6838 43.1145 61.9298 44.6136 60.6696C46.1126 59.4095 47.9945 58.7219 49.9358 58.725C51.3138 58.7274 52.6691 59.0819 53.8787 59.7561C54.1183 59.92 54.4001 60.0076 54.6884 60.0076C54.9768 60.0076 55.2585 59.92 55.4981 59.7561C56.6025 58.8197 57.6309 57.7932 58.5729 56.687C58.7589 56.4636 58.872 56.1868 58.8973 55.8947C58.9225 55.6026 58.8587 55.3099 58.7139 55.0567C57.906 53.4463 57.6181 51.6156 57.8922 49.8278C58.1663 48.04 58.988 46.387 60.2393 45.1061C61.4596 43.859 63.0235 43.0224 64.722 42.7083C64.8719 41.5637 64.9505 40.4103 64.957 39.2555C64.957 38.4882 64.8864 37.3854 64.7925 36.4023Z" stroke="#3D89EC" stroke-width="0.78" stroke-linecap="round" stroke-linejoin="round"/>
</svg>
