<svg width="81" height="83" viewBox="0 0 81 83" fill="none" xmlns="http://www.w3.org/2000/svg">
<path d="M40.6981 82.1084C62.6226 82.1084 80.3956 63.9513 80.3956 41.5539C80.3956 19.1565 62.6226 1 40.6981 1C18.7737 1 1 19.1565 1 41.5539C1 63.9513 18.7737 82.1084 40.6981 82.1084Z" stroke="#3D89EC" stroke-width="0.81" stroke-miterlimit="10"/>
<path d="M30.7227 26.1455H26.9887C25.0893 26.1455 23.5498 27.7182 23.5498 29.6586V60.7521C23.5498 62.6925 25.0893 64.2652 26.9887 64.2652H30.7227C32.6221 64.2652 34.1616 62.6925 34.1616 60.7521V29.6586C34.1616 27.7182 32.6221 26.1455 30.7227 26.1455Z" stroke="#3D89EC" stroke-width="0.89" stroke-miterlimit="10"/>
<path d="M23.5498 36.1553H34.1371" stroke="#3D89EC" stroke-width="0.89" stroke-miterlimit="10"/>
<path d="M23.5498 55.1543H34.1371" stroke="#3D89EC" stroke-width="0.89" stroke-miterlimit="10"/>
<path d="M41.3132 26.1455H37.5792C35.6798 26.1455 34.1396 27.7182 34.1396 29.6586V60.7521C34.1396 62.6925 35.6798 64.2652 37.5792 64.2652H41.3132C43.2126 64.2652 44.7521 62.6925 44.7521 60.7521V29.6586C44.7521 27.7182 43.2126 26.1455 41.3132 26.1455Z" stroke="#3D89EC" stroke-width="0.89" stroke-miterlimit="10"/>
<path d="M34.1396 36.1553H44.7521" stroke="#3D89EC" stroke-width="0.89" stroke-miterlimit="10"/>
<path d="M34.1396 55.1543H44.7521" stroke="#3D89EC" stroke-width="0.89" stroke-miterlimit="10"/>
<path d="M51.92 26.1455H48.186C46.2866 26.1455 44.7471 27.7182 44.7471 29.6586V60.7521C44.7471 62.6925 46.2866 64.2652 48.186 64.2652H51.92C53.8194 64.2652 55.3595 62.6925 55.3595 60.7521V29.6586C55.3595 27.7182 53.8194 26.1455 51.92 26.1455Z" stroke="#3D89EC" stroke-width="0.89" stroke-miterlimit="10"/>
<path d="M44.7471 36.1553H55.3595" stroke="#3D89EC" stroke-width="0.89" stroke-miterlimit="10"/>
<path d="M44.7471 55.1543H55.3595" stroke="#3D89EC" stroke-width="0.89" stroke-miterlimit="10"/>
<path d="M33.2032 18.6133H46.6158C47.5214 18.6133 48.39 18.9811 49.0304 19.6352C49.6707 20.2894 50.0302 21.1761 50.0302 22.1013V26.1168H29.7637V22.1013C29.7637 21.1761 30.1237 20.2894 30.764 19.6352C31.4044 18.9811 32.273 18.6133 33.1786 18.6133H33.2032Z" stroke="#3D89EC" stroke-width="0.89" stroke-miterlimit="10"/>
<path d="M39.4453 13.1196V18.6154" stroke="#3D89EC" stroke-width="0.89" stroke-miterlimit="10"/>
<path d="M39.9602 49.3829C43.9354 49.3829 47.1577 46.0911 47.1577 42.0301C47.1577 37.9692 43.9354 34.6768 39.9602 34.6768C35.985 34.6768 32.7627 37.9692 32.7627 42.0301C32.7627 46.0911 35.985 49.3829 39.9602 49.3829Z" fill="white" stroke="#3D89EC" stroke-width="0.89" stroke-miterlimit="10"/>
<path d="M39.959 38.4922V42.5579H43.6438" fill="white"/>
<path d="M39.959 38.4922V42.5579H43.6438" stroke="#3D89EC" stroke-width="0.55" stroke-linecap="round" stroke-linejoin="round"/>
</svg>
