<svg width="81" height="83" viewBox="0 0 81 83" fill="none" xmlns="http://www.w3.org/2000/svg">
<path d="M40.4559 82.1084C62.3804 82.1084 80.1535 63.9513 80.1535 41.5539C80.1535 19.1565 62.3804 1 40.4559 1C18.5315 1 0.757812 19.1565 0.757812 41.5539C0.757812 63.9513 18.5315 82.1084 40.4559 82.1084Z" stroke="#3D89EC" stroke-width="0.81" stroke-miterlimit="10"/>
<path d="M27.4355 24.3379H24.2173C22.5892 24.3379 21.2695 25.686 21.2695 27.3492V54.0755C21.2695 55.7387 22.5892 57.0875 24.2173 57.0875H27.4355C29.0635 57.0875 30.3832 55.7387 30.3832 54.0755V27.3492C30.3832 25.686 29.0635 24.3379 27.4355 24.3379Z" stroke="#3D89EC" stroke-width="0.77" stroke-miterlimit="10"/>
<path d="M21.2695 32.9443H30.3832" stroke="#3D89EC" stroke-width="0.77" stroke-miterlimit="10"/>
<path d="M21.2695 49.2582H30.3832" stroke="#3D89EC" stroke-width="0.77" stroke-miterlimit="10"/>
<path d="M36.5507 24.3379H33.3325C31.7044 24.3379 30.3848 25.686 30.3848 27.3492V54.0755C30.3848 55.7387 31.7044 57.0875 33.3325 57.0875H36.5507C38.1788 57.0875 39.4984 55.7387 39.4984 54.0755V27.3492C39.4984 25.686 38.1788 24.3379 36.5507 24.3379Z" stroke="#3D89EC" stroke-width="0.77" stroke-miterlimit="10"/>
<path d="M30.3848 32.9443H39.4739" stroke="#3D89EC" stroke-width="0.77" stroke-miterlimit="10"/>
<path d="M30.3848 49.2582H39.4739" stroke="#3D89EC" stroke-width="0.77" stroke-miterlimit="10"/>
<path d="M45.6386 24.3379H42.421C40.7929 24.3379 39.4727 25.686 39.4727 27.3492V54.0755C39.4727 55.7387 40.7929 57.0875 42.421 57.0875H45.6386C47.2667 57.0875 48.5869 55.7387 48.5869 54.0755V27.3492C48.5869 25.686 47.2667 24.3379 45.6386 24.3379Z" stroke="#3D89EC" stroke-width="0.77" stroke-miterlimit="10"/>
<path d="M39.4727 32.9443H48.5869" stroke="#3D89EC" stroke-width="0.77" stroke-miterlimit="10"/>
<path d="M39.4727 49.2582H48.5869" stroke="#3D89EC" stroke-width="0.77" stroke-miterlimit="10"/>
<path d="M29.5772 17.9895H41.0983C41.8801 17.9895 42.6296 18.307 43.1824 18.8718C43.7352 19.4365 44.046 20.2021 44.046 21.0008V24.4392H26.6289V21.0008C26.6289 20.2021 26.9397 19.4365 27.4925 18.8718C28.0454 18.307 28.7954 17.9895 29.5772 17.9895Z" stroke="#3D89EC" stroke-width="0.77" stroke-miterlimit="10"/>
<path d="M34.9287 13.1733V17.891" stroke="#3D89EC" stroke-width="0.77" stroke-miterlimit="10"/>
<path d="M35.371 44.291C38.7764 44.291 41.537 41.4709 41.537 37.9921C41.537 34.5133 38.7764 31.6931 35.371 31.6931C31.9657 31.6931 29.2051 34.5133 29.2051 37.9921C29.2051 41.4709 31.9657 44.291 35.371 44.291Z" fill="white" stroke="#3D89EC" stroke-width="0.77" stroke-miterlimit="10"/>
<path d="M35.3701 34.9558V38.4689H38.5392" fill="white"/>
<path d="M35.3701 34.9558V38.4689H38.5392" stroke="#3D89EC" stroke-width="0.47" stroke-linecap="round" stroke-linejoin="round"/>
<path d="M51.0448 71.0412C59.5242 71.0412 66.3982 64.019 66.3982 55.3566C66.3982 46.6942 59.5242 39.672 51.0448 39.672C42.5654 39.672 35.6914 46.6942 35.6914 55.3566C35.6914 64.019 42.5654 71.0412 51.0448 71.0412Z" fill="white"/>
<path fill-rule="evenodd" clip-rule="evenodd" d="M51.6846 44.7367C50.303 44.7334 48.9338 45.0093 47.6567 45.5479C46.3797 46.0865 45.2194 46.8774 44.2424 47.8754C43.2654 48.8735 42.4912 50.0588 41.964 51.3634C41.4368 52.6681 41.1673 54.0661 41.1705 55.4776C41.219 57.3918 41.7955 59.2532 42.8342 60.8471C43.8729 62.441 45.3314 63.7028 47.0414 64.487V61.1994C47.0414 60.9465 47.1398 60.7043 47.3149 60.5254C47.49 60.3466 47.7276 60.2461 47.9752 60.2461C48.2228 60.2461 48.4599 60.3466 48.6349 60.5254C48.81 60.7043 48.9084 60.9465 48.9084 61.1994V66.8961C48.9084 67.149 48.81 67.3918 48.6349 67.5707C48.4599 67.7495 48.2228 67.85 47.9752 67.85H42.3988C42.1512 67.85 41.9136 67.7495 41.7385 67.5707C41.5634 67.3918 41.465 67.149 41.465 66.8961C41.465 66.6432 41.5634 66.4004 41.7385 66.2215C41.9136 66.0427 42.1512 65.9428 42.3988 65.9428H45.764C43.8556 64.9682 42.2462 63.4762 41.1112 61.6307C39.9761 59.7852 39.3595 57.6568 39.3281 55.4776C39.3281 52.1264 40.631 48.9125 42.9506 46.5429C45.2701 44.1733 48.4162 42.8423 51.6966 42.8423C54.977 42.8423 58.1231 44.1733 60.4426 46.5429C62.7622 48.9125 64.0651 52.1264 64.0651 55.4776C64.0861 57.1463 63.7776 58.8022 63.1571 60.3459C62.5366 61.8897 61.6169 63.2898 60.454 64.4619C59.2899 65.6162 57.9234 66.5359 56.4256 67.1724C56.3112 67.2214 56.1886 67.2466 56.0645 67.2465C55.9405 67.2465 55.8172 67.2209 55.7029 67.1718C55.5885 67.1227 55.4851 67.0509 55.3982 66.9604C55.3113 66.87 55.2431 66.7626 55.1973 66.6449C55.1145 66.4113 55.1213 66.1546 55.2171 65.9262C55.3129 65.6979 55.4904 65.515 55.7131 65.4152C56.9948 64.88 58.1625 64.0961 59.152 63.1067C60.13 62.1248 60.906 60.9528 61.4334 59.6597C61.9608 58.3667 62.2288 56.9788 62.2227 55.5781C62.239 54.1561 61.9785 52.7451 61.4556 51.4272C60.9327 50.1092 60.1581 48.9108 59.1772 47.9018C58.1963 46.8927 57.0289 46.0931 55.7425 45.5497C54.4561 45.0064 53.0766 44.7299 51.6846 44.7367ZM51.5617 48.702C51.805 48.7019 52.0386 48.7987 52.213 48.9721C52.3874 49.1456 52.4885 49.3822 52.4949 49.6308V54.9507L55.9344 58.4889C56.0213 58.5754 56.0899 58.6792 56.1371 58.7934C56.1843 58.9076 56.2091 59.0303 56.2091 59.1543C56.2091 59.2782 56.1843 59.4009 56.1371 59.5151C56.0899 59.6294 56.0213 59.7325 55.9344 59.819C55.8476 59.9086 55.7442 59.9801 55.6303 60.0286C55.5165 60.0771 55.3944 60.1021 55.2711 60.1021C55.1477 60.1021 55.0257 60.0771 54.9118 60.0286C54.798 59.9801 54.6945 59.9086 54.6078 59.819L50.8983 56.0296C50.728 55.8465 50.6313 55.6045 50.6279 55.352V49.6308C50.6343 49.3822 50.7354 49.1456 50.9097 48.9721C51.0841 48.7987 51.3183 48.7019 51.5617 48.702Z" fill="#3D89EC"/>
</svg>
