<svg width="42" height="43" viewBox="0 0 42 43" fill="none" xmlns="http://www.w3.org/2000/svg">
<path d="M20.6888 42.0178C31.7677 42.0178 40.7489 32.8434 40.7489 21.5255C40.7489 10.2077 31.7677 1.03223 20.6888 1.03223C9.61001 1.03223 0.628906 10.2077 0.628906 21.5255C0.628906 32.8434 9.61001 42.0178 20.6888 42.0178Z" stroke="#3D89EC" stroke-width="1.01" stroke-miterlimit="10"/>
<path d="M16.5986 31.169C16.5109 31.1659 16.4252 31.142 16.3486 31.0982C16.2678 31.0529 16.2002 30.9864 16.1527 30.9056C16.1053 30.8248 16.0797 30.7325 16.0786 30.6383V27.5735H13.8887C13.3582 27.5735 12.8496 27.3581 12.4745 26.975C12.0994 26.5918 11.8887 26.0723 11.8887 25.5304V16.4689C11.8887 15.9271 12.0994 15.4075 12.4745 15.0244C12.8496 14.6412 13.3582 14.4258 13.8887 14.4258H27.4886C28.0191 14.4258 28.5278 14.6412 28.9028 15.0244C29.2779 15.4075 29.4886 15.9271 29.4886 16.4689V25.5304C29.4886 26.0723 29.2779 26.5918 28.9028 26.975C28.5278 27.3581 28.0191 27.5735 27.4886 27.5735H22.2487L16.8687 31.0363C16.793 31.1062 16.6993 31.1522 16.5986 31.169ZM13.8887 15.5292C13.6235 15.5292 13.3691 15.6369 13.1815 15.8284C12.994 16.02 12.8887 16.2798 12.8887 16.5507V25.6122C12.8887 25.8831 12.994 26.1429 13.1815 26.3345C13.3691 26.5261 13.6235 26.6338 13.8887 26.6338H16.5986C16.7339 26.6338 16.8636 26.6887 16.9592 26.7864C17.0549 26.8841 17.1086 27.0164 17.1086 27.1545V29.7494L21.8286 26.6846C21.9098 26.633 22.0031 26.6047 22.0986 26.6028H27.4886C27.7539 26.6028 28.0083 26.4951 28.1958 26.3036C28.3833 26.112 28.4886 25.8522 28.4886 25.5813V16.5198C28.4886 16.2489 28.3833 15.9891 28.1958 15.7975C28.0083 15.6059 27.7539 15.4982 27.4886 15.4982L13.8887 15.5292Z" fill="#3D89EC"/>
<path d="M21.2799 19.8614C21.3587 19.8614 21.4367 19.8765 21.5095 19.9073C21.5823 19.9381 21.6484 19.9841 21.7041 20.041C21.7598 20.0979 21.8041 20.1652 21.8342 20.2395C21.8644 20.3139 21.8799 20.3935 21.8799 20.474V24.5603C21.8609 24.7105 21.7891 24.8483 21.6777 24.9483C21.5664 25.0484 21.4232 25.104 21.2749 25.104C21.1266 25.104 20.9834 25.0484 20.8721 24.9483C20.7607 24.8483 20.6889 24.7105 20.6699 24.5603V20.474C20.6699 20.3926 20.6857 20.3126 20.7164 20.2375C20.7472 20.1625 20.7923 20.0941 20.8491 20.037C20.9059 19.9799 20.9733 19.9345 21.0472 19.9043C21.1212 19.8741 21.2003 19.8601 21.2799 19.8614Z" fill="#3D89EC"/>
<path d="M21.2786 18.4203C21.4907 18.4203 21.6942 18.3341 21.8442 18.1808C21.9943 18.0276 22.0785 17.82 22.0785 17.6032C22.0785 17.3865 21.9943 17.1779 21.8442 17.0246C21.6942 16.8713 21.4907 16.7852 21.2786 16.7852C21.0664 16.7852 20.8629 16.8713 20.7129 17.0246C20.5629 17.1779 20.4785 17.3865 20.4785 17.6032C20.4785 17.82 20.5629 18.0276 20.7129 18.1808C20.8629 18.3341 21.0664 18.4203 21.2786 18.4203Z" fill="#3D89EC"/>
</svg>
