<svg width="42" height="43" viewBox="0 0 42 43" fill="none" xmlns="http://www.w3.org/2000/svg">
<path d="M21.2396 42.0178C32.3185 42.0178 41.2997 32.8434 41.2997 21.5255C41.2997 10.2077 32.3185 1.03223 21.2396 1.03223C10.1608 1.03223 1.17969 10.2077 1.17969 21.5255C1.17969 32.8434 10.1608 42.0178 21.2396 42.0178Z" stroke="#3D89EC" stroke-width="1.01" stroke-miterlimit="10"/>
<path fill-rule="evenodd" clip-rule="evenodd" d="M22.5592 17.4297V22.2003C22.5592 22.3792 22.4897 22.5508 22.3659 22.6772C22.2421 22.8037 22.0743 22.8737 21.8992 22.8737C21.7242 22.8737 21.5563 22.8037 21.4325 22.6772C21.3088 22.5508 21.2392 22.3792 21.2392 22.2003V17.4297C21.2392 17.2509 21.3088 17.0793 21.4325 16.9528C21.5563 16.8264 21.7242 16.7553 21.8992 16.7553C22.0743 16.7553 22.2421 16.8264 22.3659 16.9528C22.4897 17.0793 22.5592 17.2509 22.5592 17.4297ZM22.3692 24.7842C22.4919 24.9105 22.5608 25.0821 22.5608 25.2601C22.5608 25.438 22.4919 25.6086 22.3692 25.7349C22.2429 25.8591 22.0745 25.9281 21.8992 25.9285C21.7243 25.926 21.5567 25.8574 21.4292 25.7349C21.3065 25.6086 21.2376 25.438 21.2376 25.2601C21.2376 25.0821 21.3065 24.9105 21.4292 24.7842C21.5558 24.6606 21.7241 24.5917 21.8992 24.5917C22.0743 24.5917 22.2426 24.6606 22.3692 24.7842ZM30.0892 28.2579H13.7091C12.9791 28.2579 12.7092 27.7373 13.0492 27.0937L21.2392 12.5972C21.2874 12.4577 21.3768 12.3374 21.495 12.252C21.6132 12.1666 21.7544 12.1203 21.8992 12.1203C22.044 12.1203 22.1852 12.1666 22.3034 12.252C22.4216 12.3374 22.511 12.4577 22.5592 12.5972L30.7492 27.0937C31.1092 27.7373 30.8192 28.2579 30.0892 28.2579ZM31.8892 26.4193L23.6991 11.9228C23.5354 11.5773 23.2797 11.2866 22.9613 11.0828C22.643 10.8789 22.2749 10.7705 21.8992 10.7705C21.5235 10.7705 21.1553 10.8789 20.837 11.0828C20.5186 11.2866 20.2629 11.5773 20.0992 11.9228L11.9092 26.4193C11.6976 26.7369 11.5779 27.1088 11.5639 27.4928C11.5499 27.8767 11.6422 28.2574 11.8301 28.5902C12.0181 28.923 12.2941 29.1945 12.6265 29.3743C12.9589 29.5541 13.3341 29.6349 13.7091 29.6067H30.0892C30.4642 29.6349 30.8395 29.5541 31.1719 29.3743C31.5043 29.1945 31.7802 28.923 31.9682 28.5902C32.1561 28.2574 32.2484 27.8767 32.2344 27.4928C32.2204 27.1088 32.1008 26.7369 31.8892 26.4193Z" fill="#3D89EC"/>
</svg>
