<svg width="42" height="43" viewBox="0 0 42 43" fill="none" xmlns="http://www.w3.org/2000/svg">
<path d="M21.0386 41.7034C32.1174 41.7034 41.0985 32.5289 41.0985 21.2111C41.0985 9.89324 32.1174 0.717773 21.0386 0.717773C9.95974 0.717773 0.978516 9.89324 0.978516 21.2111C0.978516 32.5289 9.95974 41.7034 21.0386 41.7034Z" stroke="#3D89EC" stroke-width="1.01" stroke-miterlimit="10"/>
<path d="M27.2687 22.7932C26.8608 24.0579 26.0731 25.1594 25.0175 25.9407C23.9619 26.7219 22.6922 27.143 21.3887 27.1448H20.9787H20.8787C20.6811 27.1449 20.4849 27.1107 20.2987 27.0431C19.987 27.016 19.6823 26.9328 19.3987 26.7976C18.3766 26.485 17.466 25.8746 16.7787 25.0408C16.571 24.8422 16.3955 24.6112 16.2587 24.3564C15.6264 23.4058 15.2789 22.2872 15.2587 21.1381C15.2194 20.7045 15.2429 20.2668 15.3286 19.8402C15.53 18.5197 16.1378 17.2995 17.0637 16.3555C17.9897 15.4114 19.1857 14.7928 20.4787 14.5897C20.8929 14.502 21.3175 14.4776 21.7387 14.5178C22.8696 14.5571 23.9646 14.9341 24.8887 15.6012C25.1456 15.7381 25.376 15.9219 25.5686 16.143C26.3805 16.8489 26.9775 17.7769 27.2887 18.8186C27.4213 19.1112 27.4992 19.4266 27.5187 19.7484C27.7086 20.7675 27.6221 21.8206 27.2687 22.7932Z" stroke="#3D89EC" stroke-width="0.25" stroke-miterlimit="10"/>
<path d="M32.3196 19.8211L31.8896 19.055L31.7596 18.9322L31.4197 18.605C31.1416 18.3562 30.9365 18.0339 30.827 17.6732C30.7176 17.3126 30.7081 16.9277 30.7997 16.5619C30.8533 16.2893 30.8834 16.0128 30.8896 15.7348C30.8636 15.4291 30.8031 15.1276 30.7096 14.836C30.5363 14.4054 30.2641 14.0231 29.916 13.7226C29.5679 13.4221 29.1541 13.2118 28.7096 13.1091H28.5996C28.3102 13.107 28.0244 13.0447 27.7596 12.9255C27.5028 12.8435 27.2668 12.7048 27.0681 12.5195C26.8694 12.3342 26.7129 12.1069 26.6096 11.8531C26.4007 11.3708 26.0899 10.9412 25.6996 10.5961C25.3108 10.3337 24.8815 10.1407 24.4297 10.0244H23.6096C23.2226 10.1403 22.8475 10.2945 22.4896 10.4843L22.2296 10.607C21.9812 10.7278 21.7097 10.7896 21.4347 10.7896C21.1596 10.7896 20.888 10.7278 20.6396 10.607L20.4896 10.5252C20.0822 10.3109 19.6529 10.1428 19.2096 10.0244H18.3796C18.3501 10.0507 18.3163 10.0711 18.2797 10.0853C17.8302 10.2006 17.4143 10.424 17.0664 10.7367C16.7185 11.0495 16.4488 11.4433 16.2797 11.884C16.1367 12.2015 15.9163 12.4754 15.6396 12.6811C15.363 12.8868 15.0393 13.0168 14.6996 13.0582H14.4696H14.1597C13.7963 13.1335 13.4518 13.2834 13.1471 13.4992C12.8424 13.7149 12.5839 13.992 12.3874 14.3132C12.1909 14.6344 12.0605 14.9934 12.0041 15.3677C11.9478 15.7421 11.9667 16.1244 12.0597 16.491C12.161 16.8564 12.1563 17.2437 12.0463 17.6064C11.9362 17.9691 11.7254 18.2915 11.4396 18.5342C10.9832 18.9242 10.6379 19.4317 10.4396 20.0047C10.3665 20.3859 10.3665 20.7778 10.4396 21.159C10.5573 21.8335 10.9131 22.4414 11.4396 22.8659C11.7053 23.0805 11.9064 23.3669 12.0196 23.6929C12.1765 24.0555 12.2185 24.459 12.1396 24.8472C11.9915 25.3677 11.9929 25.9206 12.1435 26.4404C12.2942 26.9602 12.5879 27.425 12.9896 27.7792H13.0497L13.1896 27.881C13.5632 28.0613 13.9473 28.2182 14.3396 28.3509C14.7527 28.3453 15.1592 28.4586 15.5127 28.6771C15.8662 28.8956 16.1527 29.2105 16.3396 29.5869C16.3435 29.6277 16.3435 29.6689 16.3396 29.7096L16.7396 30.384C17.0028 30.7023 17.3304 30.9589 17.6998 31.1352C18.0693 31.3116 18.4718 31.4035 18.8796 31.4056C18.9528 31.4124 19.0264 31.4124 19.0996 31.4056C19.3761 31.3625 19.6475 31.2907 19.9097 31.1911L20.2496 31.0175C20.6111 30.775 21.0375 30.6538 21.4696 30.6703H21.6096C21.9946 30.6959 22.3666 30.8229 22.6896 31.0385L23.0397 31.2121L23.3496 31.3447C23.5025 31.4059 23.6654 31.4369 23.8296 31.4365H24.0497C24.4993 31.4184 24.9396 31.3 25.3396 31.0894C25.8767 30.8147 26.3017 30.3548 26.5397 29.7914C26.7178 29.3449 27.0244 28.9645 27.4191 28.7C27.8137 28.4355 28.2777 28.2991 28.7496 28.31C29.1064 28.2325 29.4457 28.087 29.7496 27.881C30.2884 27.5077 30.6841 26.9561 30.8696 26.3187C30.933 25.9513 30.9532 25.5766 30.9297 25.2043C30.7724 24.7734 30.7535 24.3032 30.8757 23.8605C30.998 23.4179 31.2551 23.0266 31.6096 22.7432C31.7614 22.6085 31.8989 22.4574 32.0196 22.2933C32.2545 21.9335 32.404 21.5223 32.456 21.0931C32.5081 20.6639 32.4613 20.2286 32.3196 19.8211ZM31.0896 22.4469C30.7616 22.7257 30.5041 23.0806 30.3387 23.4824C30.1734 23.8843 30.1051 24.321 30.1396 24.7554C30.1538 24.9342 30.1805 25.1113 30.2196 25.2861C30.28 25.5827 30.2784 25.8892 30.2146 26.185C30.1508 26.4808 30.0264 26.7599 29.8496 27.0031C29.6877 27.2375 29.4777 27.4328 29.2341 27.5757C28.9906 27.7186 28.7194 27.8053 28.4396 27.8301C27.8852 27.8589 27.3504 28.0485 26.8972 28.3758C26.444 28.7032 26.0911 29.1554 25.8796 29.6797C25.769 29.9415 25.6059 30.1765 25.401 30.3701C25.196 30.5636 24.9537 30.7109 24.6896 30.803C24.4142 30.8994 24.1227 30.9378 23.8324 30.9168C23.5421 30.8957 23.2589 30.8155 22.9996 30.6803L22.4996 30.4249L22.2496 30.3022C22.0356 30.2478 21.8185 30.2068 21.5996 30.1795H21.3796C20.7888 30.2451 20.2171 30.4328 19.6996 30.7312C19.4156 30.8709 19.1048 30.9442 18.7897 30.9457C18.4421 30.9524 18.0988 30.8665 17.7937 30.6963C17.4886 30.5261 17.2321 30.2783 17.0497 29.976C16.9365 29.8271 16.8455 29.6613 16.7797 29.4852C16.747 29.4083 16.7103 29.3335 16.6697 29.2607C16.4194 28.8409 16.0707 28.491 15.6553 28.2431C15.2398 27.9952 14.7705 27.8565 14.2897 27.8401C13.9177 27.8119 13.5656 27.6575 13.2897 27.4011C12.9778 27.177 12.7387 26.8624 12.6033 26.4983C12.4678 26.1341 12.4422 25.7371 12.5297 25.358C12.6301 24.8489 12.6301 24.3247 12.5297 23.8156L12.2696 23.1722C12.0501 22.8598 11.795 22.5751 11.5096 22.3242C11.1792 22.0044 10.9655 21.5787 10.9037 21.118C10.8419 20.6574 10.9357 20.189 11.1697 19.7902C11.2645 19.5605 11.4161 19.3605 11.6096 19.2086C11.9057 18.9573 12.1474 18.6455 12.3196 18.2938C12.4917 17.9421 12.5905 17.5582 12.6096 17.1654C12.5976 16.853 12.5608 16.542 12.4996 16.2357C12.4468 15.948 12.4534 15.6517 12.5188 15.3667C12.5842 15.0818 12.7071 14.8143 12.8796 14.5806C13.0436 14.3538 13.2517 14.1636 13.491 14.0229C13.7302 13.8823 13.9953 13.7944 14.2696 13.7635C14.8286 13.7376 15.3686 13.5483 15.8258 13.2188C16.283 12.8893 16.6382 12.4332 16.8496 11.9039C17.0341 11.498 17.3393 11.1615 17.7218 10.9432C18.1043 10.7249 18.5445 10.6355 18.9796 10.6878C19.3396 10.7066 19.6867 10.8313 19.9796 11.046C20.4258 11.3034 20.932 11.4327 21.4443 11.4201C21.9566 11.4075 22.456 11.2532 22.8896 10.9742C23.0866 10.8687 23.2946 10.7863 23.5096 10.7287C23.6704 10.6872 23.8388 10.6872 23.9996 10.7287H24.1996C24.5666 10.7166 24.9243 10.8485 25.1996 11.0969C25.4919 11.2871 25.7191 11.5659 25.8496 11.894C26.0917 12.4874 26.5029 12.9927 27.0297 13.3445L27.7296 13.6408H27.9297L28.4796 13.7226C28.9578 13.8014 29.3939 14.0486 29.7118 14.422C30.0297 14.7953 30.2094 15.271 30.2196 15.7658C30.2435 16.0126 30.2232 16.2616 30.1597 16.501C30.1175 16.668 30.0939 16.8394 30.0896 17.0118C30.0883 17.4385 30.1822 17.8598 30.3641 18.2439C30.5461 18.628 30.8113 18.9648 31.1396 19.2285C31.2619 19.3234 31.3612 19.4453 31.4297 19.5857C31.6613 19.8752 31.7946 20.2337 31.8097 20.6073C31.8557 20.9542 31.8136 21.3082 31.6875 21.6338C31.5614 21.9594 31.3555 22.2459 31.0896 22.4668V22.4469Z" fill="#3D89EC" stroke="#3D89EC" stroke-width="0.25" stroke-miterlimit="10"/>
<path d="M27.9992 18.9117L27.6793 18.0128C27.283 17.1531 26.7412 16.3708 26.0792 15.7033L25.3892 15.1317C24.5662 14.5626 23.6422 14.1631 22.6692 13.9565L21.6692 13.8447H21.3992C20.4804 13.8468 19.5713 14.0375 18.7264 14.4064C17.8814 14.7753 17.1179 15.3147 16.4814 15.9916C15.8448 16.6686 15.3484 17.4697 15.0215 18.347C14.6947 19.2243 14.5442 20.1595 14.5792 21.0975L14.6891 22.1191C14.8953 23.1086 15.2858 24.0484 15.8392 24.8875L16.4092 25.5928C17.0622 26.2697 17.8274 26.8226 18.6692 27.2269L19.5593 27.5541C20.8766 27.9002 22.2626 27.8609 23.5593 27.4414C24.5594 27.0899 25.4676 26.5093 26.2145 25.7444C26.9615 24.9796 27.5275 24.0504 27.8692 23.0279L27.9192 22.8344C28.0193 22.4577 28.0994 22.0756 28.1592 21.6901C28.2661 20.7614 28.2119 19.8211 27.9992 18.9117ZM27.3093 22.7935C26.9014 24.0582 26.1136 25.1597 25.058 25.941C24.0025 26.7222 22.7328 27.1433 21.4293 27.1451H21.0192H20.9192C20.7216 27.1452 20.5254 27.111 20.3392 27.0434C20.0274 27.0163 19.7227 26.9331 19.4391 26.7979C18.417 26.4853 17.5064 25.8749 16.8192 25.0411C16.6115 24.8425 16.4361 24.6116 16.2993 24.3567C15.667 23.4061 15.3195 22.2875 15.2993 21.1384C15.2599 20.7048 15.2835 20.2671 15.3692 19.8405C15.5706 18.52 16.1783 17.2998 17.1042 16.3558C18.0301 15.4117 19.2262 14.7931 20.5192 14.59C20.9334 14.5023 21.3581 14.4779 21.7792 14.5181C22.9102 14.5574 24.0051 14.9344 24.9293 15.6016C25.1862 15.7384 25.4165 15.9222 25.6092 16.1433C26.4211 16.8493 27.0179 17.7772 27.3292 18.8189C27.4617 19.1115 27.5398 19.4269 27.5593 19.7487C27.7364 20.7715 27.6361 21.8248 27.2692 22.7935H27.3093Z" fill="#3D89EC" stroke="#3D89EC" stroke-width="0.25" stroke-miterlimit="10"/>
<path d="M22.1804 23.6522L23.0303 24.1022L23.4503 24.3266C23.5013 24.3641 23.5625 24.3845 23.6253 24.3845C23.6881 24.3845 23.7493 24.3641 23.8003 24.3266C23.8553 24.2881 23.8967 24.2324 23.9183 24.168C23.9399 24.1036 23.9406 24.0333 23.9203 23.9685C23.9203 23.754 23.8502 23.5398 23.8202 23.315V23.0397C23.7368 22.7355 23.68 22.4243 23.6503 22.1099C23.5932 21.9713 23.5839 21.8167 23.6238 21.6719C23.6638 21.5272 23.7507 21.4005 23.8703 21.3128C24.1503 21.0574 24.4204 20.7923 24.6804 20.5267L25.1603 20.0458C25.3303 19.8824 25.3803 19.7598 25.3303 19.6168C25.2803 19.4738 25.1604 19.413 24.9304 19.3824L23.4803 19.1569L22.8603 19.0651C22.6747 18.8978 22.5365 18.6832 22.4603 18.4426C22.4312 18.3591 22.3979 18.2771 22.3603 18.1972L22.1902 17.87L21.7903 17.0629C21.6903 16.8484 21.6002 16.7666 21.4402 16.7666C21.2802 16.7666 21.2003 16.8481 21.0903 17.0729C20.9803 17.2976 20.8202 17.6348 20.6902 17.9209C20.5602 18.2069 20.4003 18.5133 20.2503 18.8197C20.2166 18.9076 20.1593 18.9842 20.085 19.0402C20.0107 19.0962 19.9224 19.13 19.8303 19.137L18.6403 19.3106L17.9103 19.4123C17.6703 19.4123 17.5803 19.505 17.5303 19.6378C17.4803 19.7706 17.5302 19.9033 17.6902 20.0668L18.7603 21.0883L19.1603 21.4964C19.2603 21.5474 19.3003 21.6504 19.2703 21.8036C19.2103 22.1612 19.1503 22.5085 19.0803 22.8252L19.0103 23.3051C19.0103 23.4992 18.9503 23.7036 18.9103 23.8977C18.8883 23.963 18.887 24.0331 18.9068 24.0992C18.9266 24.1652 18.9663 24.2232 19.0203 24.2648C19.1103 24.3465 19.2203 24.3772 19.4103 24.2648L20.2703 23.8059L20.7703 23.5395C20.9577 23.3492 21.2111 23.2432 21.4753 23.2432C21.7395 23.2432 21.993 23.3492 22.1804 23.5395V23.6522ZM21.7003 22.6307C21.6095 22.5704 21.5036 22.5379 21.3953 22.5379C21.2871 22.5379 21.1811 22.5704 21.0903 22.6307C20.8103 22.7941 20.5303 22.9368 20.2503 23.0696L19.9203 23.2432C19.8912 23.2691 19.8538 23.2841 19.8152 23.2841C19.7766 23.2841 19.7394 23.2691 19.7103 23.2432C19.6875 23.2306 19.6677 23.2135 19.6522 23.1923C19.6366 23.1712 19.6258 23.1473 19.6203 23.1215C19.6109 23.0989 19.6061 23.0742 19.6061 23.0497C19.6061 23.0251 19.6109 23.0005 19.6203 22.9778V22.7534C19.6803 22.355 19.7403 21.9459 19.8403 21.5373C19.8403 21.3738 19.7603 21.252 19.6003 21.0784L19.5203 20.9856L18.3603 19.8722L19.1303 19.7495L20.1303 19.5969C20.2144 19.5936 20.2956 19.5641 20.3633 19.5131C20.4311 19.4621 20.4823 19.3916 20.5103 19.3106C20.6603 19.0143 20.8003 18.7074 20.9503 18.3907L21.3104 17.6555L22.1804 19.4642C22.3587 19.5917 22.5728 19.6559 22.7903 19.6478C22.9115 19.6547 23.0319 19.6716 23.1503 19.6986C23.322 19.7358 23.4956 19.7632 23.6703 19.7804H23.8703H24.1703L23.6902 20.3122C23.4702 20.5574 23.2403 20.8122 23.0003 21.0574C22.9289 21.1183 22.876 21.1984 22.8477 21.2889C22.8194 21.3793 22.8168 21.4763 22.8403 21.5682C22.9003 21.8849 22.9503 22.222 22.9903 22.5898L23.0503 22.9469C23.0582 22.9839 23.0582 23.0226 23.0503 23.0596C23.0399 23.118 23.0118 23.1719 22.9703 23.2133L22.8303 23.325L22.7403 23.1824C22.4465 23.062 22.1623 22.9187 21.8903 22.7534L21.7003 22.6307Z" fill="#3D89EC" stroke="#3D89EC" stroke-width="0.25" stroke-miterlimit="10"/>
</svg>
