<svg width="94" height="97" viewBox="0 0 94 97" fill="none" xmlns="http://www.w3.org/2000/svg">
<path d="M46.9696 96.3326C72.607 96.3326 93.3901 75.0997 93.3901 48.9093C93.3901 22.7188 72.607 1.48828 46.9696 1.48828C21.3322 1.48828 0.548828 22.7188 0.548828 48.9093C0.548828 75.0997 21.3322 96.3326 46.9696 96.3326Z" stroke="#3D89EC" stroke-width="1.01" stroke-miterlimit="10"/>
<path d="M57.221 43.4934C57.221 47.0749 56.1815 50.5764 54.2337 53.5543C52.286 56.5322 49.5175 58.8533 46.2785 60.2239C43.0395 61.5945 39.4753 61.9522 36.0368 61.2535C32.5983 60.5548 29.44 58.8318 26.961 56.2993C24.482 53.7668 22.7936 50.5383 22.1096 47.0256C21.4257 43.5129 21.7767 39.8719 23.1184 36.563C24.46 33.2542 26.7321 30.4265 29.6471 28.4367C32.5621 26.447 35.9891 25.3848 39.495 25.3848C44.1962 25.3848 48.705 27.294 52.0292 30.6899C55.3535 34.0859 57.221 38.6908 57.221 43.4934Z" stroke="#3D89EC" stroke-width="1.38" stroke-linecap="round" stroke-linejoin="round"/>
<path d="M68.8377 65.0279L55.3003 54.6484" stroke="#3D89EC" stroke-width="2.54" stroke-linecap="round" stroke-linejoin="round"/>
<path d="M32.8062 44.7935L37.9897 49.7362L47.5006 37.2305" stroke="#3D89EC" stroke-width="1.38" stroke-linecap="round" stroke-linejoin="round"/>
</svg>
