<svg width="34" height="35" viewBox="0 0 34 35" fill="none" xmlns="http://www.w3.org/2000/svg">
<path d="M17.1599 34.017C26.0848 34.017 33.3199 26.6257 33.3199 17.5083C33.3199 8.39081 26.0848 1 17.1599 1C8.23499 1 1 8.39081 1 17.5083C1 26.6257 8.23499 34.017 17.1599 34.017Z" stroke="#3D89EC" stroke-width="0.81" stroke-miterlimit="10"/>
<path d="M12.5686 19.2449C12.6327 18.9908 12.7577 18.7566 12.9323 18.564C13.1068 18.3714 13.3255 18.2264 13.5686 18.1415C13.7886 18.0598 13.7286 17.9272 13.7286 17.7944C13.7286 16.6196 13.7286 15.4448 13.7286 14.2802C13.7047 13.8936 13.8194 13.5112 14.0513 13.2048C14.2832 12.8983 14.6164 12.6884 14.9887 12.6147C15.9827 12.4572 16.9946 12.4572 17.9887 12.6147C18.3319 12.6813 18.6393 12.8741 18.853 13.1564C19.0667 13.4387 19.1719 13.7909 19.1487 14.147V17.7634C19.1333 17.8471 19.1495 17.9338 19.194 18.0059C19.2385 18.0779 19.3081 18.1302 19.3887 18.152C19.6096 18.2427 19.8049 18.3882 19.9568 18.5755C20.1087 18.7628 20.2125 18.9858 20.2587 19.2245C20.3344 18.9749 20.4633 18.7456 20.6362 18.5531C20.8092 18.3605 21.0218 18.2097 21.2587 18.1111C21.4887 18.0294 21.3787 17.8658 21.3787 17.733C21.3787 16.5786 21.3787 15.4241 21.3787 14.2697C21.3623 14.036 21.3953 13.8014 21.4755 13.5819C21.5556 13.3624 21.681 13.1634 21.8431 12.9978C22.0053 12.8321 22.2005 12.7035 22.4154 12.6217C22.6303 12.5398 22.8599 12.5062 23.0886 12.5229C23.6986 12.5229 24.3186 12.5229 24.9286 12.5229C25.1864 12.4889 25.4485 12.5163 25.6943 12.6027C25.9402 12.6891 26.1633 12.8319 26.3462 13.0207C26.5291 13.2095 26.6668 13.4391 26.7488 13.6911C26.8307 13.9432 26.8546 14.2112 26.8186 14.4743V17.7634C26.8054 17.8495 26.821 17.9379 26.8627 18.0138C26.9044 18.0898 26.9698 18.1491 27.0486 18.1824C27.3795 18.3255 27.6477 18.5874 27.8025 18.9187C27.9573 19.25 27.988 19.6279 27.8887 19.9807C27.7961 20.3306 27.5929 20.6392 27.3108 20.8591C27.0287 21.0789 26.6834 21.1976 26.3286 21.1963C24.8286 21.1963 23.3286 21.1963 21.8186 21.1963C21.1186 21.1963 20.7687 20.8996 20.2587 20.0211C20.1349 20.4022 19.8862 20.7285 19.5547 20.9444C19.2232 21.1602 18.8291 21.2525 18.4386 21.2063H14.3687C13.9811 21.2385 13.595 21.1274 13.281 20.893C12.9671 20.6585 12.7461 20.3164 12.6586 19.9293C12.5164 20.3655 12.2243 20.7344 11.8363 20.9673C11.4483 21.2002 10.9908 21.2816 10.5486 21.1963C9.17859 21.1963 7.79859 21.196 6.42859 21.1244C6.12046 21.117 5.82316 21.0075 5.58142 20.8122C5.33969 20.6168 5.16668 20.3461 5.08863 20.0415C4.99882 19.7497 4.99649 19.4373 5.08204 19.1442C5.16758 18.851 5.33706 18.5908 5.56861 18.3969C6.19861 18.2233 6.13867 17.7228 6.12867 17.2222C6.12867 16.2006 6.12867 15.2712 6.12867 14.3007C6.10461 14.0867 6.12518 13.8699 6.18921 13.6647C6.25324 13.4595 6.35917 13.2703 6.5 13.11C6.64084 12.9497 6.81341 12.822 7.00623 12.7349C7.19905 12.6478 7.40782 12.6033 7.61866 12.6047C8.40769 12.5484 9.19961 12.5484 9.98865 12.6047C10.2015 12.6123 10.4107 12.664 10.6036 12.7563C10.7965 12.8487 10.9691 12.9797 11.1111 13.1419C11.2531 13.3041 11.3615 13.494 11.4298 13.7001C11.4981 13.9062 11.525 14.1246 11.5087 14.3416C11.5087 15.4653 11.5087 16.5888 11.5087 17.7126C11.5087 17.9782 11.5086 18.1516 11.8186 18.2538C12.1812 18.4765 12.4489 18.8303 12.5686 19.2449ZM10.6387 15.9757C10.6387 15.424 10.6387 14.8725 10.6387 14.3311C10.6567 14.2016 10.6452 14.0697 10.605 13.9455C10.5648 13.8213 10.497 13.7083 10.407 13.6153C10.3169 13.5223 10.207 13.4517 10.0858 13.4093C9.96467 13.3669 9.83558 13.3538 9.70862 13.3709C9.04862 13.3709 8.39862 13.3709 7.70862 13.3709C7.01862 13.3709 6.79859 13.667 6.79859 14.2902C6.79859 15.4344 6.79859 16.5784 6.79859 17.7225C6.79859 17.9473 6.79863 18.0393 7.08863 18.0393C8.17863 18.0393 9.26864 18.0393 10.3486 18.0393C10.5686 18.0393 10.6287 17.9882 10.6287 17.7634C10.6287 17.1096 10.6387 16.5173 10.6387 15.9248V15.9757ZM25.8486 15.9248V14.2802C25.8486 13.6673 25.6087 13.4013 25.0087 13.3809C24.4087 13.3604 23.6587 13.3809 23.0087 13.3809C22.8849 13.3668 22.7596 13.3823 22.6426 13.4257C22.5255 13.4691 22.4198 13.5393 22.3337 13.6313C22.2476 13.7232 22.1834 13.8341 22.1461 13.9555C22.1088 14.0769 22.0994 14.2054 22.1187 14.3311C22.1187 15.465 22.1187 16.6093 22.1187 17.7535C22.1187 17.968 22.1787 18.0395 22.3887 18.0293C23.4687 18.0293 24.5386 18.0293 25.6086 18.0293C25.8286 18.0293 25.8887 17.968 25.8887 17.7535C25.8387 17.0894 25.8486 16.4869 25.8486 15.8739V15.9248ZM18.2487 15.9248V14.2802C18.2616 14.1637 18.2499 14.0455 18.2142 13.934C18.1786 13.8225 18.1199 13.72 18.0421 13.6337C17.9643 13.5475 17.8693 13.4796 17.7634 13.4342C17.6576 13.3888 17.5433 13.3672 17.4286 13.3709C16.7086 13.3709 15.9886 13.3709 15.2786 13.3709C15.1741 13.3681 15.0701 13.3872 14.973 13.4267C14.8759 13.4663 14.7878 13.5253 14.7139 13.6008C14.64 13.6763 14.5819 13.7665 14.5432 13.8657C14.5045 13.9649 14.4859 14.0712 14.4887 14.178C14.4887 15.363 14.4887 16.548 14.4887 17.733C14.4887 17.9475 14.4887 18.029 14.7487 18.0188C15.8287 18.0188 16.8986 18.0188 17.9686 18.0188C18.2386 18.0188 18.2487 17.8964 18.2487 17.6921C18.2387 17.0689 18.2487 16.4764 18.2487 15.8839V15.9248ZM8.76868 18.8364H6.48865C6.38898 18.8234 6.28777 18.8319 6.19165 18.8618C6.09554 18.8918 6.00665 18.9424 5.93103 19.01C5.85542 19.0776 5.79473 19.1605 5.75293 19.2539C5.71114 19.3472 5.68921 19.4485 5.6886 19.5512C5.68012 19.6586 5.69398 19.7669 5.72913 19.8684C5.76428 19.97 5.81992 20.0627 5.89258 20.1408C5.96525 20.2189 6.05323 20.2804 6.15076 20.3214C6.24829 20.3624 6.3532 20.3819 6.45862 20.3787C6.75862 20.3787 7.04864 20.3787 7.34864 20.3787H10.8787C11.4587 20.3787 11.7687 20.0623 11.7487 19.5821C11.7287 19.102 11.4187 18.8566 10.8687 18.8464L8.76868 18.8364ZM16.3687 18.8364H14.3687C13.7687 18.8364 13.3687 19.1119 13.3687 19.5716C13.3687 20.0313 13.7186 20.3483 14.3086 20.3483C15.7386 20.3483 17.1686 20.3483 18.5886 20.3483C19.1386 20.3483 19.4686 20.0314 19.4486 19.5921C19.4187 19.3754 19.3089 19.1786 19.1416 19.0419C18.9743 18.9052 18.7621 18.8391 18.5486 18.8568L16.3687 18.8364ZM24.0187 20.3278H26.2086C26.7286 20.3278 27.0187 20.0211 27.0087 19.5716C26.9987 19.1221 26.6886 18.8464 26.1786 18.8464H21.8486C21.2986 18.8464 21.0287 19.0815 21.0187 19.5617C21.0087 20.0418 21.2386 20.3176 21.8286 20.3278H24.0187Z" fill="#3D89EC"/>
<path d="M16.3696 22.6672H5.36955C5.07955 22.6672 4.94952 22.6674 4.95952 22.2792C4.96952 21.891 5.03954 21.8806 5.35954 21.8806C12.7262 21.8806 20.1029 21.8806 27.4895 21.8806C27.8895 21.8806 27.8596 22.0542 27.8796 22.33C27.8996 22.6059 27.7895 22.7491 27.4595 22.7491H16.4595L16.3696 22.6672Z" fill="#3D89EC"/>
<path d="M8.69946 14.8828H8.38953C8.11953 14.8828 7.93945 14.8827 7.93945 14.5047C7.93945 14.1267 8.08942 14.045 8.40942 14.0757C8.64567 14.0961 8.88326 14.0961 9.11951 14.0757C9.43951 14.0757 9.50952 14.1678 9.50952 14.4742C9.50952 14.7807 9.43949 14.9545 9.09949 14.8933C8.96659 14.8796 8.83286 14.876 8.69946 14.8828Z" fill="#3D89EC"/>
<path d="M24.0891 14.0457H24.3091C24.8091 14.0457 24.9491 14.2599 24.8191 14.7605C24.8191 14.9137 24.6891 14.8937 24.5891 14.8937H23.7091C23.2491 14.8937 23.0692 14.6276 23.2292 14.1883C23.247 14.1399 23.2805 14.0997 23.3242 14.0736C23.368 14.0476 23.4191 14.0377 23.4691 14.0457H24.0891Z" fill="#3D89EC"/>
<path d="M16.3498 14.8933H16.0898C15.5298 14.8933 15.5398 14.8929 15.5698 14.3107C15.5698 14.1166 15.6298 14.0351 15.8298 14.0453C16.1965 14.0453 16.5665 14.0453 16.9398 14.0453C17.3198 14.0453 17.1598 14.321 17.1798 14.4947C17.1998 14.6684 17.2698 14.9239 16.9298 14.8933C16.7366 14.8827 16.543 14.8827 16.3498 14.8933Z" fill="#3D89EC"/>
</svg>
