<svg width="55" height="61" viewBox="0 0 55 61" fill="none" xmlns="http://www.w3.org/2000/svg">
<path d="M50.9396 50.748H53.0019C53.9757 50.748 54.3958 51.1766 54.3958 52.191V58.9995C54.3958 60.0919 53.9948 60.5016 52.9445 60.5016H31.0804C30.1829 60.5016 29.6483 60.0723 29.6483 59.331C29.6483 58.5897 30.1638 58.1604 31.0422 58.1604H40.9909C40.9909 58.0043 40.9526 57.8678 40.8762 57.7508C40.2079 56.3463 39.5587 54.9224 38.8712 53.5179C38.8234 53.4163 38.7541 53.3268 38.6682 53.2559C38.5824 53.1851 38.482 53.1347 38.3747 53.1083C29.8009 53.1083 21.1889 53.1083 12.6533 53.1083H12.5005L10.1709 58.1213H10.8201C13.9327 58.1213 17.0452 58.1213 20.1578 58.1213C20.5153 58.0947 20.8697 58.2064 21.1508 58.4337C21.4115 58.7481 21.5417 59.1543 21.5136 59.5653C21.4863 59.8018 21.3768 60.0205 21.2051 60.1816C21.0334 60.3427 20.8109 60.4349 20.5779 60.4426C20.4066 60.4621 20.2337 60.4621 20.0623 60.4426H1.78802C0.623196 60.4426 0.241293 60.0724 0.241293 58.9214C0.241293 48.0168 0.107625 37.1117 0.241293 26.2266C0.113767 21.1355 1.50722 16.1258 4.23624 11.8638C6.96527 7.60181 10.9004 4.28975 15.5176 2.36922C19.3794 0.666642 23.5956 -0.0251104 27.7851 0.355625C31.9746 0.736361 36.0051 2.17823 39.512 4.55046C43.0189 6.9227 45.8916 10.1505 47.8702 13.9422C49.8488 17.7338 50.8709 21.969 50.8441 26.2657C50.8441 28.2164 50.8441 30.3044 50.8441 32.3332C50.8217 32.4828 50.8569 32.6353 50.9423 32.7589C51.0278 32.8826 51.1568 32.9676 51.3024 32.9961C52.1833 33.3262 52.9445 33.9233 53.4837 34.7078C54.0229 35.4922 54.3146 36.4267 54.3195 37.3853C54.3155 38.3512 54.025 39.2935 53.4864 40.0875C52.9478 40.8815 52.1863 41.4895 51.3024 41.8325C51.2005 41.8699 51.109 41.9329 51.0358 42.0144C50.9626 42.096 50.91 42.1942 50.8823 42.3011C50.9396 45.1492 50.9396 47.8804 50.9396 50.748ZM13.5507 45.4025L13.2453 45.1491C12.4249 44.7568 11.7368 44.1253 11.2678 43.3337C10.7988 42.542 10.5699 41.6263 10.6101 40.7019V16.3568C10.5889 15.7173 10.6963 15.0796 10.9256 14.4841C11.1549 13.8887 11.5013 13.3478 11.9433 12.8944C12.3853 12.4411 12.9134 12.0852 13.4954 11.8486C14.0773 11.6119 14.7006 11.499 15.3267 11.518C22.1629 11.518 29.0181 11.518 35.8543 11.518C36.4713 11.5021 37.085 11.6143 37.6584 11.8476C38.2318 12.0809 38.7529 12.4304 39.1902 12.8754C39.6276 13.3203 39.9721 13.8517 40.2028 14.4365C40.4335 15.0213 40.5456 15.6483 40.5325 16.2787C40.5325 24.4978 40.5325 32.7031 40.5325 40.8962C40.5648 41.7718 40.3498 42.6386 39.913 43.3927C39.4762 44.1468 38.8361 44.7566 38.0693 45.1491L37.6301 45.4025C39.5397 49.5771 41.4492 53.7124 43.3587 57.8479C43.4689 58.0021 43.6331 58.1077 43.817 58.1413C44.218 58.1413 44.6189 58.1413 45.0581 58.1413V52.152C45.0581 51.1571 45.4783 50.728 46.4713 50.728H48.3808C48.3854 50.65 48.3854 50.5726 48.3808 50.4946C48.3808 47.8026 48.3808 45.0908 48.3808 42.3792C48.3808 42.0086 48.1898 41.9496 47.9224 41.8325C47.039 41.5037 46.276 40.9059 45.7368 40.1189C45.1976 39.332 44.9084 38.3944 44.9084 37.4338C44.9084 36.4733 45.1976 35.5366 45.7368 34.7497C46.276 33.9628 47.039 33.364 47.9224 33.0352C48.3044 32.8986 48.3617 32.7033 48.3617 32.3522C48.3617 30.3039 48.3617 28.2749 48.3617 26.2266C48.4036 20.0624 46.0478 14.134 41.812 9.74353C38.6253 6.33137 34.504 3.9823 29.9881 3.00359C25.4722 2.02489 20.7723 2.46158 16.504 4.25804C12.2356 6.05451 8.59792 9.12625 6.06746 13.0706C3.537 17.015 2.23178 21.6487 2.32274 26.3638V58.1413C3.88857 58.1413 5.37792 58.1413 6.88645 58.1413C7.03398 58.1581 7.18269 58.122 7.30778 58.0404C7.43287 57.9587 7.52686 57.8365 7.57398 57.6927C8.81518 54.9617 10.0946 52.2498 11.3931 49.5383L13.5507 45.4025ZM12.9588 31.6112V32.1379C12.9588 35.025 12.9588 37.9895 12.9588 40.779C12.9292 41.1239 12.9744 41.4712 13.0909 41.7963C13.2075 42.1214 13.3925 42.4164 13.633 42.6602C13.8735 42.9041 14.1636 43.0914 14.4827 43.2079C14.8017 43.3245 15.142 43.3674 15.4794 43.3346H35.7206C36.0637 43.3709 36.4103 43.329 36.7356 43.2117C37.0609 43.0945 37.3566 42.9047 37.6014 42.6564C37.8463 42.4082 38.0341 42.1077 38.1513 41.7763C38.2686 41.4449 38.3122 41.0917 38.2793 40.7409V31.6112H12.9588ZM12.9588 18.5999H38.2793V16.6492C38.3152 16.2943 38.2733 15.9357 38.1564 15.5995C38.0396 15.2633 37.8508 14.9574 37.6039 14.7051C37.357 14.4529 37.0581 14.2606 36.729 14.1412C36.3999 14.0219 36.0488 13.9788 35.7015 14.0155H15.3457C14.7503 13.9885 14.1681 14.199 13.7225 14.6032C13.2769 15.0075 13.0029 15.5734 12.9588 16.1806C12.9206 16.9218 12.9588 17.8391 12.9588 18.5999ZM37.5919 50.728C36.8281 49.0698 36.0833 47.4903 35.3195 45.9102C35.3195 45.7736 34.9949 45.6949 34.8039 45.6949H16.415C16.2844 45.6748 16.151 45.7034 16.0389 45.7749C15.9269 45.8465 15.8436 45.9566 15.8041 46.0854C15.1357 47.5485 14.4483 48.9725 13.78 50.4355C13.7668 50.5391 13.7668 50.6444 13.78 50.748L37.5919 50.728ZM24.4351 21.0383H12.9779V29.1918H24.4351V21.0383ZM38.2412 29.1918V21.0383H26.7839V29.1918H38.2412ZM47.5024 58.1213H52.0471V53.1473H47.5024V58.1213ZM52.0853 37.4634C52.0891 36.9957 51.9567 36.5377 51.7052 36.147C51.4536 35.7563 51.0942 35.4504 50.6723 35.2688C50.2505 35.0871 49.7853 35.037 49.3358 35.1259C48.8864 35.2148 48.4729 35.4386 48.1479 35.7679C47.8228 36.0972 47.6008 36.5173 47.5101 36.9757C47.4194 37.4341 47.464 37.9101 47.6383 38.3425C47.8126 38.775 48.1087 39.1443 48.4891 39.4046C48.8695 39.6648 49.317 39.8037 49.7748 39.8037C50.3827 39.7987 50.9647 39.5514 51.3964 39.1141C51.8281 38.6767 52.0754 38.0844 52.0853 37.4634Z" fill="#3D89EC" stroke="#E8E8E8" stroke-width="0.17" stroke-miterlimit="10"/>
<path d="M26.765 59.351C26.755 59.6632 26.6252 59.9596 26.4037 60.1749C26.1822 60.3902 25.8868 60.5078 25.5811 60.5026C25.2772 60.5026 24.9857 60.3792 24.7708 60.1597C24.556 59.9402 24.4353 59.6423 24.4353 59.3319C24.4353 59.0215 24.556 58.7237 24.7708 58.5042C24.9857 58.2847 25.2772 58.1613 25.5811 58.1613C25.7357 58.1587 25.8892 58.1874 26.0327 58.2461C26.1763 58.3047 26.3069 58.3925 26.4171 58.5032C26.5273 58.614 26.6148 58.7462 26.6746 58.8919C26.7343 59.0375 26.765 59.1931 26.765 59.351Z" fill="#3D89EC" stroke="#E8E8E8" stroke-width="0.17" stroke-miterlimit="10"/>
<path d="M22.1617 37.4821C22.1578 38.1821 21.9504 38.865 21.5658 39.4443C21.1811 40.0235 20.6365 40.4734 20.0013 40.7359C19.3661 40.9983 18.6689 41.062 17.9982 40.9188C17.3275 40.7755 16.7137 40.4314 16.2346 39.931C15.7555 39.4306 15.4328 38.7961 15.3075 38.1079C15.1823 37.4197 15.26 36.7096 15.531 36.0667C15.8019 35.4238 16.2538 34.877 16.8292 34.497C17.4046 34.117 18.0777 33.9205 18.7627 33.9321C19.6728 33.9475 20.5401 34.3285 21.1765 34.9932C21.8129 35.6579 22.1668 36.5524 22.1617 37.4821ZM18.7245 36.2924C18.4239 36.2871 18.1332 36.4027 17.9153 36.6144C17.6974 36.8261 17.5697 37.117 17.5597 37.424C17.5597 37.7344 17.6804 38.0322 17.8953 38.2517C18.1101 38.4712 18.4015 38.5946 18.7054 38.5946C19.0093 38.5946 19.3007 38.4712 19.5155 38.2517C19.7304 38.0322 19.8512 37.7344 19.8512 37.424C19.8414 37.1237 19.719 36.8383 19.5092 36.6277C19.2995 36.4171 19.0186 36.2973 18.7245 36.2924Z" fill="#3D89EC" stroke="#E8E8E8" stroke-width="0.17" stroke-miterlimit="10"/>
<path d="M35.9687 37.4426C35.9724 38.1426 35.7724 38.8288 35.3941 39.4124C35.0157 39.996 34.4762 40.4515 33.8439 40.7212C33.2115 40.9908 32.515 41.0616 31.8428 40.9259C31.1706 40.7903 30.553 40.4541 30.0685 39.9592C29.584 39.4642 29.2544 38.8333 29.1216 38.1465C28.9889 37.4598 29.059 36.7484 29.3229 36.1025C29.5869 35.4565 30.0328 34.9049 30.6041 34.5184C31.1754 34.132 31.8462 33.9278 32.5314 33.9317C33.443 33.9317 34.3173 34.3019 34.9619 34.9604C35.6065 35.6189 35.9687 36.5114 35.9687 37.4426ZM32.5505 36.292C32.248 36.2866 31.9553 36.4018 31.7343 36.613C31.5133 36.8242 31.3814 37.1148 31.3666 37.4236C31.366 37.7313 31.4802 38.0276 31.6859 38.2523C31.8917 38.477 32.1736 38.6134 32.4742 38.6333C32.6271 38.6358 32.7791 38.6069 32.9214 38.5494C33.0637 38.492 33.1935 38.4067 33.3034 38.298C33.4134 38.1893 33.5013 38.0594 33.5622 37.916C33.623 37.7726 33.6556 37.6189 33.6581 37.4626C33.6606 37.3115 33.6339 37.1613 33.5796 37.0207C33.5253 36.88 33.4445 36.7512 33.3416 36.6425C33.2388 36.5338 33.116 36.4475 32.9802 36.3873C32.8445 36.3271 32.6985 36.2945 32.5505 36.292Z" fill="#3D89EC" stroke="#E8E8E8" stroke-width="0.17" stroke-miterlimit="10"/>
</svg>
