<svg width="34" height="35" viewBox="0 0 34 35" fill="none" xmlns="http://www.w3.org/2000/svg">
<path d="M17.119 33.6323C26.0439 33.6323 33.2791 26.241 33.2791 17.1235C33.2791 8.00606 26.0439 0.614746 17.119 0.614746C8.1941 0.614746 0.958984 8.00606 0.958984 17.1235C0.958984 26.241 8.1941 33.6323 17.119 33.6323Z" stroke="#3D89EC" stroke-width="0.81" stroke-miterlimit="10"/>
<path fill-rule="evenodd" clip-rule="evenodd" d="M17.1693 16.1835C16.9533 16.1835 16.7421 16.2492 16.5626 16.3721C16.3832 16.4949 16.2436 16.6693 16.1614 16.8734C16.0792 17.0774 16.0581 17.3016 16.101 17.5178C16.1438 17.7341 16.2487 17.9327 16.4021 18.088C16.5555 18.2433 16.7507 18.3485 16.9628 18.3903C17.1749 18.4321 17.3944 18.4088 17.5934 18.3229C17.7924 18.2371 17.9619 18.0924 18.0804 17.9079C18.199 17.7234 18.2613 17.5075 18.2593 17.2869C18.2593 17.1411 18.231 16.9969 18.1761 16.8624C18.1212 16.7279 18.0408 16.6053 17.9395 16.5027C17.8381 16.4002 17.7179 16.3192 17.5857 16.2643C17.4535 16.2095 17.312 16.1822 17.1693 16.1835ZM14.7793 17.2869C14.7793 16.804 14.9194 16.3316 15.182 15.9301C15.4446 15.5286 15.8179 15.216 16.2546 15.0312C16.6914 14.8464 17.1719 14.7979 17.6355 14.8921C18.0991 14.9863 18.525 15.219 18.8593 15.5605C19.1935 15.9019 19.4211 16.3369 19.5133 16.8105C19.6055 17.2841 19.5582 17.775 19.3773 18.2212C19.1964 18.6673 18.8901 19.0488 18.4971 19.3171C18.104 19.5853 17.642 19.7281 17.1693 19.7281C16.5354 19.7281 15.9275 19.4712 15.4792 19.0133C15.031 18.5554 14.7793 17.9344 14.7793 17.2869Z" fill="#3D89EC" stroke="white" stroke-width="0.05" stroke-miterlimit="10"/>
<path fill-rule="evenodd" clip-rule="evenodd" d="M17.1692 12.6388C16.2687 12.6403 15.3885 12.9137 14.6395 13.4244C13.8905 13.9351 13.3059 14.6604 12.9591 15.5094C12.6088 16.3657 12.5168 17.3094 12.695 18.2195C12.8731 19.1296 13.3133 19.9645 13.9591 20.6173C14.0811 20.7419 14.1497 20.9109 14.1497 21.0872C14.1497 21.2634 14.0811 21.4324 13.9591 21.5571C13.8371 21.6817 13.6717 21.7521 13.4992 21.7521C13.3266 21.7521 13.1612 21.6817 13.0392 21.5571C12.2155 20.7217 11.6545 19.6543 11.4282 18.4913C11.202 17.3284 11.3207 16.1232 11.7692 15.0296C12.2114 13.9362 12.9618 13.0016 13.9251 12.3449C14.8884 11.6883 16.0211 11.3388 17.1792 11.3413C18.3393 11.3379 19.4741 11.6869 20.4396 12.344C21.405 13.001 22.1575 13.9366 22.6012 15.0316C23.045 16.1265 23.1599 17.3319 22.9317 18.4938C22.7034 19.6558 22.1421 20.7218 21.3191 21.5571C21.2587 21.6188 21.1871 21.6678 21.1082 21.7012C21.0292 21.7346 20.9446 21.7521 20.8591 21.7521C20.7737 21.7521 20.6892 21.7346 20.6102 21.7012C20.5313 21.6678 20.4596 21.6188 20.3992 21.5571C20.3388 21.4953 20.2909 21.4222 20.2582 21.3416C20.2255 21.2609 20.2086 21.1744 20.2086 21.0872C20.2086 20.9999 20.2255 20.9134 20.2582 20.8328C20.2909 20.7521 20.3388 20.679 20.3992 20.6173C21.045 19.9645 21.4852 19.1296 21.6633 18.2195C21.8415 17.3094 21.7495 16.3657 21.3992 15.5094C21.0524 14.6604 20.4678 13.9351 19.7188 13.4244C18.9697 12.9137 18.0896 12.6403 17.1891 12.6388H17.1692Z" fill="#3D89EC" stroke="white" stroke-width="0.05" stroke-miterlimit="10"/>
<path fill-rule="evenodd" clip-rule="evenodd" d="M17.17 9.17575C15.6001 9.17837 14.0661 9.65555 12.7614 10.5475C11.4567 11.4394 10.4397 12.7058 9.83867 14.1873C9.2376 15.6689 9.07942 17.2994 9.38395 18.8727C9.68849 20.446 10.4422 21.8915 11.55 23.0278C11.6117 23.0888 11.6606 23.1621 11.6941 23.2428C11.7276 23.3236 11.7449 23.4105 11.7449 23.4982C11.7449 23.5859 11.7276 23.6724 11.6941 23.7531C11.6606 23.8338 11.6117 23.9071 11.55 23.9681C11.4268 24.0904 11.2617 24.1586 11.0899 24.1586C10.9181 24.1586 10.7531 24.0904 10.6299 23.9681C9.33608 22.6466 8.4549 20.9627 8.09782 19.1296C7.74074 17.2965 7.92377 15.3964 8.62382 13.6696C9.32387 11.9428 10.5095 10.4671 12.0307 9.42865C13.5519 8.39023 15.3404 7.83594 17.17 7.83594C18.9995 7.83594 20.7879 8.39023 22.3091 9.42865C23.8303 10.4671 25.0159 11.9428 25.716 13.6696C26.416 15.3964 26.5991 17.2965 26.242 19.1296C25.8849 20.9627 25.0037 22.6466 23.7099 23.9681C23.5867 24.0904 23.4217 24.1586 23.2499 24.1586C23.0781 24.1586 22.9131 24.0904 22.79 23.9681C22.7283 23.9071 22.6792 23.8338 22.6457 23.7531C22.6122 23.6724 22.5949 23.5859 22.5949 23.4982C22.5949 23.4105 22.6122 23.3236 22.6457 23.2428C22.6792 23.1621 22.7283 23.0888 22.79 23.0278C23.8972 21.8896 24.6518 20.4437 24.9599 18.8702C25.1873 17.6938 25.1568 16.4806 24.8708 15.3177C24.5847 14.1547 24.0501 13.071 23.3053 12.1442C22.5606 11.2174 21.6242 10.4707 20.5634 9.9574C19.5026 9.44413 18.3437 9.17717 17.17 9.17575Z" fill="#3D89EC" stroke="white" stroke-width="0.05" stroke-miterlimit="10"/>
</svg>
