<svg width="32" height="35" viewBox="0 0 32 35" fill="none" xmlns="http://www.w3.org/2000/svg">
<path d="M16.2621 34.0175C24.6912 34.0175 31.5244 26.6262 31.5244 17.5088C31.5244 8.39131 24.6912 1 16.2621 1C7.83305 1 1 8.39131 1 17.5088C1 26.6262 7.83305 34.0175 16.2621 34.0175Z" stroke="#3D89EC" stroke-width="0.81" stroke-miterlimit="10"/>
<path fill-rule="evenodd" clip-rule="evenodd" d="M16.2918 10.9296C16.3713 10.9717 16.4383 11.0374 16.4851 11.1187C16.5318 11.1999 16.5565 11.2938 16.5563 11.3895V23.6484C16.5559 23.7441 16.5306 23.8378 16.4833 23.9187C16.4361 23.9997 16.3687 24.0648 16.2889 24.1063C16.2092 24.1478 16.1202 24.1642 16.0322 24.1537C15.9442 24.1432 15.8607 24.1058 15.7912 24.0464L12.2779 21.0945H10.6252C10.2494 21.0945 9.8891 20.9329 9.62342 20.6455C9.35774 20.3581 9.2085 19.9685 9.2085 19.5621V15.4758C9.2085 15.0694 9.35774 14.6793 9.62342 14.3919C9.8891 14.1045 10.2494 13.9434 10.6252 13.9434H12.2496L15.7629 10.9805C15.8367 10.9169 15.9263 10.8783 16.0203 10.8693C16.1144 10.8602 16.2087 10.8811 16.2918 10.9296ZM15.6119 12.4315L12.7785 14.8523C12.6951 14.9237 12.5921 14.9636 12.4857 14.965H10.6252C10.4999 14.965 10.3798 15.0189 10.2913 15.1147C10.2027 15.2105 10.1529 15.3403 10.1529 15.4758V19.5621C10.1529 19.6976 10.2027 19.8274 10.2913 19.9232C10.3798 20.019 10.4999 20.0729 10.6252 20.0729H12.4102C12.5156 20.0706 12.6186 20.1062 12.7029 20.1746L15.5362 22.5959L15.6119 12.4315ZM18.9363 13.7898C18.9773 13.7577 19.0239 13.7352 19.0733 13.7235C19.1227 13.7117 19.1737 13.7114 19.2233 13.722C19.2729 13.7325 19.32 13.7537 19.3616 13.7848C19.4032 13.8159 19.4385 13.8561 19.4651 13.9025C20.1207 14.9754 20.4702 16.233 20.4702 17.519C20.4702 18.8049 20.1207 20.0626 19.4651 21.1354C19.4088 21.2261 19.3214 21.2889 19.2222 21.3099C19.1231 21.331 19.0202 21.3086 18.9363 21.2476C18.8524 21.1866 18.7943 21.092 18.7748 20.9847C18.7553 20.8774 18.776 20.7662 18.8323 20.6755C19.4094 19.7391 19.7173 18.6388 19.7173 17.5135C19.7173 16.3882 19.4094 15.2883 18.8323 14.352C18.8035 14.3078 18.7832 14.2576 18.7724 14.2048C18.7615 14.1521 18.7604 14.0979 18.7692 14.0447C18.7779 13.9915 18.7964 13.9405 18.8235 13.8951C18.8505 13.8496 18.8857 13.8105 18.9269 13.7798L18.9363 13.7898ZM21.2029 11.3177C21.1358 11.2481 21.0473 11.2079 20.9543 11.2045C20.8614 11.2011 20.7706 11.2347 20.6993 11.2992C20.628 11.3637 20.5811 11.4546 20.5678 11.5541C20.5544 11.6536 20.5754 11.7552 20.6268 11.839C21.8659 13.4261 22.5457 15.4361 22.5457 17.5135C22.5457 19.5908 21.8659 21.6013 20.6268 23.1885C20.5635 23.2714 20.533 23.3777 20.5418 23.4848C20.5507 23.5919 20.5982 23.6912 20.6741 23.7606C20.7084 23.7989 20.7495 23.8291 20.7949 23.8499C20.8403 23.8707 20.8892 23.8818 20.9385 23.8818C20.9879 23.8818 21.0366 23.8707 21.0821 23.8499C21.1275 23.8291 21.1686 23.7989 21.2029 23.7606C22.5731 22.024 23.325 19.8155 23.3233 17.5324C23.3216 15.2494 22.5663 13.0419 21.1934 11.3077L21.2029 11.3177Z" fill="#3D89EC" stroke="#3D89EC" stroke-width="0.25" stroke-miterlimit="10"/>
</svg>
