<svg width="56" height="57" viewBox="0 0 56 57" fill="none" xmlns="http://www.w3.org/2000/svg">
<path d="M12.8964 26.2087L16.5818 31.8566L20.8481 26.6593" stroke="#3D89EC" stroke-width="0.94" stroke-linecap="round" stroke-linejoin="round"/>
<path d="M42.8411 32.1016L39.1357 26.4747L34.8894 31.672" stroke="#3D89EC" stroke-width="0.94" stroke-linecap="round" stroke-linejoin="round"/>
<path d="M39.1743 26.5775C39.5943 29.494 38.9311 32.4657 37.3151 34.9079C35.6991 37.3502 33.2472 39.0865 30.4415 39.7755C28.5811 40.2204 26.6407 40.1752 24.8017 39.6456C22.9627 39.116 21.2852 38.1193 19.9261 36.7473" stroke="#3D89EC" stroke-width="0.94" stroke-linecap="round" stroke-linejoin="round"/>
<path d="M16.5435 31.7747C16.1742 30.2361 16.107 28.6383 16.3458 27.073C16.5846 25.5077 17.1247 24.0058 17.9348 22.655C18.745 21.3042 19.8091 20.1304 21.0657 19.2021C22.3224 18.2739 23.7466 17.6096 25.2562 17.2469C27.2426 16.7734 29.3175 16.8587 31.2606 17.4927C33.2037 18.1267 34.9425 19.2864 36.2924 20.8486" stroke="#3D89EC" stroke-width="0.94" stroke-linecap="round" stroke-linejoin="round"/>
<path d="M54.5985 25.4308C53.2691 25.1728 52.0177 24.5993 50.9453 23.7563C49.8728 22.9134 49.0093 21.8248 48.4245 20.5782C47.8397 19.3316 47.55 17.9619 47.5787 16.5798C47.6074 15.1978 47.9537 13.8426 48.5897 12.6224C48.7508 12.3698 48.8366 12.0747 48.8366 11.7732C48.8366 11.4717 48.7508 11.1766 48.5897 10.924C47.6288 9.7486 46.5772 8.65362 45.4451 7.64997C45.2139 7.46589 44.9345 7.35611 44.6421 7.33425C44.3498 7.3124 44.0576 7.37934 43.8026 7.52708C42.6035 8.14382 41.2803 8.46711 39.9377 8.47122C38.5952 8.47533 37.2701 8.16045 36.0673 7.55106C34.8645 6.94166 33.8171 6.05477 33.0078 4.96041C32.1985 3.86605 31.6496 2.59428 31.4045 1.24579C30.2488 1.09133 29.0849 1.00909 27.9194 1.00001C26.9152 0.998941 25.9119 1.06012 24.915 1.18385C24.5058 3.16936 23.4404 4.95131 21.8977 6.22926C20.3549 7.50721 18.4288 8.20372 16.4426 8.20246C15.0474 8.20627 13.6723 7.86163 12.4368 7.19938C12.178 7.05248 11.8829 6.98674 11.5876 7.00855C11.2924 7.03035 11.0097 7.13888 10.7743 7.32226C9.61033 8.31007 8.52531 9.39129 7.52958 10.5553C7.35039 10.7874 7.24166 11.0681 7.21674 11.3626C7.19183 11.6571 7.2518 11.9527 7.38936 12.2128C8.20451 13.8762 8.48654 15.7597 8.19535 17.5959C7.90415 19.4322 7.05451 21.1281 5.76699 22.4435C4.53857 23.6884 2.97791 24.5353 1.28044 24.8783C1.10509 26.0912 1.01137 27.315 1 28.541C1.00291 29.5389 1.05642 30.536 1.16027 31.5283C3.10222 31.942 4.84537 33.0269 6.09657 34.5995C7.34778 36.1721 8.03067 38.1369 8.03031 40.1634C8.0277 41.588 7.69118 42.9912 7.04889 44.2557C6.88772 44.5083 6.80195 44.8034 6.80195 45.1049C6.80195 45.4064 6.88772 45.7015 7.04889 45.9541C7.99549 47.1293 9.03371 48.2233 10.1534 49.2272C10.3847 49.417 10.6654 49.5338 10.9607 49.5629C11.2561 49.5919 11.5533 49.5322 11.8159 49.391C13.0158 48.7693 14.3415 48.4438 15.6869 48.4399C17.0323 48.4359 18.3599 48.7544 19.5633 49.369C20.7667 49.9837 21.8123 50.8778 22.6165 51.9797C23.4206 53.0816 23.9609 54.3606 24.194 55.7143C25.3881 55.8926 26.5925 55.9875 27.7992 56C28.7628 55.9976 29.7256 55.9428 30.6835 55.8361C30.9339 54.4723 31.4958 53.1888 32.3236 52.0886C33.1513 50.9883 34.2214 50.103 35.447 49.5049C36.6727 48.9068 38.0192 48.6121 39.3771 48.6457C40.735 48.6793 42.0661 49.0397 43.2619 49.6977C43.5092 49.8624 43.7979 49.9505 44.0931 49.9505C44.3883 49.9505 44.677 49.8624 44.9243 49.6977C46.0634 48.725 47.1281 47.6651 48.109 46.5266C48.2965 46.2906 48.4101 46.0023 48.4352 45.6994C48.4602 45.3965 48.3954 45.0929 48.2492 44.8282C47.6334 43.5978 47.3085 42.2376 47.3007 40.8558C47.2928 39.4739 47.6022 38.109 48.204 36.8714C48.8058 35.6338 49.6833 34.5577 50.766 33.7292C51.8486 32.9008 53.1064 32.3437 54.4382 32.1017C54.6061 30.9226 54.6931 29.7325 54.6986 28.541C54.7287 27.5031 54.6953 26.4644 54.5985 25.4308Z" stroke="#3D89EC" stroke-width="0.94" stroke-linecap="round" stroke-linejoin="round"/>
</svg>
