<svg width="56" height="57" viewBox="0 0 56 57" fill="none" xmlns="http://www.w3.org/2000/svg">
<path d="M14.8068 36V20.0509H20.1958C21.4419 20.0509 22.4646 20.2638 23.2642 20.6895C24.0637 21.11 24.6556 21.6889 25.0397 22.4261C25.4239 23.1634 25.616 24.0018 25.616 24.9415C25.616 25.8813 25.4239 26.7145 25.0397 27.4414C24.6556 28.1682 24.0663 28.7393 23.2719 29.1547C22.4776 29.5648 21.4626 29.7699 20.227 29.7699H15.8659V28.0255H20.1647C21.0161 28.0255 21.7014 27.9009 22.2206 27.6516C22.745 27.4024 23.124 27.0494 23.3576 26.5925C23.5964 26.1305 23.7158 25.5801 23.7158 24.9415C23.7158 24.303 23.5964 23.7448 23.3576 23.2672C23.1188 22.7896 22.7372 22.4209 22.2128 22.1614C21.6885 21.8966 20.9954 21.7642 20.1335 21.7642H16.7381V36H14.8068ZM22.3141 28.8354L26.239 36H23.9962L20.1335 28.8354H22.3141ZM39.3009 20.0509H41.2322V30.611C41.2322 31.7012 40.9752 32.6747 40.4612 33.5313C39.9524 34.3828 39.2334 35.0551 38.304 35.5483C37.3747 36.0363 36.2845 36.2804 35.0332 36.2804C33.782 36.2804 32.6918 36.0363 31.7624 35.5483C30.8331 35.0551 30.1114 34.3828 29.5975 33.5313C29.0887 32.6747 28.8343 31.7012 28.8343 30.611V20.0509H30.7656V30.4552C30.7656 31.234 30.9369 31.9271 31.2796 32.5345C31.6223 33.1367 32.1103 33.6118 32.7437 33.9596C33.3823 34.3023 34.1454 34.4736 35.0332 34.4736C35.921 34.4736 36.6842 34.3023 37.3228 33.9596C37.9614 33.6118 38.4494 33.1367 38.7869 32.5345C39.1295 31.9271 39.3009 31.234 39.3009 30.4552V20.0509Z" fill="#3D89EC"/>
<path d="M14.8068 36H14.6968V36.11H14.8068V36ZM14.8068 20.0509V19.9409H14.6968V20.0509H14.8068ZM23.2642 20.6895L23.2125 20.7866L23.213 20.7868L23.2642 20.6895ZM25.0397 22.4261L24.9422 22.477L25.0397 22.4261ZM25.0397 27.4414L24.9425 27.39L25.0397 27.4414ZM23.2719 29.1547L23.3224 29.2524L23.3229 29.2521L23.2719 29.1547ZM15.8659 29.7699H15.7559V29.8799H15.8659V29.7699ZM15.8659 28.0255V27.9155H15.7559V28.0255H15.8659ZM22.2206 27.6516L22.1734 27.5523L22.173 27.5525L22.2206 27.6516ZM23.3576 26.5925L23.2599 26.542L23.2597 26.5424L23.3576 26.5925ZM22.2128 22.1614L22.1632 22.2596L22.164 22.2599L22.2128 22.1614ZM16.7381 21.7642V21.6542H16.6281V21.7642H16.7381ZM16.7381 36V36.11H16.8481V36H16.7381ZM22.3141 28.8354L22.4105 28.7825L22.3792 28.7254H22.3141V28.8354ZM26.239 36V36.11H26.4247L26.3355 35.9471L26.239 36ZM23.9962 36L23.8994 36.0522L23.9305 36.11H23.9962V36ZM20.1335 28.8354V28.7254H19.9493L20.0367 28.8876L20.1335 28.8354ZM14.9168 36V20.0509H14.6968V36H14.9168ZM14.8068 20.1609H20.1958V19.9409H14.8068V20.1609ZM20.1958 20.1609C21.4303 20.1609 22.4337 20.3719 23.2125 20.7866L23.3159 20.5924C22.4956 20.1556 21.4535 19.9409 20.1958 19.9409V20.1609ZM23.213 20.7868C23.9945 21.1979 24.5693 21.7613 24.9422 22.477L25.1373 22.3753C24.7418 21.6165 24.1329 21.0222 23.3154 20.5921L23.213 20.7868ZM24.9422 22.477C25.3172 23.1966 25.506 24.0172 25.506 24.9415H25.726C25.726 23.9865 25.5307 23.1302 25.1373 22.3753L24.9422 22.477ZM25.506 24.9415C25.506 25.8659 25.3172 26.6811 24.9425 27.39L25.137 27.4928C25.5307 26.748 25.726 25.8966 25.726 24.9415H25.506ZM24.9425 27.39C24.5697 28.0954 23.9975 28.6512 23.221 29.0572L23.3229 29.2521C24.1351 28.8275 24.7415 28.2411 25.137 27.4928L24.9425 27.39ZM23.2215 29.0569C22.4475 29.4565 21.4514 29.6599 20.227 29.6599V29.8799C21.4738 29.8799 22.5077 29.6731 23.3224 29.2524L23.2215 29.0569ZM20.227 29.6599H15.8659V29.8799H20.227V29.6599ZM15.9759 29.7699V28.0255H15.7559V29.7699H15.9759ZM15.8659 28.1355H20.1647V27.9155H15.8659V28.1355ZM20.1647 28.1355C21.0254 28.1355 21.7288 28.0097 22.2682 27.7508L22.173 27.5525C21.6741 27.792 21.0069 27.9155 20.1647 27.9155V28.1355ZM22.2678 27.751C22.8111 27.4928 23.2095 27.1238 23.4556 26.6426L23.2597 26.5424C23.0385 26.975 22.6789 27.3121 22.1734 27.5523L22.2678 27.751ZM23.4553 26.643C23.7039 26.1622 23.8258 25.5938 23.8258 24.9415H23.6058C23.6058 25.5665 23.489 26.0987 23.2599 26.542L23.4553 26.643ZM23.8258 24.9415C23.8258 24.2892 23.7038 23.7136 23.456 23.218L23.2592 23.3164C23.4891 23.7761 23.6058 24.3167 23.6058 24.9415H23.8258ZM23.456 23.218C23.2054 22.7169 22.8053 22.3319 22.2616 22.0628L22.164 22.2599C22.6691 22.51 23.0322 22.8622 23.2592 23.3164L23.456 23.218ZM22.2624 22.0632C21.7172 21.7879 21.0052 21.6542 20.1335 21.6542V21.8742C20.9856 21.8742 21.6597 22.0053 22.1632 22.2596L22.2624 22.0632ZM20.1335 21.6542H16.7381V21.8742H20.1335V21.6542ZM16.6281 21.7642V36H16.8481V21.7642H16.6281ZM16.7381 35.89H14.8068V36.11H16.7381V35.89ZM22.2176 28.8882L26.1426 36.0529L26.3355 35.9471L22.4105 28.7825L22.2176 28.8882ZM26.239 35.89H23.9962V36.11H26.239V35.89ZM24.093 35.9478L20.2304 28.7832L20.0367 28.8876L23.8994 36.0522L24.093 35.9478ZM20.1335 28.9454H22.3141V28.7254H20.1335V28.9454ZM39.3009 20.0509V19.9409H39.1909V20.0509H39.3009ZM41.2322 20.0509H41.3422V19.9409H41.2322V20.0509ZM40.4612 33.5313L40.3669 33.4747L40.3668 33.4749L40.4612 33.5313ZM38.304 35.5483L38.3552 35.6457L38.3556 35.6455L38.304 35.5483ZM31.7624 35.5483L31.7109 35.6455L31.7113 35.6457L31.7624 35.5483ZM29.5975 33.5313L29.5029 33.5875L29.5033 33.5882L29.5975 33.5313ZM28.8343 20.0509V19.9409H28.7243V20.0509H28.8343ZM30.7656 20.0509H30.8756V19.9409H30.7656V20.0509ZM31.2796 32.5345L31.1838 32.5885L31.184 32.5889L31.2796 32.5345ZM32.7437 33.9596L32.6907 34.0561L32.6917 34.0566L32.7437 33.9596ZM37.3228 33.9596L37.3748 34.0566L37.3754 34.0562L37.3228 33.9596ZM38.7869 32.5345L38.6911 32.4805L38.6909 32.4807L38.7869 32.5345ZM39.3009 20.1609H41.2322V19.9409H39.3009V20.1609ZM41.1222 20.0509V30.611H41.3422V20.0509H41.1222ZM41.1222 30.611C41.1222 31.6832 40.8697 32.6367 40.3669 33.4747L40.5555 33.5879C41.0807 32.7126 41.3422 31.7193 41.3422 30.611H41.1222ZM40.3668 33.4749C39.8689 34.308 39.1652 34.9668 38.2525 35.4512L38.3556 35.6455C39.3016 35.1434 40.0359 34.4575 40.5557 33.5877L40.3668 33.4749ZM38.2529 35.4509C37.3421 35.9292 36.27 36.1704 35.0332 36.1704V36.3904C36.2989 36.3904 37.4073 36.1435 38.3552 35.6457L38.2529 35.4509ZM35.0332 36.1704C33.7964 36.1704 32.7244 35.9292 31.8136 35.4509L31.7113 35.6457C32.6591 36.1435 33.7676 36.3904 35.0332 36.3904V36.1704ZM31.814 35.4512C30.9012 34.9667 30.1947 34.3079 29.6916 33.4745L29.5033 33.5882C30.0282 34.4577 30.765 35.1435 31.7109 35.6455L31.814 35.4512ZM29.692 33.4751C29.1943 32.6371 28.9443 31.6834 28.9443 30.611H28.7243C28.7243 31.7191 28.9831 32.7123 29.5029 33.5875L29.692 33.4751ZM28.9443 30.611V20.0509H28.7243V30.611H28.9443ZM28.8343 20.1609H30.7656V19.9409H28.8343V20.1609ZM30.6556 20.0509V30.4552H30.8756V20.0509H30.6556ZM30.6556 30.4552C30.6556 31.2506 30.8308 31.9628 31.1838 32.5885L31.3754 32.4805C31.0431 31.8914 30.8756 31.2173 30.8756 30.4552H30.6556ZM31.184 32.5889C31.5371 33.2096 32.0403 33.6989 32.6907 34.0561L32.7966 33.8632C32.1803 33.5247 31.7074 33.0639 31.3752 32.4801L31.184 32.5889ZM32.6917 34.0566C33.3495 34.4095 34.1313 34.5836 35.0332 34.5836V34.3636C34.1596 34.3636 33.4151 34.1951 32.7957 33.8627L32.6917 34.0566ZM35.0332 34.5836C35.9351 34.5836 36.717 34.4095 37.3748 34.0566L37.2708 33.8627C36.6514 34.1951 35.9069 34.3636 35.0332 34.3636V34.5836ZM37.3754 34.0562C38.0312 33.699 38.5347 33.2096 38.8828 32.5883L38.6909 32.4807C38.3641 33.0639 37.8916 33.5245 37.2702 33.863L37.3754 34.0562ZM38.8827 32.5885C39.2357 31.9628 39.4109 31.2506 39.4109 30.4552H39.1909C39.1909 31.2173 39.0234 31.8914 38.6911 32.4805L38.8827 32.5885ZM39.4109 30.4552V20.0509H39.1909V30.4552H39.4109Z" fill="#E8E8E8"/>
<path d="M27.9189 56C42.7858 56 54.8378 43.6876 54.8378 28.5C54.8378 13.3124 42.7858 1 27.9189 1C13.052 1 1 13.3124 1 28.5C1 43.6876 13.052 56 27.9189 56Z" stroke="#3D89EC" stroke-width="0.84" stroke-linecap="round" stroke-linejoin="round"/>
</svg>
