<svg width="35" height="35" viewBox="0 0 35 35" fill="none" xmlns="http://www.w3.org/2000/svg">
<path d="M17.5096 33.8588C26.4346 33.8588 33.6697 26.4675 33.6697 17.3501C33.6697 8.23261 26.4346 0.841797 17.5096 0.841797C8.58472 0.841797 1.34961 8.23261 1.34961 17.3501C1.34961 26.4675 8.58472 33.8588 17.5096 33.8588Z" stroke="#3D89EC" stroke-width="0.81" stroke-miterlimit="10"/>
<path d="M14.6797 17.3293L16.9896 19.526L21.2096 13.9688" stroke="#3D89EC" stroke-width="1.3" stroke-linecap="round" stroke-linejoin="round"/>
<path d="M16.9987 26.6977C17.1528 26.7809 17.3245 26.8244 17.4987 26.8244C17.673 26.8244 17.8447 26.7809 17.9987 26.6977C18.9523 26.1595 19.877 25.5696 20.7688 24.9304C22.8888 23.4491 25.2287 21.4671 25.2287 18.6169V10.4443C25.2309 10.3873 25.2145 10.331 25.1818 10.2847C25.1492 10.2384 25.1024 10.2048 25.0488 10.1889L17.4787 7.87988L9.90877 10.1889C9.85516 10.2048 9.80833 10.2384 9.77571 10.2847C9.74309 10.331 9.72649 10.3873 9.72871 10.4443V18.6169C9.72871 21.4671 12.0687 23.4491 14.1887 24.9304C15.0936 25.5706 16.0317 26.1605 16.9987 26.6977Z" stroke="#3D89EC" stroke-linecap="round" stroke-linejoin="round"/>
</svg>
