<svg width="35" height="34" viewBox="0 0 35 34" fill="none" xmlns="http://www.w3.org/2000/svg">
<path d="M17.5096 33.4707C26.4346 33.4707 33.6697 26.0793 33.6697 16.9619C33.6697 7.84444 26.4346 0.453125 17.5096 0.453125C8.58472 0.453125 1.34961 7.84444 1.34961 16.9619C1.34961 26.0793 8.58472 33.4707 17.5096 33.4707Z" stroke="#3D89EC" stroke-width="0.81" stroke-miterlimit="10"/>
<path fill-rule="evenodd" clip-rule="evenodd" d="M18.5193 8.58449C18.207 8.43211 17.8654 8.35254 17.5193 8.35254C17.1732 8.35254 16.8316 8.43211 16.5193 8.58449C14.2678 9.75975 12.1456 11.1772 10.1892 12.8134C10.0364 12.934 9.91272 13.0887 9.82776 13.2659C9.7428 13.443 9.69882 13.6378 9.69922 13.835C9.70362 14.0324 9.75084 14.2265 9.83728 14.4032C9.92373 14.5798 10.0473 14.7345 10.1992 14.8566C12.1456 16.4623 14.2463 17.8625 16.4692 19.0352C16.7809 19.1897 17.1228 19.2696 17.4692 19.2696C17.8157 19.2696 18.1576 19.1897 18.4692 19.0352C20.7208 17.8599 22.8429 16.4419 24.7993 14.8057C24.9522 14.6852 25.0758 14.5304 25.1608 14.3533C25.2457 14.1761 25.2897 13.9814 25.2893 13.7841C25.2849 13.5867 25.2378 13.3926 25.1514 13.216C25.0649 13.0394 24.9413 12.8846 24.7893 12.7626C22.843 11.1568 20.7422 9.7571 18.5193 8.58449ZM17.0992 9.8001C17.224 9.74529 17.3584 9.7168 17.4943 9.7168C17.6301 9.7168 17.7645 9.74529 17.8893 9.8001C20.0154 10.9105 22.0257 12.2384 23.8893 13.7637C22.0311 15.3082 20.0202 16.6502 17.8893 17.7682C17.7645 17.823 17.6301 17.8515 17.4943 17.8515C17.3584 17.8515 17.224 17.823 17.0992 17.7682C14.9745 16.6554 12.9644 15.3276 11.0992 13.8046C12.9574 12.2601 14.9683 10.918 17.0992 9.8001Z" fill="#3D89EC"/>
<path d="M25.7787 17.1966C25.8265 17.2729 25.8591 17.3583 25.8744 17.4475C25.8897 17.5367 25.8875 17.628 25.8679 17.7164C25.8484 17.8047 25.8119 17.8884 25.7605 17.9623C25.7091 18.0361 25.6439 18.0989 25.5686 18.1468L20.0487 21.671C19.2635 22.1258 18.3763 22.3653 17.4736 22.3653C16.571 22.3653 15.6839 22.1258 14.8987 21.671L9.43861 18.1877C9.2992 18.0843 9.20348 17.9305 9.17066 17.7578C9.13784 17.585 9.17043 17.4061 9.26185 17.257C9.35327 17.1078 9.49675 16.9995 9.66322 16.9542C9.82968 16.9089 10.0068 16.9301 10.1587 17.013L15.6187 20.4963C16.1861 20.8183 16.8245 20.9876 17.4736 20.9876C18.1228 20.9876 18.7612 20.8183 19.3286 20.4963L24.8486 16.9821C24.9233 16.9332 25.0068 16.9 25.0941 16.8843C25.1815 16.8687 25.271 16.8709 25.3576 16.8908C25.4441 16.9108 25.5259 16.9481 25.5982 17.0006C25.6704 17.053 25.7318 17.1197 25.7787 17.1966Z" fill="#3D89EC"/>
<path d="M25.7798 20.6595C25.8742 20.8159 25.9051 21.0039 25.8658 21.1832C25.8266 21.3626 25.7203 21.5192 25.5697 21.6197L20.7898 24.6844C19.7803 25.2739 18.6375 25.5838 17.4747 25.5838C16.3119 25.5838 15.1693 25.2739 14.1598 24.6844L9.43969 21.6811C9.28904 21.5806 9.18278 21.424 9.14355 21.2446C9.10432 21.0652 9.13527 20.8773 9.22973 20.7208C9.27662 20.6439 9.33798 20.5773 9.41027 20.5248C9.48256 20.4723 9.56436 20.435 9.65087 20.4151C9.73738 20.3951 9.82695 20.3929 9.9143 20.4086C10.0017 20.4242 10.0851 20.4575 10.1598 20.5063L14.8798 23.5097C15.6741 23.9587 16.5669 24.1941 17.4747 24.1941C18.3825 24.1941 19.2754 23.9587 20.0697 23.5097L24.8497 20.445C24.9244 20.3961 25.0079 20.3629 25.0952 20.3472C25.1826 20.3316 25.2721 20.3338 25.3586 20.3537C25.4451 20.3737 25.5269 20.411 25.5992 20.4635C25.6715 20.5159 25.7329 20.5826 25.7798 20.6595Z" fill="#3D89EC"/>
</svg>
