<svg width="77" height="79" viewBox="0 0 77 79" fill="none" xmlns="http://www.w3.org/2000/svg">
<path d="M38.4425 78.0973C59.3902 78.0973 76.3714 60.7494 76.3714 39.3499C76.3714 17.9504 59.3902 0.602539 38.4425 0.602539C17.4949 0.602539 0.513672 17.9504 0.513672 39.3499C0.513672 60.7494 17.4949 78.0973 38.4425 78.0973Z" stroke="#3D89EC" stroke-width="0.81" stroke-miterlimit="10"/>
<path d="M57.4286 41.1495H56.4894C56.2404 41.1495 56.0019 41.0483 55.8258 40.8685C55.6498 40.6886 55.5508 40.4447 55.5508 40.1903C55.5508 39.9359 55.6498 39.692 55.8258 39.5121C56.0019 39.3323 56.2404 39.2314 56.4894 39.2314H57.4286C57.6776 39.2314 57.9161 39.3323 58.0921 39.5121C58.2682 39.692 58.3672 39.9359 58.3672 40.1903C58.3672 40.4447 58.2682 40.6886 58.0921 40.8685C57.9161 41.0483 57.6776 41.1495 57.4286 41.1495Z" fill="#3D89EC"/>
<path d="M43.9807 41.1495H41.9385C41.6895 41.1495 41.4504 41.0483 41.2743 40.8685C41.0983 40.6886 40.9999 40.4447 40.9999 40.1903C40.9999 39.9359 41.0983 39.692 41.2743 39.5121C41.4504 39.3323 41.6895 39.2314 41.9385 39.2314H44.0271C44.2761 39.2314 44.5152 39.3323 44.6913 39.5121C44.8673 39.692 44.9663 39.9359 44.9663 40.1903C44.9663 40.4447 44.8673 40.6886 44.6913 40.8685C44.5152 41.0483 44.2761 41.1495 44.0271 41.1495H43.9807ZM29.3578 41.1495H27.2926C27.0436 41.1495 26.8045 41.0483 26.6285 40.8685C26.4524 40.6886 26.354 40.4447 26.354 40.1903C26.354 39.9359 26.4524 39.692 26.6285 39.5121C26.8045 39.3323 27.0436 39.2314 27.2926 39.2314H29.3578C29.6068 39.2314 29.8458 39.3323 30.0219 39.5121C30.198 39.692 30.297 39.9359 30.297 40.1903C30.297 40.4447 30.198 40.6886 30.0219 40.8685C29.8458 41.0483 29.6068 41.1495 29.3578 41.1495Z" fill="#3D89EC"/>
<path d="M14.7586 41.1495H13.82C13.571 41.1495 13.3319 41.0483 13.1558 40.8685C12.9798 40.6886 12.8813 40.4447 12.8813 40.1903C12.8813 39.9359 12.9798 39.692 13.1558 39.5121C13.3319 39.3323 13.571 39.2314 13.82 39.2314H14.7586C15.0076 39.2314 15.2466 39.3323 15.4227 39.5121C15.5988 39.692 15.6977 39.9359 15.6977 40.1903C15.6977 40.4447 15.5988 40.6886 15.4227 40.8685C15.2466 41.0483 15.0076 41.1495 14.7586 41.1495Z" fill="#3D89EC"/>
<path d="M13.8187 43.8594C15.8019 43.8594 17.4098 42.2168 17.4098 40.1908C17.4098 38.1647 15.8019 36.5225 13.8187 36.5225C11.8354 36.5225 10.2275 38.1647 10.2275 40.1908C10.2275 42.2168 11.8354 43.8594 13.8187 43.8594Z" fill="#3D89EC"/>
<path d="M63.0384 43.8594C65.0217 43.8594 66.6295 42.2168 66.6295 40.1908C66.6295 38.1647 65.0217 36.5225 63.0384 36.5225C61.0551 36.5225 59.4473 38.1647 59.4473 40.1908C59.4473 42.2168 61.0551 43.8594 63.0384 43.8594Z" fill="#3D89EC"/>
</svg>
