<svg width="78" height="79" viewBox="0 0 78 79" fill="none" xmlns="http://www.w3.org/2000/svg">
<path d="M39.0666 78.573C60.0903 78.573 77.1331 61.1624 77.1331 39.6852C77.1331 18.208 60.0903 0.796875 39.0666 0.796875C18.0429 0.796875 1 18.208 1 39.6852C1 61.1624 18.0429 78.573 39.0666 78.573Z" stroke="#3D89EC" stroke-width="0.81" stroke-miterlimit="10"/>
<path d="M25.9239 17.9076C26.0767 17.7312 26.1939 17.5254 26.2684 17.3025C26.3428 17.0796 26.3734 16.8442 26.3581 16.6092C26.3428 16.3742 26.282 16.1444 26.1792 15.9336C26.0765 15.7228 25.9338 15.5349 25.7594 15.3808C25.5848 15.224 25.3814 15.1041 25.1613 15.0277C24.9412 14.9513 24.7083 14.9198 24.4764 14.9354C24.2444 14.9511 24.0176 15.0134 23.8092 15.1187C23.6009 15.224 23.4152 15.3705 23.2623 15.5494L20.2235 19.1108C18.5185 21.1213 17.5452 23.6713 17.4676 26.3301L17.3497 32.8756C17.321 33.1284 17.3448 33.3848 17.4199 33.6276C17.4949 33.8703 17.6193 34.0937 17.785 34.2838C17.9508 34.4739 18.1541 34.6262 18.3814 34.7303C18.6088 34.8345 18.8551 34.8884 19.1043 34.8884C19.3535 34.8884 19.5999 34.8345 19.8272 34.7303C20.0546 34.6262 20.2579 34.4739 20.4236 34.2838C20.5894 34.0937 20.7143 33.8703 20.7894 33.6276C20.8645 33.3848 20.8883 33.1284 20.8595 32.8756L21.001 26.3301C21.0474 24.4973 21.7128 22.7371 22.8851 21.3487L25.9239 17.9076Z" fill="#3D89EC" stroke="white" stroke-width="0.25" stroke-miterlimit="10"/>
<path fill-rule="evenodd" clip-rule="evenodd" d="M25.4737 30.5373C25.6353 27.9623 26.7505 25.5465 28.5925 23.781C30.4344 22.0155 32.8649 21.0329 35.3907 21.032H36.71V19.2272C36.71 18.589 36.9584 17.9765 37.4001 17.5252C37.8419 17.0739 38.4409 16.8208 39.0656 16.8208C39.6904 16.8208 40.2894 17.0739 40.7311 17.5252C41.1729 17.9765 41.4212 18.589 41.4212 19.2272V21.032H42.7169C45.2427 21.0329 47.6733 22.0155 49.5152 23.781C51.3572 25.5465 52.4724 27.9623 52.634 30.5373L53.1522 39.0321C53.3487 42.2803 54.4164 45.4106 56.2382 48.0803C56.6123 48.6329 56.8399 49.2748 56.8995 49.9439C56.9592 50.613 56.8488 51.2865 56.5786 51.8991C56.3084 52.5117 55.8879 53.0425 55.3577 53.4401C54.8275 53.8378 54.2055 54.0889 53.5524 54.1687L45.5436 55.1551V57.7301C45.5436 59.4853 44.8612 61.1686 43.6463 62.4096C42.4315 63.6507 40.7837 64.3478 39.0656 64.3478C37.3476 64.3478 35.6998 63.6507 34.4849 62.4096C33.2701 61.1686 32.5877 59.4853 32.5877 57.7301V55.1551L24.5552 54.1687C23.9022 54.0889 23.2802 53.8378 22.75 53.4401C22.2198 53.0425 21.7992 52.5117 21.529 51.8991C21.2589 51.2865 21.1485 50.613 21.2081 49.9439C21.2678 49.2748 21.4954 48.6329 21.8695 48.0803C23.6913 45.4106 24.759 42.2803 24.9555 39.0321L25.4737 30.5373ZM35.3907 24.6417C33.7648 24.6384 32.1988 25.2689 31.0125 26.4048C29.8262 27.5407 29.1091 29.0964 29.0071 30.7541L28.4889 39.2724C28.2496 43.171 26.9615 46.9266 24.7669 50.1254C24.7373 50.1673 24.7192 50.2167 24.7145 50.2682C24.7099 50.3197 24.7193 50.3713 24.741 50.418C24.7627 50.4647 24.7957 50.5048 24.8376 50.5337C24.8795 50.5627 24.9286 50.5799 24.9791 50.5831L33.7655 51.6659C37.2797 52.0749 40.828 52.0749 44.3422 51.6659L53.1286 50.5831C53.1791 50.5799 53.2282 50.5627 53.2701 50.5337C53.312 50.5048 53.345 50.4647 53.3667 50.418C53.3883 50.3713 53.3978 50.3197 53.3931 50.2682C53.3885 50.2167 53.3704 50.1673 53.3408 50.1254C51.1462 46.9266 49.8581 43.171 49.6187 39.2724L49.1006 30.7541C48.9986 29.0964 48.2809 27.5407 47.0946 26.4048C45.9083 25.2689 44.3429 24.6384 42.7169 24.6417H35.3907ZM39.0656 60.7382C38.6781 60.7414 38.2936 60.6655 37.935 60.5155C37.5763 60.3655 37.2503 60.1439 36.9763 59.864C36.7022 59.584 36.4859 59.2516 36.3391 58.8852C36.1922 58.5188 36.118 58.126 36.1211 57.7301V55.9253H42.0101V57.7301C42.0228 58.1332 41.9558 58.5343 41.8135 58.9104C41.6712 59.2866 41.4567 59.6302 41.182 59.9198C40.9073 60.2094 40.5782 60.4394 40.2147 60.5966C39.8512 60.7537 39.4604 60.8347 39.0656 60.8345V60.7382Z" fill="#3D89EC" stroke="white" stroke-width="0.25" stroke-miterlimit="10"/>
<path d="M52.3496 15.3773C52.1753 15.5314 52.0326 15.7193 51.9298 15.9301C51.827 16.1409 51.7663 16.3707 51.7509 16.6057C51.7356 16.8407 51.7662 17.0761 51.8406 17.299C51.9151 17.5219 52.0323 17.7277 52.1851 17.9041L55.224 21.4656C56.3962 22.854 57.0616 24.6142 57.108 26.4471L57.2495 32.9925C57.2525 33.2284 57.3013 33.4611 57.3932 33.6775C57.4852 33.894 57.6183 34.0898 57.7849 34.2533C57.9515 34.4167 58.148 34.5448 58.3634 34.6299C58.5789 34.715 58.8089 34.7556 59.0398 34.7492C59.2718 34.746 59.5012 34.6965 59.7144 34.6029C59.9275 34.5093 60.1201 34.3732 60.282 34.2034C60.4439 34.0335 60.5716 33.8331 60.6575 33.6129C60.7434 33.3927 60.786 33.1573 60.7829 32.9202L60.6414 26.3748C60.5736 23.714 59.599 21.1607 57.8855 19.1555L54.8467 15.594C54.6971 15.4117 54.5139 15.2613 54.3072 15.1516C54.1006 15.042 53.8745 14.9755 53.6424 14.9554C53.4104 14.9353 53.1764 14.9617 52.9546 15.0341C52.7328 15.1066 52.5272 15.2233 52.3496 15.3773Z" fill="#3D89EC" stroke="white" stroke-width="0.25" stroke-miterlimit="10"/>
</svg>
