<svg width="49" height="30" viewBox="0 0 49 30" fill="none" xmlns="http://www.w3.org/2000/svg">
<path d="M33.8235 2.79641L30.8507 8.0376C26.4589 6.26012 21.5691 6.26012 17.1773 8.0376L14.2266 2.79641C17.3209 1.43354 20.6556 0.730469 24.0253 0.730469C27.395 0.730469 30.7291 1.43354 33.8235 2.79641Z" fill="#3D89EC"/>
<path d="M9.73259 5.38403L12.6827 10.6027C10.8608 12.1193 9.31734 13.9547 8.12474 16.0235C6.99972 18.1193 6.25384 20.4053 5.92288 22.7715H0C0.378594 19.3493 1.43689 16.0423 3.11034 13.0525C4.7838 10.0627 7.03754 7.45316 9.73259 5.38403Z" fill="#3D89EC"/>
<path d="M38.2903 5.38403C40.9877 7.43135 43.2477 10.0196 44.9324 12.9899C46.6172 15.9602 47.6912 19.2507 48.0884 22.6595H42.1876C41.8417 20.2969 41.0967 18.0136 39.9857 15.9114C38.791 13.8507 37.2477 12.0225 35.4277 10.5126L38.2903 5.38403Z" fill="#3D89EC"/>
<path d="M23.979 29.5411C23.4029 29.5394 22.8335 29.4142 22.3077 29.1737C21.7819 28.9331 21.311 28.5825 20.9262 28.1445C20.5414 27.7065 20.2511 27.191 20.0736 26.6311C19.8961 26.0711 19.8353 25.4794 19.8957 24.8941C19.9561 24.3087 20.1362 23.7427 20.4241 23.2328C20.712 22.723 21.1012 22.281 21.567 21.9346C22.0327 21.5882 22.5647 21.3451 23.1281 21.2218C23.6914 21.0985 24.2737 21.0975 24.8375 21.2185C25.1782 21.2969 25.5316 21.2969 25.8723 21.2185L33.2267 18.9692C33.4229 18.9286 33.6251 18.9286 33.8213 18.9692C34.1309 19.0285 34.4107 19.1953 34.6137 19.4414C34.7126 19.7405 34.7126 20.0649 34.6137 20.364C34.6137 20.5215 34.3937 20.6338 34.2615 20.7462L28.3607 26.212C28.1837 26.3755 28.0538 26.5857 27.986 26.8194C27.6818 27.6451 27.1312 28.3524 26.412 28.8409C25.6929 29.3293 24.842 29.574 23.979 29.5411ZM25.6084 25.3575C25.6349 25.1273 25.6131 24.8939 25.5449 24.6727C25.4768 24.4516 25.3635 24.2479 25.2127 24.0747C25.0619 23.9015 24.8774 23.7627 24.6703 23.6678C24.4633 23.5728 24.2387 23.5234 24.0118 23.5234C23.7849 23.5234 23.5603 23.5728 23.3533 23.6678C23.1463 23.7627 22.9617 23.9015 22.8109 24.0747C22.6601 24.2479 22.5468 24.4516 22.4787 24.6727C22.4106 24.8939 22.3887 25.1273 22.4152 25.3575C22.3887 25.5878 22.4106 25.8212 22.4787 26.0424C22.5468 26.2635 22.6601 26.4671 22.8109 26.6404C22.9617 26.8136 23.1463 26.9524 23.3533 27.0473C23.5603 27.1423 23.7849 27.1912 24.0118 27.1912C24.2387 27.1912 24.4633 27.1423 24.6703 27.0473C24.8774 26.9524 25.0619 26.8136 25.2127 26.6404C25.3635 26.4671 25.4768 26.2635 25.5449 26.0424C25.6131 25.8212 25.6349 25.5878 25.6084 25.3575Z" fill="#3D89EC"/>
</svg>
