<svg width="34" height="34" viewBox="0 0 34 34" fill="none" xmlns="http://www.w3.org/2000/svg">
<path fill-rule="evenodd" clip-rule="evenodd" d="M0.268555 17.1272C0.268555 13.7951 1.2356 10.5374 3.04776 7.7668C4.85992 4.99621 7.43597 2.837 10.4495 1.56184C13.463 0.286673 16.7787 -0.0470706 19.9778 0.603002C23.1769 1.25307 26.1154 2.85756 28.4219 5.21375C30.7283 7.56995 32.2989 10.5718 32.9352 13.84C33.5716 17.1081 33.2454 20.4959 31.9972 23.5744C30.749 26.6529 28.6348 29.284 25.9227 31.1352C23.2106 32.9865 20.0223 33.9749 16.7605 33.9749C12.3883 33.969 8.19713 32.1918 5.10555 29.0336C2.01398 25.8753 0.27438 21.5937 0.268555 17.1272ZM18.2356 7.22972C18.1916 6.86459 18.0188 6.52837 17.7491 6.28461C17.4793 6.04086 17.1313 5.90624 16.7712 5.90624C16.4111 5.90624 16.0636 6.04086 15.7939 6.28461C15.5242 6.52837 15.3514 6.86459 15.3074 7.22972V17.1272C15.3073 17.3791 15.3697 17.6268 15.4891 17.8472C15.6085 18.0675 15.7806 18.2529 15.9896 18.3865L21.8249 22.1207C21.9868 22.2241 22.1671 22.2939 22.3554 22.3261C22.5438 22.3583 22.7365 22.3524 22.9226 22.3086C23.1086 22.2647 23.2842 22.1835 23.4397 22.0702C23.5952 21.957 23.7272 21.8133 23.8284 21.6479C23.9296 21.4825 23.9979 21.2988 24.0294 21.1064C24.0609 20.9141 24.0552 20.7172 24.0122 20.5271C23.9693 20.337 23.8903 20.1571 23.7794 19.9982C23.6686 19.8394 23.528 19.7046 23.3661 19.6012L18.2356 16.3172V7.22972Z" fill="#3D89EC"/>
</svg>
